<svg width="1692" height="911" viewBox="0 0 1692 911" fill="none" xmlns="http://www.w3.org/2000/svg">
<path d="M1464.61 237.306C1467.61 264.806 1490.31 323.106 1557.11 336.306C1623.91 349.506 1633.28 408.473 1629.61 436.306" stroke="#1C0606" stroke-opacity="0.67" stroke-width="6" stroke-dasharray="12 12"/>
<g filter="url(#filter0_dddd_300_148)">
<rect x="1585.61" y="391.306" width="80" height="80" rx="12" fill="#FFA930"/>
<path d="M1636.86 430.056C1636.86 430.551 1636.71 431.034 1636.44 431.445C1636.16 431.856 1635.77 432.177 1635.31 432.366C1634.86 432.555 1634.36 432.605 1633.87 432.508C1633.39 432.412 1632.94 432.174 1632.59 431.824C1632.24 431.474 1632 431.029 1631.91 430.544C1631.81 430.059 1631.86 429.556 1632.05 429.099C1632.24 428.643 1632.56 428.252 1632.97 427.977C1633.38 427.703 1633.86 427.556 1634.36 427.556C1635.02 427.556 1635.66 427.82 1636.13 428.288C1636.59 428.757 1636.86 429.393 1636.86 430.056ZM1629.98 421.306H1623.73C1623.24 421.306 1622.76 421.504 1622.41 421.855C1622.06 422.207 1621.86 422.684 1621.86 423.181C1621.86 423.678 1622.06 424.155 1622.41 424.507C1622.76 424.859 1623.24 425.056 1623.73 425.056H1629.98C1630.48 425.056 1630.96 424.859 1631.31 424.507C1631.66 424.155 1631.86 423.678 1631.86 423.181C1631.86 422.684 1631.66 422.207 1631.31 421.855C1630.96 421.504 1630.48 421.306 1629.98 421.306ZM1645.61 428.806V433.806C1645.61 434.954 1645.16 436.056 1644.35 436.875C1643.55 437.693 1642.45 438.162 1641.31 438.181L1638.92 444.858C1638.7 445.465 1638.3 445.99 1637.78 446.361C1637.25 446.732 1636.62 446.931 1635.98 446.931H1633.99C1633.34 446.931 1632.72 446.732 1632.19 446.361C1631.66 445.99 1631.26 445.465 1631.05 444.858L1630.89 444.431H1622.82L1622.67 444.858C1622.45 445.464 1622.05 445.989 1621.52 446.36C1621 446.731 1620.37 446.93 1619.73 446.931H1617.74C1617.09 446.931 1616.47 446.732 1615.94 446.361C1615.41 445.99 1615.01 445.465 1614.8 444.858L1612.87 439.475C1611.23 437.584 1610.11 435.295 1609.63 432.837C1609.45 433.129 1609.36 433.464 1609.36 433.806C1609.36 434.303 1609.16 434.78 1608.81 435.132C1608.46 435.484 1607.98 435.681 1607.48 435.681C1606.99 435.681 1606.51 435.484 1606.16 435.132C1605.81 434.78 1605.61 434.303 1605.61 433.806C1605.61 432.628 1605.98 431.479 1606.67 430.523C1607.36 429.566 1608.33 428.849 1609.45 428.473C1609.84 424.958 1611.51 421.711 1614.15 419.352C1616.78 416.992 1620.2 415.686 1623.73 415.681H1639.98C1640.48 415.681 1640.96 415.879 1641.31 416.23C1641.66 416.582 1641.86 417.059 1641.86 417.556C1641.86 418.053 1641.66 418.53 1641.31 418.882C1640.96 419.234 1640.48 419.431 1639.98 419.431H1638.42C1639.93 420.802 1641.12 422.477 1641.93 424.345L1642 424.501C1643.01 424.683 1643.92 425.213 1644.58 426C1645.24 426.786 1645.61 427.78 1645.61 428.806ZM1641.86 428.806C1641.86 428.64 1641.79 428.481 1641.68 428.364C1641.56 428.247 1641.4 428.181 1641.23 428.181H1640.66C1640.26 428.181 1639.87 428.054 1639.55 427.817C1639.23 427.581 1638.99 427.248 1638.87 426.867C1638.19 424.71 1636.84 422.826 1635.02 421.488C1633.2 420.151 1630.99 419.43 1628.73 419.431H1623.73C1621.67 419.431 1619.65 420.031 1617.93 421.158C1616.2 422.284 1614.84 423.889 1614.01 425.777C1613.18 427.664 1612.91 429.752 1613.25 431.787C1613.59 433.821 1614.51 435.714 1615.9 437.234C1616.07 437.418 1616.2 437.634 1616.28 437.869L1618.18 443.181H1619.29L1619.73 441.931C1619.86 441.566 1620.1 441.25 1620.42 441.026C1620.74 440.802 1621.11 440.682 1621.5 440.681H1632.22C1632.6 440.682 1632.98 440.802 1633.3 441.026C1633.61 441.25 1633.85 441.566 1633.98 441.931L1634.43 443.181H1635.54L1638.22 435.681C1638.35 435.316 1638.59 435 1638.9 434.776C1639.22 434.552 1639.6 434.432 1639.98 434.431H1641.23C1641.4 434.431 1641.56 434.365 1641.68 434.248C1641.79 434.131 1641.86 433.972 1641.86 433.806V428.806Z" fill="white"/>
</g>
<path d="M1443.61 223.306C1446.61 195.806 1469.31 137.506 1536.11 124.306C1602.91 111.106 1612.28 52.1395 1608.61 24.3062" stroke="#1C0606" stroke-opacity="0.67" stroke-width="6" stroke-dasharray="12 12"/>
<g filter="url(#filter1_dddd_300_148)">
<rect x="1576.31" y="2.30615" width="80" height="80" rx="12" transform="rotate(15 1576.31 2.30615)" fill="#FFA930"/>
<path d="M1619.34 49.4215L1613.9 47.9656L1615.36 42.5323C1615.49 42.052 1615.42 41.5402 1615.17 41.1095C1614.92 40.6789 1614.51 40.3646 1614.03 40.2359L1596.53 35.5448L1596.69 34.9411C1596.82 34.4608 1596.75 33.949 1596.5 33.5183C1596.25 33.0877 1595.84 32.7734 1595.36 32.6447C1594.88 32.516 1594.37 32.5834 1593.94 32.832C1593.51 33.0807 1593.19 33.4902 1593.07 33.9705L1585.95 60.5335C1585.82 61.0138 1585.89 61.5256 1586.14 61.9563C1586.38 62.3869 1586.79 62.7012 1587.27 62.8299C1587.75 62.9586 1588.27 62.8912 1588.7 62.6426C1589.13 62.3939 1589.44 61.9844 1589.57 61.5041L1589.73 60.9004L1602.41 64.2974C1602.89 64.4261 1603.4 64.3587 1603.83 64.11C1604.26 63.8614 1604.58 63.4519 1604.71 62.9715L1606.16 57.5382L1616.42 60.2882C1616.91 60.4169 1617.42 60.3495 1617.85 60.1008C1618.28 59.8522 1618.59 59.4427 1618.72 58.9623L1620.66 51.7179C1620.79 51.2376 1620.72 50.7258 1620.48 50.2951C1620.23 49.8644 1619.82 49.5502 1619.34 49.4215ZM1611.25 43.3728L1610.28 46.9951L1594.58 42.7893L1595.56 39.167L1611.25 43.3728ZM1601.57 60.1899L1590.7 57.2781L1591.67 53.6559L1602.54 56.5676L1601.57 60.1899ZM1615.58 56.1806L1592.64 50.0337L1593.61 46.4115L1616.55 52.5584L1615.58 56.1806Z" fill="white"/>
</g>
<path d="M254.29 379.306C251.29 351.806 228.59 293.506 161.79 280.306C94.9903 267.106 85.6236 208.139 89.2903 180.306" stroke="#1C0606" stroke-opacity="0.67" stroke-width="6" stroke-dasharray="12 12"/>
<g filter="url(#filter2_dddd_300_148)">
<rect x="21.6096" y="182.306" width="80" height="80" rx="12" transform="rotate(-30 21.6096 182.306)" fill="#FFA930"/>
<path d="M65.9442 197.846C65.6955 197.415 65.6281 196.903 65.7569 196.423C65.8856 195.943 66.1998 195.533 66.6305 195.285L79.6208 187.785C80.0515 187.536 80.5633 187.468 81.0436 187.597C81.524 187.726 81.9335 188.04 82.1821 188.471C82.4308 188.901 82.4982 189.413 82.3695 189.894C82.2407 190.374 81.9265 190.783 81.4958 191.032L68.5055 198.532C68.0748 198.781 67.563 198.848 67.0827 198.719C66.6023 198.591 66.1928 198.276 65.9442 197.846ZM71.6305 203.945L84.6208 196.445C85.0515 196.196 85.3657 195.787 85.4945 195.306C85.6232 194.826 85.5558 194.314 85.3071 193.883C85.0585 193.453 84.649 193.139 84.1686 193.01C83.6883 192.881 83.1765 192.949 82.7458 193.197L69.7555 200.697C69.3248 200.946 69.0106 201.355 68.8819 201.836C68.7531 202.316 68.8205 202.828 69.0692 203.258C69.3178 203.689 69.7273 204.003 70.2077 204.132C70.688 204.261 71.1998 204.193 71.6305 203.945ZM85.2398 178.767L97.1148 199.335C97.2746 199.612 97.361 199.925 97.3657 200.245C97.3705 200.564 97.2934 200.88 97.1419 201.161C96.9904 201.443 96.7694 201.681 96.5 201.853C96.2306 202.025 95.9217 202.125 95.6027 202.144L90.9593 202.423L88.3957 206.305C88.2353 206.548 88.0204 206.75 87.7682 206.896C87.5159 207.042 87.2332 207.127 86.9424 207.144L82.2991 207.423L79.7355 211.305C79.575 211.548 79.3602 211.75 79.1079 211.896C78.8557 212.042 78.5729 212.127 78.2822 212.144L73.6388 212.423L71.0752 216.305C70.8992 216.572 70.6579 216.789 70.3742 216.936C70.0905 217.084 69.7739 217.156 69.4544 217.146C69.1349 217.137 68.8231 217.046 68.5487 216.882C68.2743 216.718 68.0463 216.487 67.8865 216.21L56.0115 195.642C55.5971 194.924 55.4848 194.071 55.6993 193.271C55.9138 192.47 56.4375 191.787 57.1553 191.373L80.971 177.623C81.6888 177.209 82.5418 177.096 83.3423 177.311C84.1429 177.525 84.8254 178.049 85.2398 178.767ZM82.3047 181.183L59.5716 194.308L69.6169 211.707L71.0255 209.575C71.1859 209.332 71.4007 209.129 71.653 208.984C71.9053 208.838 72.188 208.753 72.4788 208.736L77.1221 208.457L79.6857 204.575C79.8461 204.332 80.061 204.129 80.3133 203.984C80.5655 203.838 80.8483 203.753 81.139 203.736L85.7823 203.457L88.346 199.575C88.5064 199.332 88.7213 199.129 88.9735 198.984C89.2258 198.838 89.5085 198.753 89.7993 198.736L92.35 198.582L82.3047 181.183Z" fill="white"/>
</g>
<path d="M77.6096 657.306C80.6096 629.806 103.31 571.506 170.11 558.306C236.91 545.106 246.276 486.139 242.61 458.306" stroke="#1C0606" stroke-opacity="0.67" stroke-width="6" stroke-dasharray="12 12"/>
<g filter="url(#filter3_dddd_300_148)">
<rect x="58.3152" y="595.306" width="80" height="80" rx="12" transform="rotate(15 58.3152 595.306)" fill="#FFA930"/>
<g clip-path="url(#clip0_300_148)">
<path d="M99.6643 660.738C99.5355 661.218 99.2213 661.628 98.7906 661.876C98.36 662.125 97.8482 662.192 97.3679 662.064L68.3901 654.299C67.9097 654.17 67.5002 653.856 67.2516 653.425C67.0029 652.995 66.9356 652.483 67.0643 652.003L73.5347 627.855C73.6634 627.374 73.9777 626.965 74.4083 626.716C74.839 626.467 75.3508 626.4 75.8311 626.529C76.3115 626.657 76.721 626.972 76.9696 627.402C77.2183 627.833 77.2857 628.345 77.157 628.825L73.6973 641.737L81.9121 637.702C82.2978 637.512 82.737 637.461 83.156 637.557C83.5751 637.652 83.9487 637.889 84.2141 638.227L90.9942 646.863L101.554 641.671C101.776 641.543 102.022 641.462 102.277 641.433C102.532 641.404 102.79 641.427 103.035 641.502C103.28 641.576 103.508 641.7 103.703 641.866C103.898 642.032 104.058 642.236 104.171 642.466C104.285 642.696 104.35 642.946 104.363 643.202C104.376 643.458 104.336 643.714 104.246 643.954C104.156 644.194 104.017 644.413 103.839 644.598C103.661 644.782 103.447 644.928 103.211 645.027L91.2869 650.89C90.9012 651.08 90.462 651.131 90.0429 651.036C89.6239 650.94 89.2503 650.704 88.9849 650.366L82.2036 641.734L72.4072 646.551L71.1718 651.162L98.3384 658.441C98.8188 658.57 99.2283 658.884 99.4769 659.315C99.7256 659.746 99.793 660.258 99.6643 660.738Z" fill="white"/>
</g>
</g>
<g clip-path="url(#clip1_300_148)">
<rect x="213.61" y="63.3062" width="1280" height="827" rx="24" fill="#FFF8F5"/>
</g>
<rect x="203.61" y="53.3062" width="1300" height="847" rx="34" stroke="black" stroke-width="20"/>
<defs>
<filter id="filter0_dddd_300_148" x="1559.61" y="386.306" width="132" height="176" filterUnits="userSpaceOnUse" color-interpolation-filters="sRGB">
<feFlood flood-opacity="0" result="BackgroundImageFix"/>
<feColorMatrix in="SourceAlpha" type="matrix" values="0 0 0 0 0 0 0 0 0 0 0 0 0 0 0 0 0 0 127 0" result="hardAlpha"/>
<feOffset dy="4"/>
<feGaussianBlur stdDeviation="4.5"/>
<feColorMatrix type="matrix" values="0 0 0 0 0.501961 0 0 0 0 0.25098 0 0 0 0 0 0 0 0 0.1 0"/>
<feBlend mode="normal" in2="BackgroundImageFix" result="effect1_dropShadow_300_148"/>
<feColorMatrix in="SourceAlpha" type="matrix" values="0 0 0 0 0 0 0 0 0 0 0 0 0 0 0 0 0 0 127 0" result="hardAlpha"/>
<feOffset dy="16"/>
<feGaussianBlur stdDeviation="8"/>
<feColorMatrix type="matrix" values="0 0 0 0 0.501961 0 0 0 0 0.25098 0 0 0 0 0 0 0 0 0.09 0"/>
<feBlend mode="normal" in2="effect1_dropShadow_300_148" result="effect2_dropShadow_300_148"/>
<feColorMatrix in="SourceAlpha" type="matrix" values="0 0 0 0 0 0 0 0 0 0 0 0 0 0 0 0 0 0 127 0" result="hardAlpha"/>
<feOffset dy="36"/>
<feGaussianBlur stdDeviation="11"/>
<feColorMatrix type="matrix" values="0 0 0 0 0.501961 0 0 0 0 0.25098 0 0 0 0 0 0 0 0 0.05 0"/>
<feBlend mode="normal" in2="effect2_dropShadow_300_148" result="effect3_dropShadow_300_148"/>
<feColorMatrix in="SourceAlpha" type="matrix" values="0 0 0 0 0 0 0 0 0 0 0 0 0 0 0 0 0 0 127 0" result="hardAlpha"/>
<feOffset dy="65"/>
<feGaussianBlur stdDeviation="13"/>
<feColorMatrix type="matrix" values="0 0 0 0 0.501961 0 0 0 0 0.25098 0 0 0 0 0 0 0 0 0.01 0"/>
<feBlend mode="normal" in2="effect3_dropShadow_300_148" result="effect4_dropShadow_300_148"/>
<feBlend mode="normal" in="SourceGraphic" in2="effect4_dropShadow_300_148" result="shape"/>
</filter>
<filter id="filter1_dddd_300_148" x="1529.61" y="-2.69385" width="149.98" height="193.979" filterUnits="userSpaceOnUse" color-interpolation-filters="sRGB">
<feFlood flood-opacity="0" result="BackgroundImageFix"/>
<feColorMatrix in="SourceAlpha" type="matrix" values="0 0 0 0 0 0 0 0 0 0 0 0 0 0 0 0 0 0 127 0" result="hardAlpha"/>
<feOffset dy="4"/>
<feGaussianBlur stdDeviation="4.5"/>
<feColorMatrix type="matrix" values="0 0 0 0 0.501961 0 0 0 0 0.25098 0 0 0 0 0 0 0 0 0.1 0"/>
<feBlend mode="normal" in2="BackgroundImageFix" result="effect1_dropShadow_300_148"/>
<feColorMatrix in="SourceAlpha" type="matrix" values="0 0 0 0 0 0 0 0 0 0 0 0 0 0 0 0 0 0 127 0" result="hardAlpha"/>
<feOffset dy="16"/>
<feGaussianBlur stdDeviation="8"/>
<feColorMatrix type="matrix" values="0 0 0 0 0.501961 0 0 0 0 0.25098 0 0 0 0 0 0 0 0 0.09 0"/>
<feBlend mode="normal" in2="effect1_dropShadow_300_148" result="effect2_dropShadow_300_148"/>
<feColorMatrix in="SourceAlpha" type="matrix" values="0 0 0 0 0 0 0 0 0 0 0 0 0 0 0 0 0 0 127 0" result="hardAlpha"/>
<feOffset dy="36"/>
<feGaussianBlur stdDeviation="11"/>
<feColorMatrix type="matrix" values="0 0 0 0 0.501961 0 0 0 0 0.25098 0 0 0 0 0 0 0 0 0.05 0"/>
<feBlend mode="normal" in2="effect2_dropShadow_300_148" result="effect3_dropShadow_300_148"/>
<feColorMatrix in="SourceAlpha" type="matrix" values="0 0 0 0 0 0 0 0 0 0 0 0 0 0 0 0 0 0 127 0" result="hardAlpha"/>
<feOffset dy="65"/>
<feGaussianBlur stdDeviation="13"/>
<feColorMatrix type="matrix" values="0 0 0 0 0.501961 0 0 0 0 0.25098 0 0 0 0 0 0 0 0 0.01 0"/>
<feBlend mode="normal" in2="effect3_dropShadow_300_148" result="effect4_dropShadow_300_148"/>
<feBlend mode="normal" in="SourceGraphic" in2="effect4_dropShadow_300_148" result="shape"/>
</filter>
<filter id="filter2_dddd_300_148" x="-4.39038" y="137.306" width="161.282" height="205.282" filterUnits="userSpaceOnUse" color-interpolation-filters="sRGB">
<feFlood flood-opacity="0" result="BackgroundImageFix"/>
<feColorMatrix in="SourceAlpha" type="matrix" values="0 0 0 0 0 0 0 0 0 0 0 0 0 0 0 0 0 0 127 0" result="hardAlpha"/>
<feOffset dy="4"/>
<feGaussianBlur stdDeviation="4.5"/>
<feColorMatrix type="matrix" values="0 0 0 0 0.501961 0 0 0 0 0.25098 0 0 0 0 0 0 0 0 0.1 0"/>
<feBlend mode="normal" in2="BackgroundImageFix" result="effect1_dropShadow_300_148"/>
<feColorMatrix in="SourceAlpha" type="matrix" values="0 0 0 0 0 0 0 0 0 0 0 0 0 0 0 0 0 0 127 0" result="hardAlpha"/>
<feOffset dy="16"/>
<feGaussianBlur stdDeviation="8"/>
<feColorMatrix type="matrix" values="0 0 0 0 0.501961 0 0 0 0 0.25098 0 0 0 0 0 0 0 0 0.09 0"/>
<feBlend mode="normal" in2="effect1_dropShadow_300_148" result="effect2_dropShadow_300_148"/>
<feColorMatrix in="SourceAlpha" type="matrix" values="0 0 0 0 0 0 0 0 0 0 0 0 0 0 0 0 0 0 127 0" result="hardAlpha"/>
<feOffset dy="36"/>
<feGaussianBlur stdDeviation="11"/>
<feColorMatrix type="matrix" values="0 0 0 0 0.501961 0 0 0 0 0.25098 0 0 0 0 0 0 0 0 0.05 0"/>
<feBlend mode="normal" in2="effect2_dropShadow_300_148" result="effect3_dropShadow_300_148"/>
<feColorMatrix in="SourceAlpha" type="matrix" values="0 0 0 0 0 0 0 0 0 0 0 0 0 0 0 0 0 0 127 0" result="hardAlpha"/>
<feOffset dy="65"/>
<feGaussianBlur stdDeviation="13"/>
<feColorMatrix type="matrix" values="0 0 0 0 0.501961 0 0 0 0 0.25098 0 0 0 0 0 0 0 0 0.01 0"/>
<feBlend mode="normal" in2="effect3_dropShadow_300_148" result="effect4_dropShadow_300_148"/>
<feBlend mode="normal" in="SourceGraphic" in2="effect4_dropShadow_300_148" result="shape"/>
</filter>
<filter id="filter3_dddd_300_148" x="11.6096" y="590.306" width="149.98" height="193.979" filterUnits="userSpaceOnUse" color-interpolation-filters="sRGB">
<feFlood flood-opacity="0" result="BackgroundImageFix"/>
<feColorMatrix in="SourceAlpha" type="matrix" values="0 0 0 0 0 0 0 0 0 0 0 0 0 0 0 0 0 0 127 0" result="hardAlpha"/>
<feOffset dy="4"/>
<feGaussianBlur stdDeviation="4.5"/>
<feColorMatrix type="matrix" values="0 0 0 0 0.501961 0 0 0 0 0.25098 0 0 0 0 0 0 0 0 0.1 0"/>
<feBlend mode="normal" in2="BackgroundImageFix" result="effect1_dropShadow_300_148"/>
<feColorMatrix in="SourceAlpha" type="matrix" values="0 0 0 0 0 0 0 0 0 0 0 0 0 0 0 0 0 0 127 0" result="hardAlpha"/>
<feOffset dy="16"/>
<feGaussianBlur stdDeviation="8"/>
<feColorMatrix type="matrix" values="0 0 0 0 0.501961 0 0 0 0 0.25098 0 0 0 0 0 0 0 0 0.09 0"/>
<feBlend mode="normal" in2="effect1_dropShadow_300_148" result="effect2_dropShadow_300_148"/>
<feColorMatrix in="SourceAlpha" type="matrix" values="0 0 0 0 0 0 0 0 0 0 0 0 0 0 0 0 0 0 127 0" result="hardAlpha"/>
<feOffset dy="36"/>
<feGaussianBlur stdDeviation="11"/>
<feColorMatrix type="matrix" values="0 0 0 0 0.501961 0 0 0 0 0.25098 0 0 0 0 0 0 0 0 0.05 0"/>
<feBlend mode="normal" in2="effect2_dropShadow_300_148" result="effect3_dropShadow_300_148"/>
<feColorMatrix in="SourceAlpha" type="matrix" values="0 0 0 0 0 0 0 0 0 0 0 0 0 0 0 0 0 0 127 0" result="hardAlpha"/>
<feOffset dy="65"/>
<feGaussianBlur stdDeviation="13"/>
<feColorMatrix type="matrix" values="0 0 0 0 0.501961 0 0 0 0 0.25098 0 0 0 0 0 0 0 0 0.01 0"/>
<feBlend mode="normal" in2="effect3_dropShadow_300_148" result="effect4_dropShadow_300_148"/>
<feBlend mode="normal" in="SourceGraphic" in2="effect4_dropShadow_300_148" result="shape"/>
</filter>
<clipPath id="clip0_300_148">
<rect width="40" height="40" fill="white" transform="translate(72.4573 619.801) rotate(15)"/>
</clipPath>
<clipPath id="clip1_300_148">
<rect x="213.61" y="63.3062" width="1280" height="827" rx="24" fill="white"/>
</clipPath>
</defs>
</svg>
