<svg width="140" height="27" viewBox="0 0 140 27" fill="none" xmlns="http://www.w3.org/2000/svg">
<path d="M4.00653 14.1723C3.94858 13.494 4.2799 12.8426 4.85644 12.5015L20.5125 3.23935C21.5997 2.59625 22.9719 3.32581 23.0813 4.60488L24.0402 15.8291C24.0983 16.5075 23.7669 17.1589 23.1904 17.4999L7.5343 26.7622C6.44723 27.4053 5.07488 26.6756 4.96558 25.3966L4.00653 14.1723Z" fill="white"/>
<path d="M26.4106 11.7089C26.6285 11.6544 26.8378 11.5685 27.0319 11.4536L43.3401 1.80561C44.4272 1.16251 45.7997 1.89206 45.9089 3.17114L46.868 14.3954C46.9259 15.0738 46.5945 15.7251 46.018 16.0662L30.3619 25.3285C29.2749 25.9715 27.9025 25.2418 27.7933 23.9629L27.2651 17.7816C27.2374 17.4567 27.1132 17.1482 26.9097 16.8974C26.426 16.3014 25.5949 16.1442 24.9348 16.5233L22.0777 18.1642C21.8815 18.2769 21.6336 18.2199 21.5034 18.0322L19.5327 15.1897C19.2306 14.754 19.1392 14.2015 19.2842 13.6885L21.1335 7.14605C21.273 6.65261 21.9349 6.59637 22.1522 7.05951L23.7234 10.4091C24.2058 11.4375 25.3268 11.9798 26.4106 11.7089Z" fill="white"/>
<path d="M27.1321 12.6046C27.0742 11.9262 27.4055 11.2748 27.9821 10.9338L43.6382 1.6716C44.7252 1.0285 46.0976 1.75805 46.2068 3.03713L47.1659 14.2614C47.2238 14.9397 46.8924 15.5911 46.3159 15.9322L30.6598 25.1943C29.5728 25.8373 28.2004 25.1079 28.0912 23.8287L27.1321 12.6046Z" fill="white"/>
<path d="M49.5363 10.1411C49.7542 10.0867 49.9633 10.0007 50.1574 9.88584L66.4658 0.237858C67.5527 -0.405244 68.9252 0.324311 69.0343 1.60339L69.9935 12.8276C70.0514 13.506 69.72 14.1574 69.1435 14.4984L53.4876 23.7605C52.4004 24.4036 51.028 23.6742 50.9188 22.395L50.3905 16.2138C50.3629 15.8889 50.2389 15.5805 50.0352 15.3295C49.5515 14.7338 48.7206 14.5764 48.0603 14.9556L45.2032 16.5963C45.007 16.7092 44.759 16.6522 44.6289 16.4643L42.6582 13.6219C42.3563 13.1862 42.2647 12.6337 42.4097 12.1207L44.2591 5.5783C44.3985 5.08484 45.0604 5.0286 45.2776 5.49174L46.8489 8.84134C47.3313 9.86975 48.4525 10.412 49.5363 10.1411Z" fill="white"/>
<path d="M80.8 20.5V6.5H83.46L87.34 15.36L91.16 6.5H93.88V20.5H91.98V8.92L88.24 17.34H86.36L82.6 8.92V20.5H80.8ZM101.06 20.74C100.073 20.74 99.1864 20.5133 98.3997 20.06C97.613 19.5933 96.993 18.9533 96.5397 18.14C96.0997 17.3133 95.8797 16.3667 95.8797 15.3C95.8797 14.18 96.1064 13.2133 96.5597 12.4C97.013 11.5867 97.633 10.96 98.4197 10.52C99.2064 10.08 100.086 9.86 101.06 9.86C102.033 9.86 102.906 10.08 103.68 10.52C104.466 10.96 105.086 11.5867 105.54 12.4C106.006 13.2 106.24 14.1533 106.24 15.26C106.24 16.3667 106.013 17.3333 105.56 18.16C105.106 18.9733 104.486 19.6067 103.7 20.06C102.926 20.5133 102.046 20.74 101.06 20.74ZM101.06 19.14C102.113 19.14 102.933 18.7867 103.52 18.08C104.106 17.36 104.4 16.4333 104.4 15.3C104.4 14.6067 104.253 13.9733 103.96 13.4C103.666 12.8133 103.266 12.3467 102.76 12C102.266 11.64 101.7 11.46 101.06 11.46C100.006 11.46 99.1864 11.8067 98.5997 12.5C98.013 13.1933 97.7197 14.1133 97.7197 15.26C97.7197 15.9533 97.8664 16.6 98.1597 17.2C98.453 17.7867 98.8464 18.26 99.3397 18.62C99.8464 18.9667 100.42 19.14 101.06 19.14ZM108.033 20.5V10.1H109.773V11.84C110.146 11.28 110.619 10.8133 111.193 10.44C111.779 10.0533 112.473 9.86 113.273 9.86C114.446 9.86 115.319 10.2133 115.893 10.92C116.479 11.6267 116.773 12.56 116.773 13.72V20.5H114.973V13.92C114.973 13.1733 114.793 12.5733 114.433 12.12C114.086 11.6667 113.599 11.44 112.973 11.44C112.359 11.44 111.779 11.66 111.233 12.1C110.686 12.5267 110.219 13.0333 109.833 13.62V20.5H108.033ZM119.269 20.5V10.1H121.069V20.5H119.269ZM120.169 8.32C119.822 8.32 119.522 8.19333 119.269 7.94C119.029 7.68667 118.909 7.39333 118.909 7.06C118.909 6.67333 119.022 6.36667 119.249 6.14C119.475 5.91333 119.782 5.8 120.169 5.8C120.515 5.8 120.809 5.92667 121.049 6.18C121.302 6.42 121.429 6.71333 121.429 7.06C121.429 7.43333 121.315 7.74 121.089 7.98C120.862 8.20667 120.555 8.32 120.169 8.32ZM127.309 20.74C126.309 20.74 125.515 20.4133 124.929 19.76C124.355 19.0933 124.069 18.1467 124.069 16.92V12.04H122.269V10.48H124.109L124.489 7.2H125.869V10.48H128.749V12.04H125.869V17.06C125.869 17.8333 126.029 18.3733 126.349 18.68C126.682 18.9867 127.075 19.14 127.529 19.14C127.862 19.14 128.175 19.0867 128.469 18.98C128.775 18.8733 129.055 18.7467 129.309 18.6L129.809 20.04C129.542 20.2 129.182 20.3533 128.729 20.5C128.275 20.66 127.802 20.74 127.309 20.74ZM131.083 25.14C130.683 25.14 130.329 25.1 130.023 25.02C129.729 24.94 129.496 24.8467 129.323 24.74L129.723 23.24C129.883 23.3333 130.083 23.4133 130.323 23.48C130.563 23.5467 130.829 23.58 131.123 23.58C131.683 23.58 132.183 23.4 132.623 23.04C133.063 22.68 133.483 21.9733 133.883 20.92L134.343 19.72H133.383L129.323 10.58L130.923 9.86L134.803 18.52L137.823 9.94L139.483 10.58L135.663 21.02C135.276 22.0867 134.856 22.92 134.403 23.52C133.949 24.12 133.449 24.54 132.903 24.78C132.356 25.02 131.749 25.14 131.083 25.14Z" fill="white"/>
</svg>
