<svg width="66" height="27" viewBox="0 0 66 27" fill="none" xmlns="http://www.w3.org/2000/svg">
<path d="M0.00653113 14.1723C-0.0514204 13.494 0.279903 12.8426 0.856437 12.5015L16.5125 3.23935C17.5997 2.59625 18.9719 3.32581 19.0813 4.60488L20.0402 15.8291C20.0983 16.5075 19.7669 17.1589 19.1904 17.4999L3.5343 26.7622C2.44723 27.4053 1.07488 26.6756 0.965584 25.3966L0.00653113 14.1723Z" fill="#FFA930"/>
<path d="M22.4106 11.7089C22.6285 11.6544 22.8378 11.5685 23.0319 11.4536L39.3401 1.80561C40.4272 1.16251 41.7997 1.89206 41.9089 3.17114L42.868 14.3954C42.9259 15.0738 42.5945 15.7251 42.018 16.0662L26.3619 25.3285C25.2749 25.9715 23.9025 25.2418 23.7933 23.9629L23.2651 17.7816C23.2374 17.4567 23.1132 17.1482 22.9097 16.8974C22.426 16.3014 21.5949 16.1442 20.9348 16.5233L18.0777 18.1642C17.8815 18.2769 17.6336 18.2199 17.5034 18.0322L15.5327 15.1897C15.2306 14.754 15.1392 14.2015 15.2842 13.6885L17.1335 7.14605C17.273 6.65261 17.9349 6.59637 18.1522 7.05951L19.7234 10.4091C20.2058 11.4375 21.3268 11.9798 22.4106 11.7089Z" fill="#FFA930"/>
<path d="M23.1321 12.6046C23.0742 11.9262 23.4055 11.2748 23.9821 10.9338L39.6382 1.6716C40.7252 1.0285 42.0976 1.75805 42.2068 3.03713L43.1659 14.2614C43.2238 14.9397 42.8924 15.5911 42.3159 15.9322L26.6598 25.1943C25.5728 25.8373 24.2004 25.1079 24.0912 23.8287L23.1321 12.6046Z" fill="#FFA930"/>
<path d="M45.5363 10.1411C45.7542 10.0867 45.9633 10.0007 46.1574 9.88584L62.4658 0.237858C63.5527 -0.405244 64.9252 0.324311 65.0343 1.60339L65.9935 12.8276C66.0514 13.506 65.72 14.1574 65.1435 14.4984L49.4876 23.7605C48.4004 24.4036 47.028 23.6742 46.9188 22.395L46.3905 16.2138C46.3629 15.8889 46.2389 15.5805 46.0352 15.3295C45.5515 14.7338 44.7206 14.5764 44.0603 14.9556L41.2032 16.5963C41.007 16.7092 40.759 16.6522 40.6289 16.4643L38.6582 13.6219C38.3563 13.1862 38.2647 12.6337 38.4097 12.1207L40.2591 5.5783C40.3985 5.08484 41.0604 5.0286 41.2776 5.49174L42.8489 8.84134C43.3313 9.86975 44.4525 10.412 45.5363 10.1411Z" fill="#FFA930"/>
</svg>
