<svg width="201" height="90" viewBox="0 0 201 90" fill="none" xmlns="http://www.w3.org/2000/svg">
<g filter="url(#filter0_dddd_123_82)">
<rect x="33" y="8" width="126" height="49" rx="8" fill="url(#paint0_linear_123_82)"/>
<rect x="33.5" y="8.5" width="125" height="48" rx="7.5" stroke="url(#paint1_linear_123_82)"/>
<path d="M64.54 41V26.1H70.82C71.7533 26.1 72.56 26.2667 73.24 26.6C73.92 26.92 74.44 27.3867 74.8 28C75.16 28.6 75.34 29.3133 75.34 30.14C75.34 30.86 75.1533 31.52 74.78 32.12C74.42 32.7067 73.8533 33.1733 73.08 33.52V32.52C73.76 32.7867 74.3133 33.1267 74.74 33.54C75.1667 33.94 75.4733 34.3933 75.66 34.9C75.86 35.4067 75.96 35.94 75.96 36.5C75.96 37.9 75.5 39 74.58 39.8C73.6733 40.6 72.4267 41 70.84 41H64.54ZM66.9 38.9H71.02C71.8067 38.9 72.4333 38.6867 72.9 38.26C73.3667 37.82 73.6 37.24 73.6 36.52C73.6 35.7867 73.3667 35.2067 72.9 34.78C72.4333 34.34 71.8067 34.12 71.02 34.12H66.9V38.9ZM66.9 32.04H70.88C71.52 32.04 72.0333 31.86 72.42 31.5C72.8067 31.1267 73 30.64 73 30.04C73 29.44 72.8067 28.9733 72.42 28.64C72.0333 28.3067 71.52 28.14 70.88 28.14H66.9V32.04ZM82.4477 41.24C81.3677 41.24 80.4077 40.9933 79.5677 40.5C78.741 39.9933 78.0943 39.3133 77.6277 38.46C77.161 37.5933 76.9277 36.6267 76.9277 35.56C76.9277 34.4667 77.161 33.5 77.6277 32.66C78.1077 31.82 78.7477 31.16 79.5477 30.68C80.3477 30.1867 81.2543 29.94 82.2677 29.94C83.081 29.94 83.8077 30.08 84.4477 30.36C85.0877 30.64 85.6277 31.0267 86.0677 31.52C86.5077 32 86.841 32.5533 87.0677 33.18C87.3077 33.8067 87.4277 34.4733 87.4277 35.18C87.4277 35.3533 87.421 35.5333 87.4077 35.72C87.3943 35.9067 87.3677 36.08 87.3277 36.24H78.7077V34.44H86.0477L84.9677 35.26C85.101 34.6067 85.0543 34.0267 84.8277 33.52C84.6143 33 84.281 32.5933 83.8277 32.3C83.3877 31.9933 82.8677 31.84 82.2677 31.84C81.6677 31.84 81.1343 31.9933 80.6677 32.3C80.201 32.5933 79.841 33.02 79.5877 33.58C79.3343 34.1267 79.2343 34.7933 79.2877 35.58C79.221 36.3133 79.321 36.9533 79.5877 37.5C79.8677 38.0467 80.2543 38.4733 80.7477 38.78C81.2543 39.0867 81.8277 39.24 82.4677 39.24C83.121 39.24 83.6743 39.0933 84.1277 38.8C84.5943 38.5067 84.961 38.1267 85.2277 37.66L87.0677 38.56C86.8543 39.0667 86.521 39.5267 86.0677 39.94C85.6277 40.34 85.0943 40.66 84.4677 40.9C83.8543 41.1267 83.181 41.24 82.4477 41.24ZM88.8333 41V25.86H91.0933V41H88.8333ZM96.1756 41.24C95.4423 41.24 94.7956 41.1133 94.2356 40.86C93.689 40.5933 93.2623 40.2333 92.9556 39.78C92.649 39.3133 92.4956 38.7667 92.4956 38.14C92.4956 37.5533 92.6223 37.0267 92.8756 36.56C93.1423 36.0933 93.549 35.7 94.0956 35.38C94.6423 35.06 95.329 34.8333 96.1556 34.7L99.9156 34.08V35.86L96.5956 36.44C95.9956 36.5467 95.5556 36.74 95.2756 37.02C94.9956 37.2867 94.8556 37.6333 94.8556 38.06C94.8556 38.4733 95.009 38.8133 95.3156 39.08C95.6356 39.3333 96.0423 39.46 96.5356 39.46C97.149 39.46 97.6823 39.3267 98.1356 39.06C98.6023 38.7933 98.9623 38.44 99.2156 38C99.469 37.5467 99.5956 37.0467 99.5956 36.5V33.72C99.5956 33.1867 99.3956 32.7533 98.9956 32.42C98.609 32.0733 98.089 31.9 97.4356 31.9C96.8356 31.9 96.309 32.06 95.8556 32.38C95.4156 32.6867 95.089 33.0867 94.8756 33.58L92.9956 32.64C93.1956 32.1067 93.5223 31.64 93.9756 31.24C94.429 30.8267 94.9556 30.5067 95.5556 30.28C96.169 30.0533 96.8156 29.94 97.4956 29.94C98.349 29.94 99.1023 30.1 99.7556 30.42C100.422 30.74 100.936 31.1867 101.296 31.76C101.669 32.32 101.856 32.9733 101.856 33.72V41H99.6956V39.04L100.156 39.1C99.9023 39.54 99.5756 39.92 99.1756 40.24C98.789 40.56 98.3423 40.8067 97.8356 40.98C97.3423 41.1533 96.789 41.24 96.1756 41.24ZM103.698 41V30.18H105.858V32.3L105.598 32.02C105.865 31.34 106.291 30.8267 106.878 30.48C107.465 30.12 108.145 29.94 108.918 29.94C109.718 29.94 110.425 30.1133 111.038 30.46C111.651 30.8067 112.131 31.2867 112.478 31.9C112.825 32.5133 112.998 33.22 112.998 34.02V41H110.758V34.62C110.758 34.0733 110.658 33.6133 110.458 33.24C110.258 32.8533 109.971 32.56 109.598 32.36C109.238 32.1467 108.825 32.04 108.358 32.04C107.891 32.04 107.471 32.1467 107.098 32.36C106.738 32.56 106.458 32.8533 106.258 33.24C106.058 33.6267 105.958 34.0867 105.958 34.62V41H103.698ZM112.957 45.42C112.81 45.42 112.65 45.4067 112.477 45.38C112.29 45.3667 112.137 45.3467 112.017 45.32V43.36C112.27 43.4 112.524 43.42 112.777 43.42C113.337 43.42 113.784 43.2733 114.117 42.98C114.45 42.7 114.617 42.2733 114.617 41.7V30.18H116.877V41.7C116.877 42.4867 116.71 43.16 116.377 43.72C116.044 44.28 115.584 44.7 114.997 44.98C114.41 45.2733 113.73 45.42 112.957 45.42ZM114.617 28.7V26.1H116.877V28.7H114.617ZM121.959 41.24C121.226 41.24 120.579 41.1133 120.019 40.86C119.473 40.5933 119.046 40.2333 118.739 39.78C118.433 39.3133 118.279 38.7667 118.279 38.14C118.279 37.5533 118.406 37.0267 118.659 36.56C118.926 36.0933 119.333 35.7 119.879 35.38C120.426 35.06 121.113 34.8333 121.939 34.7L125.699 34.08V35.86L122.379 36.44C121.779 36.5467 121.339 36.74 121.059 37.02C120.779 37.2867 120.639 37.6333 120.639 38.06C120.639 38.4733 120.793 38.8133 121.099 39.08C121.419 39.3333 121.826 39.46 122.319 39.46C122.933 39.46 123.466 39.3267 123.919 39.06C124.386 38.7933 124.746 38.44 124.999 38C125.253 37.5467 125.379 37.0467 125.379 36.5V33.72C125.379 33.1867 125.179 32.7533 124.779 32.42C124.393 32.0733 123.873 31.9 123.219 31.9C122.619 31.9 122.093 32.06 121.639 32.38C121.199 32.6867 120.873 33.0867 120.659 33.58L118.779 32.64C118.979 32.1067 119.306 31.64 119.759 31.24C120.213 30.8267 120.739 30.5067 121.339 30.28C121.953 30.0533 122.599 29.94 123.279 29.94C124.133 29.94 124.886 30.1 125.539 30.42C126.206 30.74 126.719 31.1867 127.079 31.76C127.453 32.32 127.639 32.9733 127.639 33.72V41H125.479V39.04L125.939 39.1C125.686 39.54 125.359 39.92 124.959 40.24C124.573 40.56 124.126 40.8067 123.619 40.98C123.126 41.1533 122.573 41.24 121.959 41.24Z" fill="#1C0606"/>
</g>
<defs>
<filter id="filter0_dddd_123_82" x="-9" y="0" width="210" height="203" filterUnits="userSpaceOnUse" color-interpolation-filters="sRGB">
<feFlood flood-opacity="0" result="BackgroundImageFix"/>
<feColorMatrix in="SourceAlpha" type="matrix" values="0 0 0 0 0 0 0 0 0 0 0 0 0 0 0 0 0 0 127 0" result="hardAlpha"/>
<feOffset dy="6"/>
<feGaussianBlur stdDeviation="7"/>
<feColorMatrix type="matrix" values="0 0 0 0 0.501961 0 0 0 0 0.25098 0 0 0 0 0 0 0 0 0.1 0"/>
<feBlend mode="normal" in2="BackgroundImageFix" result="effect1_dropShadow_123_82"/>
<feColorMatrix in="SourceAlpha" type="matrix" values="0 0 0 0 0 0 0 0 0 0 0 0 0 0 0 0 0 0 127 0" result="hardAlpha"/>
<feOffset dy="26"/>
<feGaussianBlur stdDeviation="13"/>
<feColorMatrix type="matrix" values="0 0 0 0 0.501961 0 0 0 0 0.25098 0 0 0 0 0 0 0 0 0.09 0"/>
<feBlend mode="normal" in2="effect1_dropShadow_123_82" result="effect2_dropShadow_123_82"/>
<feColorMatrix in="SourceAlpha" type="matrix" values="0 0 0 0 0 0 0 0 0 0 0 0 0 0 0 0 0 0 127 0" result="hardAlpha"/>
<feOffset dy="58"/>
<feGaussianBlur stdDeviation="17.5"/>
<feColorMatrix type="matrix" values="0 0 0 0 0.501961 0 0 0 0 0.25098 0 0 0 0 0 0 0 0 0.05 0"/>
<feBlend mode="normal" in2="effect2_dropShadow_123_82" result="effect3_dropShadow_123_82"/>
<feColorMatrix in="SourceAlpha" type="matrix" values="0 0 0 0 0 0 0 0 0 0 0 0 0 0 0 0 0 0 127 0" result="hardAlpha"/>
<feOffset dy="104"/>
<feGaussianBlur stdDeviation="21"/>
<feColorMatrix type="matrix" values="0 0 0 0 0.501961 0 0 0 0 0.25098 0 0 0 0 0 0 0 0 0.01 0"/>
<feBlend mode="normal" in2="effect3_dropShadow_123_82" result="effect4_dropShadow_123_82"/>
<feBlend mode="normal" in="SourceGraphic" in2="effect4_dropShadow_123_82" result="shape"/>
</filter>
<linearGradient id="paint0_linear_123_82" x1="96" y1="8" x2="96" y2="57" gradientUnits="userSpaceOnUse">
<stop stop-color="white"/>
<stop offset="0.9375" stop-color="white" stop-opacity="0"/>
</linearGradient>
<linearGradient id="paint1_linear_123_82" x1="96" y1="8" x2="96" y2="57" gradientUnits="userSpaceOnUse">
<stop stop-color="#FFA930" stop-opacity="0.07"/>
<stop offset="1" stop-color="#251500"/>
</linearGradient>
</defs>
</svg>
