<svg width="203" height="90" viewBox="0 0 203 90" fill="none" xmlns="http://www.w3.org/2000/svg">
<g filter="url(#filter0_dddd_123_128)">
<rect x="42" y="8" width="128" height="49" rx="8" fill="url(#paint0_linear_123_128)"/>
<rect x="42.5" y="8.5" width="127" height="48" rx="7.5" stroke="url(#paint1_linear_123_128)"/>
<path d="M73.54 41V26.1H78.42C79.9667 26.1 81.3067 26.4133 82.44 27.04C83.5867 27.6533 84.4733 28.52 85.1 29.64C85.7267 30.76 86.04 32.06 86.04 33.54C86.04 35.0067 85.7267 36.3067 85.1 37.44C84.4733 38.56 83.5867 39.4333 82.44 40.06C81.3067 40.6867 79.9667 41 78.42 41H73.54ZM75.9 38.9H78.46C79.5133 38.9 80.4267 38.68 81.2 38.24C81.9867 37.8 82.5933 37.18 83.02 36.38C83.4467 35.58 83.66 34.6333 83.66 33.54C83.66 32.4467 83.44 31.5067 83 30.72C82.5733 29.92 81.9733 29.3 81.2 28.86C80.4267 28.42 79.5133 28.2 78.46 28.2H75.9V38.9ZM90.4866 41.24C89.7532 41.24 89.1066 41.1133 88.5466 40.86C87.9999 40.5933 87.5732 40.2333 87.2666 39.78C86.9599 39.3133 86.8066 38.7667 86.8066 38.14C86.8066 37.5533 86.9332 37.0267 87.1866 36.56C87.4532 36.0933 87.8599 35.7 88.4066 35.38C88.9532 35.06 89.6399 34.8333 90.4666 34.7L94.2266 34.08V35.86L90.9066 36.44C90.3066 36.5467 89.8666 36.74 89.5866 37.02C89.3066 37.2867 89.1666 37.6333 89.1666 38.06C89.1666 38.4733 89.3199 38.8133 89.6266 39.08C89.9466 39.3333 90.3532 39.46 90.8466 39.46C91.4599 39.46 91.9932 39.3267 92.4466 39.06C92.9132 38.7933 93.2732 38.44 93.5266 38C93.7799 37.5467 93.9066 37.0467 93.9066 36.5V33.72C93.9066 33.1867 93.7066 32.7533 93.3066 32.42C92.9199 32.0733 92.3999 31.9 91.7466 31.9C91.1466 31.9 90.6199 32.06 90.1666 32.38C89.7266 32.6867 89.3999 33.0867 89.1866 33.58L87.3066 32.64C87.5066 32.1067 87.8332 31.64 88.2866 31.24C88.7399 30.8267 89.2666 30.5067 89.8666 30.28C90.4799 30.0533 91.1266 29.94 91.8066 29.94C92.6599 29.94 93.4132 30.1 94.0666 30.42C94.7332 30.74 95.2466 31.1867 95.6066 31.76C95.9799 32.32 96.1666 32.9733 96.1666 33.72V41H94.0066V39.04L94.4666 39.1C94.2132 39.54 93.8866 39.92 93.4866 40.24C93.0999 40.56 92.6532 40.8067 92.1466 40.98C91.6532 41.1533 91.0999 41.24 90.4866 41.24ZM98.0091 41V30.18H100.169V32.36L99.9691 32.04C100.209 31.3333 100.596 30.8267 101.129 30.52C101.662 30.2 102.302 30.04 103.049 30.04H103.709V32.1H102.769C102.022 32.1 101.416 32.3333 100.949 32.8C100.496 33.2533 100.269 33.9067 100.269 34.76V41H98.0091ZM108.315 41.24C107.502 41.24 106.788 41.06 106.175 40.7C105.562 40.3267 105.082 39.8133 104.735 39.16C104.402 38.4933 104.235 37.7267 104.235 36.86V30.18H106.495V36.66C106.495 37.1533 106.595 37.5867 106.795 37.96C106.995 38.3333 107.275 38.6267 107.635 38.84C107.995 39.04 108.408 39.14 108.875 39.14C109.355 39.14 109.775 39.0333 110.135 38.82C110.495 38.6067 110.775 38.3067 110.975 37.92C111.188 37.5333 111.295 37.08 111.295 36.56V30.18H113.535V41H111.395V38.88L111.635 39.16C111.382 39.8267 110.962 40.34 110.375 40.7C109.788 41.06 109.102 41.24 108.315 41.24ZM115.374 41V30.18H117.534V32.36L117.334 32.04C117.574 31.3333 117.961 30.8267 118.494 30.52C119.027 30.2 119.667 30.04 120.414 30.04H121.074V32.1H120.134C119.387 32.1 118.781 32.3333 118.314 32.8C117.861 33.2533 117.634 33.9067 117.634 34.76V41H115.374ZM125.06 41.24C124.327 41.24 123.68 41.1133 123.12 40.86C122.573 40.5933 122.147 40.2333 121.84 39.78C121.533 39.3133 121.38 38.7667 121.38 38.14C121.38 37.5533 121.507 37.0267 121.76 36.56C122.027 36.0933 122.433 35.7 122.98 35.38C123.527 35.06 124.213 34.8333 125.04 34.7L128.8 34.08V35.86L125.48 36.44C124.88 36.5467 124.44 36.74 124.16 37.02C123.88 37.2867 123.74 37.6333 123.74 38.06C123.74 38.4733 123.893 38.8133 124.2 39.08C124.52 39.3333 124.927 39.46 125.42 39.46C126.033 39.46 126.567 39.3267 127.02 39.06C127.487 38.7933 127.847 38.44 128.1 38C128.353 37.5467 128.48 37.0467 128.48 36.5V33.72C128.48 33.1867 128.28 32.7533 127.88 32.42C127.493 32.0733 126.973 31.9 126.32 31.9C125.72 31.9 125.193 32.06 124.74 32.38C124.3 32.6867 123.973 33.0867 123.76 33.58L121.88 32.64C122.08 32.1067 122.407 31.64 122.86 31.24C123.313 30.8267 123.84 30.5067 124.44 30.28C125.053 30.0533 125.7 29.94 126.38 29.94C127.233 29.94 127.987 30.1 128.64 30.42C129.307 30.74 129.82 31.1867 130.18 31.76C130.553 32.32 130.74 32.9733 130.74 33.72V41H128.58V39.04L129.04 39.1C128.787 39.54 128.46 39.92 128.06 40.24C127.673 40.56 127.227 40.8067 126.72 40.98C126.227 41.1533 125.673 41.24 125.06 41.24ZM137.067 41.12C135.934 41.12 135.054 40.8 134.427 40.16C133.801 39.52 133.487 38.62 133.487 37.46V32.22H131.587V30.18H131.887C132.394 30.18 132.787 30.0333 133.067 29.74C133.347 29.4467 133.487 29.0467 133.487 28.54V27.7H135.747V30.18H138.207V32.22H135.747V37.36C135.747 37.7333 135.807 38.0533 135.927 38.32C136.047 38.5733 136.241 38.7733 136.507 38.92C136.774 39.0533 137.121 39.12 137.547 39.12C137.654 39.12 137.774 39.1133 137.907 39.1C138.041 39.0867 138.167 39.0733 138.287 39.06V41C138.101 41.0267 137.894 41.0533 137.667 41.08C137.441 41.1067 137.241 41.12 137.067 41.12Z" fill="#1C0606"/>
</g>
<defs>
<filter id="filter0_dddd_123_128" x="0" y="0" width="212" height="203" filterUnits="userSpaceOnUse" color-interpolation-filters="sRGB">
<feFlood flood-opacity="0" result="BackgroundImageFix"/>
<feColorMatrix in="SourceAlpha" type="matrix" values="0 0 0 0 0 0 0 0 0 0 0 0 0 0 0 0 0 0 127 0" result="hardAlpha"/>
<feOffset dy="6"/>
<feGaussianBlur stdDeviation="7"/>
<feColorMatrix type="matrix" values="0 0 0 0 0.501961 0 0 0 0 0.25098 0 0 0 0 0 0 0 0 0.1 0"/>
<feBlend mode="normal" in2="BackgroundImageFix" result="effect1_dropShadow_123_128"/>
<feColorMatrix in="SourceAlpha" type="matrix" values="0 0 0 0 0 0 0 0 0 0 0 0 0 0 0 0 0 0 127 0" result="hardAlpha"/>
<feOffset dy="26"/>
<feGaussianBlur stdDeviation="13"/>
<feColorMatrix type="matrix" values="0 0 0 0 0.501961 0 0 0 0 0.25098 0 0 0 0 0 0 0 0 0.09 0"/>
<feBlend mode="normal" in2="effect1_dropShadow_123_128" result="effect2_dropShadow_123_128"/>
<feColorMatrix in="SourceAlpha" type="matrix" values="0 0 0 0 0 0 0 0 0 0 0 0 0 0 0 0 0 0 127 0" result="hardAlpha"/>
<feOffset dy="58"/>
<feGaussianBlur stdDeviation="17.5"/>
<feColorMatrix type="matrix" values="0 0 0 0 0.501961 0 0 0 0 0.25098 0 0 0 0 0 0 0 0 0.05 0"/>
<feBlend mode="normal" in2="effect2_dropShadow_123_128" result="effect3_dropShadow_123_128"/>
<feColorMatrix in="SourceAlpha" type="matrix" values="0 0 0 0 0 0 0 0 0 0 0 0 0 0 0 0 0 0 127 0" result="hardAlpha"/>
<feOffset dy="104"/>
<feGaussianBlur stdDeviation="21"/>
<feColorMatrix type="matrix" values="0 0 0 0 0.501961 0 0 0 0 0.25098 0 0 0 0 0 0 0 0 0.01 0"/>
<feBlend mode="normal" in2="effect3_dropShadow_123_128" result="effect4_dropShadow_123_128"/>
<feBlend mode="normal" in="SourceGraphic" in2="effect4_dropShadow_123_128" result="shape"/>
</filter>
<linearGradient id="paint0_linear_123_128" x1="106" y1="8" x2="106" y2="57" gradientUnits="userSpaceOnUse">
<stop stop-color="white"/>
<stop offset="0.9375" stop-color="white" stop-opacity="0"/>
</linearGradient>
<linearGradient id="paint1_linear_123_128" x1="106" y1="8" x2="106" y2="57" gradientUnits="userSpaceOnUse">
<stop stop-color="#FFA930" stop-opacity="0.07"/>
<stop offset="1" stop-color="#251500"/>
</linearGradient>
</defs>
</svg>
