<svg width="544" height="199" viewBox="0 0 544 199" fill="none" xmlns="http://www.w3.org/2000/svg">
<g opacity="0.34">
<rect x="51.1375" y="117" width="46" height="100" rx="8" fill="url(#paint0_linear_313_35)" fill-opacity="0.34"/>
<rect x="107.137" y="44" width="46" height="173" rx="8" fill="url(#paint1_linear_313_35)" fill-opacity="0.34"/>
<rect x="163.137" y="20" width="46" height="197" rx="8" fill="url(#paint2_linear_313_35)" fill-opacity="0.34"/>
<rect x="219.137" width="46" height="217" rx="8" fill="url(#paint3_linear_313_35)" fill-opacity="0.34"/>
<rect x="275.137" y="32" width="46" height="185" rx="8" fill="url(#paint4_linear_313_35)" fill-opacity="0.34"/>
<rect x="331.137" y="57" width="46" height="160" rx="8" fill="url(#paint5_linear_313_35)" fill-opacity="0.34"/>
<rect x="387.137" y="39" width="46" height="178" rx="8" fill="url(#paint6_linear_313_35)" fill-opacity="0.34"/>
<rect x="443.137" y="27" width="46" height="190" rx="8" fill="url(#paint7_linear_313_35)" fill-opacity="0.34"/>
</g>
<g filter="url(#filter0_dddd_313_35)">
<g filter="url(#filter1_i_313_35)">
<path d="M23.2833 67.6463C22.3471 64.1523 23.872 60.4648 27.0025 58.6524L70.3588 33.5514C74.9145 30.9139 80.732 33.3195 82.0945 38.4043L97.8853 97.3365C98.8215 100.831 97.2967 104.518 94.1662 106.33L50.8099 131.431C46.2541 134.069 40.4366 131.663 39.0742 126.579L23.2833 67.6463Z" fill="#FFA930"/>
<path d="M23.2833 67.6463C22.3471 64.1523 23.872 60.4648 27.0025 58.6524L70.3588 33.5514C74.9145 30.9139 80.732 33.3195 82.0945 38.4043L97.8853 97.3365C98.8215 100.831 97.2967 104.518 94.1662 106.33L50.8099 131.431C46.2541 134.069 40.4366 131.663 39.0742 126.579L23.2833 67.6463Z" fill="url(#paint8_linear_313_35)" fill-opacity="0.5"/>
<path d="M23.2833 67.6463C22.3471 64.1523 23.872 60.4648 27.0025 58.6524L70.3588 33.5514C74.9145 30.9139 80.732 33.3195 82.0945 38.4043L97.8853 97.3365C98.8215 100.831 97.2967 104.518 94.1662 106.33L50.8099 131.431C46.2541 134.069 40.4366 131.663 39.0742 126.579L23.2833 67.6463Z" fill="#8B5000" fill-opacity="0.5"/>
</g>
<g filter="url(#filter2_i_313_35)">
<path d="M23.0686 66.8449C22.7827 65.778 23.4159 64.6813 24.4828 64.3954L119.257 39.0007C123.525 37.8571 127.912 40.3898 129.055 44.6575L144.994 104.14C146.137 108.408 143.605 112.794 139.337 113.938L50.3578 137.78C46.0901 138.923 41.7034 136.391 40.5598 132.123L23.0686 66.8449Z" fill="#FFA930"/>
<path d="M23.0686 66.8449C22.7827 65.778 23.4159 64.6813 24.4828 64.3954L119.257 39.0007C123.525 37.8571 127.912 40.3898 129.055 44.6575L144.994 104.14C146.137 108.408 143.605 112.794 139.337 113.938L50.3578 137.78C46.0901 138.923 41.7034 136.391 40.5598 132.123L23.0686 66.8449Z" fill="url(#paint9_linear_313_35)" fill-opacity="0.5"/>
</g>
<g filter="url(#filter3_i_313_35)">
<circle cx="121.878" cy="78.4573" r="6.60262" transform="rotate(-15 121.878 78.4573)" fill="#221A12"/>
<circle cx="121.878" cy="78.4573" r="6.60262" transform="rotate(-15 121.878 78.4573)" fill="url(#paint10_radial_313_35)" fill-opacity="0.5"/>
</g>
</g>
<g filter="url(#filter4_dddd_313_35)">
<g filter="url(#filter5_i_313_35)">
<path d="M211.137 67.6463C210.201 64.1523 211.726 60.4648 214.856 58.6524L258.212 33.5514C262.768 30.9139 268.586 33.3195 269.948 38.4043L285.739 97.3365C286.675 100.831 285.15 104.518 282.02 106.33L238.663 131.431C234.108 134.069 228.29 131.663 226.928 126.579L211.137 67.6463Z" fill="#FFA930"/>
<path d="M211.137 67.6463C210.201 64.1523 211.726 60.4648 214.856 58.6524L258.212 33.5514C262.768 30.9139 268.586 33.3195 269.948 38.4043L285.739 97.3365C286.675 100.831 285.15 104.518 282.02 106.33L238.663 131.431C234.108 134.069 228.29 131.663 226.928 126.579L211.137 67.6463Z" fill="url(#paint11_linear_313_35)" fill-opacity="0.5"/>
<path d="M211.137 67.6463C210.201 64.1523 211.726 60.4648 214.856 58.6524L258.212 33.5514C262.768 30.9139 268.586 33.3195 269.948 38.4043L285.739 97.3365C286.675 100.831 285.15 104.518 282.02 106.33L238.663 131.431C234.108 134.069 228.29 131.663 226.928 126.579L211.137 67.6463Z" fill="#8B5000" fill-opacity="0.5"/>
</g>
<g filter="url(#filter6_i_313_35)">
<path d="M210.922 66.8449C210.636 65.778 211.269 64.6813 212.336 64.3954L307.111 39.0007C311.379 37.8571 315.765 40.3898 316.909 44.6575L332.847 104.14C333.991 108.408 331.458 112.794 327.19 113.938L238.211 137.78C233.944 138.923 229.557 136.391 228.413 132.123L210.922 66.8449Z" fill="#FFA930"/>
<path d="M210.922 66.8449C210.636 65.778 211.269 64.6813 212.336 64.3954L307.111 39.0007C311.379 37.8571 315.765 40.3898 316.909 44.6575L332.847 104.14C333.991 108.408 331.458 112.794 327.19 113.938L238.211 137.78C233.944 138.923 229.557 136.391 228.413 132.123L210.922 66.8449Z" fill="url(#paint12_linear_313_35)" fill-opacity="0.5"/>
</g>
<g filter="url(#filter7_i_313_35)">
<circle cx="309.731" cy="78.4573" r="6.60262" transform="rotate(-15 309.731 78.4573)" fill="#221A12"/>
<circle cx="309.731" cy="78.4573" r="6.60262" transform="rotate(-15 309.731 78.4573)" fill="url(#paint13_radial_313_35)" fill-opacity="0.5"/>
</g>
</g>
<g filter="url(#filter8_dddd_313_35)">
<g filter="url(#filter9_i_313_35)">
<path d="M398.99 67.6463C398.054 64.1523 399.579 60.4648 402.71 58.6524L446.066 33.5514C450.622 30.9139 456.439 33.3195 457.802 38.4043L473.592 97.3365C474.529 100.831 473.004 104.518 469.873 106.33L426.517 131.431C421.961 134.069 416.144 131.663 414.781 126.579L398.99 67.6463Z" fill="#FFA930"/>
<path d="M398.99 67.6463C398.054 64.1523 399.579 60.4648 402.71 58.6524L446.066 33.5514C450.622 30.9139 456.439 33.3195 457.802 38.4043L473.592 97.3365C474.529 100.831 473.004 104.518 469.873 106.33L426.517 131.431C421.961 134.069 416.144 131.663 414.781 126.579L398.99 67.6463Z" fill="url(#paint14_linear_313_35)" fill-opacity="0.5"/>
<path d="M398.99 67.6463C398.054 64.1523 399.579 60.4648 402.71 58.6524L446.066 33.5514C450.622 30.9139 456.439 33.3195 457.802 38.4043L473.592 97.3365C474.529 100.831 473.004 104.518 469.873 106.33L426.517 131.431C421.961 134.069 416.144 131.663 414.781 126.579L398.99 67.6463Z" fill="#8B5000" fill-opacity="0.5"/>
</g>
<g filter="url(#filter10_i_313_35)">
<path d="M398.776 66.8449C398.49 65.778 399.123 64.6813 400.19 64.3954L494.965 39.0007C499.232 37.8571 503.619 40.3898 504.763 44.6575L520.701 104.14C521.844 108.408 519.312 112.794 515.044 113.938L426.065 137.78C421.797 138.923 417.41 136.391 416.267 132.123L398.776 66.8449Z" fill="#FFA930"/>
<path d="M398.776 66.8449C398.49 65.778 399.123 64.6813 400.19 64.3954L494.965 39.0007C499.232 37.8571 503.619 40.3898 504.763 44.6575L520.701 104.14C521.844 108.408 519.312 112.794 515.044 113.938L426.065 137.78C421.797 138.923 417.41 136.391 416.267 132.123L398.776 66.8449Z" fill="url(#paint15_linear_313_35)" fill-opacity="0.5"/>
</g>
<g filter="url(#filter11_i_313_35)">
<circle cx="497.585" cy="78.4573" r="6.60262" transform="rotate(-15 497.585 78.4573)" fill="#221A12"/>
<circle cx="497.585" cy="78.4573" r="6.60262" transform="rotate(-15 497.585 78.4573)" fill="url(#paint16_radial_313_35)" fill-opacity="0.5"/>
</g>
</g>
<defs>
<filter id="filter0_dddd_313_35" x="0" y="28.4702" width="168.268" height="190.584" filterUnits="userSpaceOnUse" color-interpolation-filters="sRGB">
<feFlood flood-opacity="0" result="BackgroundImageFix"/>
<feColorMatrix in="SourceAlpha" type="matrix" values="0 0 0 0 0 0 0 0 0 0 0 0 0 0 0 0 0 0 127 0" result="hardAlpha"/>
<feOffset dy="4"/>
<feGaussianBlur stdDeviation="4"/>
<feColorMatrix type="matrix" values="0 0 0 0 0.501961 0 0 0 0 0.25098 0 0 0 0 0 0 0 0 0.1 0"/>
<feBlend mode="normal" in2="BackgroundImageFix" result="effect1_dropShadow_313_35"/>
<feColorMatrix in="SourceAlpha" type="matrix" values="0 0 0 0 0 0 0 0 0 0 0 0 0 0 0 0 0 0 127 0" result="hardAlpha"/>
<feOffset dy="14"/>
<feGaussianBlur stdDeviation="7"/>
<feColorMatrix type="matrix" values="0 0 0 0 0.501961 0 0 0 0 0.25098 0 0 0 0 0 0 0 0 0.09 0"/>
<feBlend mode="normal" in2="effect1_dropShadow_313_35" result="effect2_dropShadow_313_35"/>
<feColorMatrix in="SourceAlpha" type="matrix" values="0 0 0 0 0 0 0 0 0 0 0 0 0 0 0 0 0 0 127 0" result="hardAlpha"/>
<feOffset dy="32"/>
<feGaussianBlur stdDeviation="9.5"/>
<feColorMatrix type="matrix" values="0 0 0 0 0.501961 0 0 0 0 0.25098 0 0 0 0 0 0 0 0 0.05 0"/>
<feBlend mode="normal" in2="effect2_dropShadow_313_35" result="effect3_dropShadow_313_35"/>
<feColorMatrix in="SourceAlpha" type="matrix" values="0 0 0 0 0 0 0 0 0 0 0 0 0 0 0 0 0 0 127 0" result="hardAlpha"/>
<feOffset dy="58"/>
<feGaussianBlur stdDeviation="11.5"/>
<feColorMatrix type="matrix" values="0 0 0 0 0.501961 0 0 0 0 0.25098 0 0 0 0 0 0 0 0 0.01 0"/>
<feBlend mode="normal" in2="effect3_dropShadow_313_35" result="effect4_dropShadow_313_35"/>
<feBlend mode="normal" in="SourceGraphic" in2="effect4_dropShadow_313_35" result="shape"/>
</filter>
<filter id="filter1_i_313_35" x="23.01" y="32.4702" width="75.1486" height="104.042" filterUnits="userSpaceOnUse" color-interpolation-filters="sRGB">
<feFlood flood-opacity="0" result="BackgroundImageFix"/>
<feBlend mode="normal" in="SourceGraphic" in2="BackgroundImageFix" result="shape"/>
<feColorMatrix in="SourceAlpha" type="matrix" values="0 0 0 0 0 0 0 0 0 0 0 0 0 0 0 0 0 0 127 0" result="hardAlpha"/>
<feOffset dy="4"/>
<feGaussianBlur stdDeviation="2"/>
<feComposite in2="hardAlpha" operator="arithmetic" k2="-1" k3="1"/>
<feColorMatrix type="matrix" values="0 0 0 0 0.836538 0 0 0 0 0.57023 0 0 0 0 0.209135 0 0 0 1 0"/>
<feBlend mode="normal" in2="shape" result="effect1_innerShadow_313_35"/>
</filter>
<filter id="filter2_i_313_35" x="23" y="38.7261" width="122.268" height="103.328" filterUnits="userSpaceOnUse" color-interpolation-filters="sRGB">
<feFlood flood-opacity="0" result="BackgroundImageFix"/>
<feBlend mode="normal" in="SourceGraphic" in2="BackgroundImageFix" result="shape"/>
<feColorMatrix in="SourceAlpha" type="matrix" values="0 0 0 0 0 0 0 0 0 0 0 0 0 0 0 0 0 0 127 0" result="hardAlpha"/>
<feOffset dy="4"/>
<feGaussianBlur stdDeviation="2"/>
<feComposite in2="hardAlpha" operator="arithmetic" k2="-1" k3="1"/>
<feColorMatrix type="matrix" values="0 0 0 0 1 0 0 0 0 0.810417 0 0 0 0 0.1875 0 0 0 1 0"/>
<feBlend mode="normal" in2="shape" result="effect1_innerShadow_313_35"/>
</filter>
<filter id="filter3_i_313_35" x="115.273" y="70.853" width="13.2085" height="14.2085" filterUnits="userSpaceOnUse" color-interpolation-filters="sRGB">
<feFlood flood-opacity="0" result="BackgroundImageFix"/>
<feBlend mode="normal" in="SourceGraphic" in2="BackgroundImageFix" result="shape"/>
<feColorMatrix in="SourceAlpha" type="matrix" values="0 0 0 0 0 0 0 0 0 0 0 0 0 0 0 0 0 0 127 0" result="hardAlpha"/>
<feOffset dy="-1"/>
<feGaussianBlur stdDeviation="1"/>
<feComposite in2="hardAlpha" operator="arithmetic" k2="-1" k3="1"/>
<feColorMatrix type="matrix" values="0 0 0 0 0.545098 0 0 0 0 0.313726 0 0 0 0 0 0 0 0 1 0"/>
<feBlend mode="normal" in2="shape" result="effect1_innerShadow_313_35"/>
</filter>
<filter id="filter4_dddd_313_35" x="187.854" y="28.4702" width="168.268" height="190.584" filterUnits="userSpaceOnUse" color-interpolation-filters="sRGB">
<feFlood flood-opacity="0" result="BackgroundImageFix"/>
<feColorMatrix in="SourceAlpha" type="matrix" values="0 0 0 0 0 0 0 0 0 0 0 0 0 0 0 0 0 0 127 0" result="hardAlpha"/>
<feOffset dy="4"/>
<feGaussianBlur stdDeviation="4"/>
<feColorMatrix type="matrix" values="0 0 0 0 0.501961 0 0 0 0 0.25098 0 0 0 0 0 0 0 0 0.1 0"/>
<feBlend mode="normal" in2="BackgroundImageFix" result="effect1_dropShadow_313_35"/>
<feColorMatrix in="SourceAlpha" type="matrix" values="0 0 0 0 0 0 0 0 0 0 0 0 0 0 0 0 0 0 127 0" result="hardAlpha"/>
<feOffset dy="14"/>
<feGaussianBlur stdDeviation="7"/>
<feColorMatrix type="matrix" values="0 0 0 0 0.501961 0 0 0 0 0.25098 0 0 0 0 0 0 0 0 0.09 0"/>
<feBlend mode="normal" in2="effect1_dropShadow_313_35" result="effect2_dropShadow_313_35"/>
<feColorMatrix in="SourceAlpha" type="matrix" values="0 0 0 0 0 0 0 0 0 0 0 0 0 0 0 0 0 0 127 0" result="hardAlpha"/>
<feOffset dy="32"/>
<feGaussianBlur stdDeviation="9.5"/>
<feColorMatrix type="matrix" values="0 0 0 0 0.501961 0 0 0 0 0.25098 0 0 0 0 0 0 0 0 0.05 0"/>
<feBlend mode="normal" in2="effect2_dropShadow_313_35" result="effect3_dropShadow_313_35"/>
<feColorMatrix in="SourceAlpha" type="matrix" values="0 0 0 0 0 0 0 0 0 0 0 0 0 0 0 0 0 0 127 0" result="hardAlpha"/>
<feOffset dy="58"/>
<feGaussianBlur stdDeviation="11.5"/>
<feColorMatrix type="matrix" values="0 0 0 0 0.501961 0 0 0 0 0.25098 0 0 0 0 0 0 0 0 0.01 0"/>
<feBlend mode="normal" in2="effect3_dropShadow_313_35" result="effect4_dropShadow_313_35"/>
<feBlend mode="normal" in="SourceGraphic" in2="effect4_dropShadow_313_35" result="shape"/>
</filter>
<filter id="filter5_i_313_35" x="210.864" y="32.4702" width="75.1485" height="104.042" filterUnits="userSpaceOnUse" color-interpolation-filters="sRGB">
<feFlood flood-opacity="0" result="BackgroundImageFix"/>
<feBlend mode="normal" in="SourceGraphic" in2="BackgroundImageFix" result="shape"/>
<feColorMatrix in="SourceAlpha" type="matrix" values="0 0 0 0 0 0 0 0 0 0 0 0 0 0 0 0 0 0 127 0" result="hardAlpha"/>
<feOffset dy="4"/>
<feGaussianBlur stdDeviation="2"/>
<feComposite in2="hardAlpha" operator="arithmetic" k2="-1" k3="1"/>
<feColorMatrix type="matrix" values="0 0 0 0 0.836538 0 0 0 0 0.57023 0 0 0 0 0.209135 0 0 0 1 0"/>
<feBlend mode="normal" in2="shape" result="effect1_innerShadow_313_35"/>
</filter>
<filter id="filter6_i_313_35" x="210.854" y="38.7261" width="122.268" height="103.328" filterUnits="userSpaceOnUse" color-interpolation-filters="sRGB">
<feFlood flood-opacity="0" result="BackgroundImageFix"/>
<feBlend mode="normal" in="SourceGraphic" in2="BackgroundImageFix" result="shape"/>
<feColorMatrix in="SourceAlpha" type="matrix" values="0 0 0 0 0 0 0 0 0 0 0 0 0 0 0 0 0 0 127 0" result="hardAlpha"/>
<feOffset dy="4"/>
<feGaussianBlur stdDeviation="2"/>
<feComposite in2="hardAlpha" operator="arithmetic" k2="-1" k3="1"/>
<feColorMatrix type="matrix" values="0 0 0 0 1 0 0 0 0 0.810417 0 0 0 0 0.1875 0 0 0 1 0"/>
<feBlend mode="normal" in2="shape" result="effect1_innerShadow_313_35"/>
</filter>
<filter id="filter7_i_313_35" x="303.127" y="70.853" width="13.2086" height="14.2085" filterUnits="userSpaceOnUse" color-interpolation-filters="sRGB">
<feFlood flood-opacity="0" result="BackgroundImageFix"/>
<feBlend mode="normal" in="SourceGraphic" in2="BackgroundImageFix" result="shape"/>
<feColorMatrix in="SourceAlpha" type="matrix" values="0 0 0 0 0 0 0 0 0 0 0 0 0 0 0 0 0 0 127 0" result="hardAlpha"/>
<feOffset dy="-1"/>
<feGaussianBlur stdDeviation="1"/>
<feComposite in2="hardAlpha" operator="arithmetic" k2="-1" k3="1"/>
<feColorMatrix type="matrix" values="0 0 0 0 0.545098 0 0 0 0 0.313726 0 0 0 0 0 0 0 0 1 0"/>
<feBlend mode="normal" in2="shape" result="effect1_innerShadow_313_35"/>
</filter>
<filter id="filter8_dddd_313_35" x="375.707" y="28.4702" width="168.268" height="190.584" filterUnits="userSpaceOnUse" color-interpolation-filters="sRGB">
<feFlood flood-opacity="0" result="BackgroundImageFix"/>
<feColorMatrix in="SourceAlpha" type="matrix" values="0 0 0 0 0 0 0 0 0 0 0 0 0 0 0 0 0 0 127 0" result="hardAlpha"/>
<feOffset dy="4"/>
<feGaussianBlur stdDeviation="4"/>
<feColorMatrix type="matrix" values="0 0 0 0 0.501961 0 0 0 0 0.25098 0 0 0 0 0 0 0 0 0.1 0"/>
<feBlend mode="normal" in2="BackgroundImageFix" result="effect1_dropShadow_313_35"/>
<feColorMatrix in="SourceAlpha" type="matrix" values="0 0 0 0 0 0 0 0 0 0 0 0 0 0 0 0 0 0 127 0" result="hardAlpha"/>
<feOffset dy="14"/>
<feGaussianBlur stdDeviation="7"/>
<feColorMatrix type="matrix" values="0 0 0 0 0.501961 0 0 0 0 0.25098 0 0 0 0 0 0 0 0 0.09 0"/>
<feBlend mode="normal" in2="effect1_dropShadow_313_35" result="effect2_dropShadow_313_35"/>
<feColorMatrix in="SourceAlpha" type="matrix" values="0 0 0 0 0 0 0 0 0 0 0 0 0 0 0 0 0 0 127 0" result="hardAlpha"/>
<feOffset dy="32"/>
<feGaussianBlur stdDeviation="9.5"/>
<feColorMatrix type="matrix" values="0 0 0 0 0.501961 0 0 0 0 0.25098 0 0 0 0 0 0 0 0 0.05 0"/>
<feBlend mode="normal" in2="effect2_dropShadow_313_35" result="effect3_dropShadow_313_35"/>
<feColorMatrix in="SourceAlpha" type="matrix" values="0 0 0 0 0 0 0 0 0 0 0 0 0 0 0 0 0 0 127 0" result="hardAlpha"/>
<feOffset dy="58"/>
<feGaussianBlur stdDeviation="11.5"/>
<feColorMatrix type="matrix" values="0 0 0 0 0.501961 0 0 0 0 0.25098 0 0 0 0 0 0 0 0 0.01 0"/>
<feBlend mode="normal" in2="effect3_dropShadow_313_35" result="effect4_dropShadow_313_35"/>
<feBlend mode="normal" in="SourceGraphic" in2="effect4_dropShadow_313_35" result="shape"/>
</filter>
<filter id="filter9_i_313_35" x="398.717" y="32.4702" width="75.1486" height="104.042" filterUnits="userSpaceOnUse" color-interpolation-filters="sRGB">
<feFlood flood-opacity="0" result="BackgroundImageFix"/>
<feBlend mode="normal" in="SourceGraphic" in2="BackgroundImageFix" result="shape"/>
<feColorMatrix in="SourceAlpha" type="matrix" values="0 0 0 0 0 0 0 0 0 0 0 0 0 0 0 0 0 0 127 0" result="hardAlpha"/>
<feOffset dy="4"/>
<feGaussianBlur stdDeviation="2"/>
<feComposite in2="hardAlpha" operator="arithmetic" k2="-1" k3="1"/>
<feColorMatrix type="matrix" values="0 0 0 0 0.836538 0 0 0 0 0.57023 0 0 0 0 0.209135 0 0 0 1 0"/>
<feBlend mode="normal" in2="shape" result="effect1_innerShadow_313_35"/>
</filter>
<filter id="filter10_i_313_35" x="398.707" y="38.7261" width="122.268" height="103.328" filterUnits="userSpaceOnUse" color-interpolation-filters="sRGB">
<feFlood flood-opacity="0" result="BackgroundImageFix"/>
<feBlend mode="normal" in="SourceGraphic" in2="BackgroundImageFix" result="shape"/>
<feColorMatrix in="SourceAlpha" type="matrix" values="0 0 0 0 0 0 0 0 0 0 0 0 0 0 0 0 0 0 127 0" result="hardAlpha"/>
<feOffset dy="4"/>
<feGaussianBlur stdDeviation="2"/>
<feComposite in2="hardAlpha" operator="arithmetic" k2="-1" k3="1"/>
<feColorMatrix type="matrix" values="0 0 0 0 1 0 0 0 0 0.810417 0 0 0 0 0.1875 0 0 0 1 0"/>
<feBlend mode="normal" in2="shape" result="effect1_innerShadow_313_35"/>
</filter>
<filter id="filter11_i_313_35" x="490.981" y="70.853" width="13.2086" height="14.2085" filterUnits="userSpaceOnUse" color-interpolation-filters="sRGB">
<feFlood flood-opacity="0" result="BackgroundImageFix"/>
<feBlend mode="normal" in="SourceGraphic" in2="BackgroundImageFix" result="shape"/>
<feColorMatrix in="SourceAlpha" type="matrix" values="0 0 0 0 0 0 0 0 0 0 0 0 0 0 0 0 0 0 127 0" result="hardAlpha"/>
<feOffset dy="-1"/>
<feGaussianBlur stdDeviation="1"/>
<feComposite in2="hardAlpha" operator="arithmetic" k2="-1" k3="1"/>
<feColorMatrix type="matrix" values="0 0 0 0 0.545098 0 0 0 0 0.313726 0 0 0 0 0 0 0 0 1 0"/>
<feBlend mode="normal" in2="shape" result="effect1_innerShadow_313_35"/>
</filter>
<linearGradient id="paint0_linear_313_35" x1="74.1375" y1="117" x2="74.1375" y2="217" gradientUnits="userSpaceOnUse">
<stop stop-color="#1C0606"/>
<stop offset="1" stop-color="#1C0606" stop-opacity="0.34"/>
</linearGradient>
<linearGradient id="paint1_linear_313_35" x1="130.137" y1="44" x2="130.137" y2="217" gradientUnits="userSpaceOnUse">
<stop stop-color="#1C0606"/>
<stop offset="1" stop-color="#1C0606" stop-opacity="0.34"/>
</linearGradient>
<linearGradient id="paint2_linear_313_35" x1="186.137" y1="20" x2="186.137" y2="217" gradientUnits="userSpaceOnUse">
<stop stop-color="#1C0606"/>
<stop offset="1" stop-color="#1C0606" stop-opacity="0.34"/>
</linearGradient>
<linearGradient id="paint3_linear_313_35" x1="242.137" y1="0" x2="242.137" y2="217" gradientUnits="userSpaceOnUse">
<stop stop-color="#1C0606"/>
<stop offset="1" stop-color="#1C0606" stop-opacity="0.34"/>
</linearGradient>
<linearGradient id="paint4_linear_313_35" x1="298.137" y1="32" x2="298.137" y2="217" gradientUnits="userSpaceOnUse">
<stop stop-color="#1C0606"/>
<stop offset="1" stop-color="#1C0606" stop-opacity="0.34"/>
</linearGradient>
<linearGradient id="paint5_linear_313_35" x1="354.137" y1="57" x2="354.137" y2="217" gradientUnits="userSpaceOnUse">
<stop stop-color="#1C0606"/>
<stop offset="1" stop-color="#1C0606" stop-opacity="0.34"/>
</linearGradient>
<linearGradient id="paint6_linear_313_35" x1="410.137" y1="39" x2="410.137" y2="217" gradientUnits="userSpaceOnUse">
<stop stop-color="#1C0606"/>
<stop offset="1" stop-color="#1C0606" stop-opacity="0.34"/>
</linearGradient>
<linearGradient id="paint7_linear_313_35" x1="466.137" y1="27" x2="466.137" y2="217" gradientUnits="userSpaceOnUse">
<stop stop-color="#1C0606"/>
<stop offset="1" stop-color="#1C0606" stop-opacity="0.34"/>
</linearGradient>
<linearGradient id="paint8_linear_313_35" x1="73.9135" y1="47.7327" x2="142.938" y2="217.642" gradientUnits="userSpaceOnUse">
<stop stop-color="#251500" stop-opacity="0"/>
<stop offset="1" stop-color="#8B5000"/>
</linearGradient>
<linearGradient id="paint9_linear_313_35" x1="74.7679" y1="50.9216" x2="143.792" y2="220.831" gradientUnits="userSpaceOnUse">
<stop stop-color="#251500" stop-opacity="0"/>
<stop offset="1" stop-color="#8B5000"/>
</linearGradient>
<radialGradient id="paint10_radial_313_35" cx="0" cy="0" r="1" gradientUnits="userSpaceOnUse" gradientTransform="translate(121.878 73.5054) rotate(81.3475) scale(19.2011 49.0015)">
<stop stop-color="#8B5000"/>
<stop offset="1" stop-color="#221A12"/>
</radialGradient>
<linearGradient id="paint11_linear_313_35" x1="261.767" y1="47.7327" x2="330.791" y2="217.642" gradientUnits="userSpaceOnUse">
<stop stop-color="#251500" stop-opacity="0"/>
<stop offset="1" stop-color="#8B5000"/>
</linearGradient>
<linearGradient id="paint12_linear_313_35" x1="262.621" y1="50.9216" x2="331.646" y2="220.831" gradientUnits="userSpaceOnUse">
<stop stop-color="#251500" stop-opacity="0"/>
<stop offset="1" stop-color="#8B5000"/>
</linearGradient>
<radialGradient id="paint13_radial_313_35" cx="0" cy="0" r="1" gradientUnits="userSpaceOnUse" gradientTransform="translate(309.731 73.5054) rotate(81.3475) scale(19.2011 49.0015)">
<stop stop-color="#8B5000"/>
<stop offset="1" stop-color="#221A12"/>
</radialGradient>
<linearGradient id="paint14_linear_313_35" x1="449.621" y1="47.7327" x2="518.645" y2="217.642" gradientUnits="userSpaceOnUse">
<stop stop-color="#251500" stop-opacity="0"/>
<stop offset="1" stop-color="#8B5000"/>
</linearGradient>
<linearGradient id="paint15_linear_313_35" x1="450.475" y1="50.9216" x2="519.499" y2="220.831" gradientUnits="userSpaceOnUse">
<stop stop-color="#251500" stop-opacity="0"/>
<stop offset="1" stop-color="#8B5000"/>
</linearGradient>
<radialGradient id="paint16_radial_313_35" cx="0" cy="0" r="1" gradientUnits="userSpaceOnUse" gradientTransform="translate(497.585 73.5054) rotate(81.3475) scale(19.2011 49.0015)">
<stop stop-color="#8B5000"/>
<stop offset="1" stop-color="#221A12"/>
</radialGradient>
</defs>
</svg>
