<svg width="245" height="90" viewBox="0 0 245 90" fill="none" xmlns="http://www.w3.org/2000/svg">
<g filter="url(#filter0_dddd_123_85)">
<rect x="42" y="8" width="161" height="49" rx="8" fill="url(#paint0_linear_123_85)"/>
<rect x="42.5" y="8.5" width="160" height="48" rx="7.5" stroke="url(#paint1_linear_123_85)"/>
<path d="M73.54 41V26.1H75.9V38.9H82.34V41H73.54ZM86.5413 41.24C85.8079 41.24 85.1612 41.1133 84.6013 40.86C84.0546 40.5933 83.6279 40.2333 83.3212 39.78C83.0146 39.3133 82.8612 38.7667 82.8612 38.14C82.8612 37.5533 82.9879 37.0267 83.2412 36.56C83.5079 36.0933 83.9146 35.7 84.4612 35.38C85.0079 35.06 85.6946 34.8333 86.5213 34.7L90.2813 34.08V35.86L86.9613 36.44C86.3613 36.5467 85.9213 36.74 85.6413 37.02C85.3612 37.2867 85.2212 37.6333 85.2212 38.06C85.2212 38.4733 85.3746 38.8133 85.6812 39.08C86.0012 39.3333 86.4079 39.46 86.9012 39.46C87.5146 39.46 88.0479 39.3267 88.5012 39.06C88.9679 38.7933 89.3279 38.44 89.5813 38C89.8346 37.5467 89.9613 37.0467 89.9613 36.5V33.72C89.9613 33.1867 89.7613 32.7533 89.3613 32.42C88.9746 32.0733 88.4546 31.9 87.8012 31.9C87.2012 31.9 86.6746 32.06 86.2213 32.38C85.7812 32.6867 85.4546 33.0867 85.2412 33.58L83.3612 32.64C83.5612 32.1067 83.8879 31.64 84.3412 31.24C84.7946 30.8267 85.3213 30.5067 85.9213 30.28C86.5346 30.0533 87.1813 29.94 87.8612 29.94C88.7146 29.94 89.4679 30.1 90.1212 30.42C90.7879 30.74 91.3013 31.1867 91.6613 31.76C92.0346 32.32 92.2213 32.9733 92.2213 33.72V41H90.0613V39.04L90.5213 39.1C90.2679 39.54 89.9413 39.92 89.5413 40.24C89.1546 40.56 88.7079 40.8067 88.2013 40.98C87.7079 41.1533 87.1546 41.24 86.5413 41.24ZM94.0637 41V30.18H96.2237V32.3L95.9637 32.02C96.2304 31.34 96.6571 30.8267 97.2437 30.48C97.8304 30.12 98.5104 29.94 99.2838 29.94C100.084 29.94 100.79 30.1133 101.404 30.46C102.017 30.8067 102.497 31.2867 102.844 31.9C103.19 32.5133 103.364 33.22 103.364 34.02V41H101.124V34.62C101.124 34.0733 101.024 33.6133 100.824 33.24C100.624 32.8533 100.337 32.56 99.9638 32.36C99.6038 32.1467 99.1904 32.04 98.7238 32.04C98.2571 32.04 97.8371 32.1467 97.4637 32.36C97.1037 32.56 96.8237 32.8533 96.6237 33.24C96.4237 33.6267 96.3237 34.0867 96.3237 34.62V41H94.0637ZM110.203 45.4C109.416 45.4 108.689 45.2733 108.023 45.02C107.356 44.7667 106.783 44.4133 106.303 43.96C105.823 43.52 105.463 43 105.223 42.4L107.303 41.54C107.489 42.0467 107.829 42.4667 108.323 42.8C108.829 43.1333 109.449 43.3 110.183 43.3C110.756 43.3 111.269 43.1867 111.723 42.96C112.176 42.7467 112.536 42.4267 112.803 42C113.069 41.5867 113.203 41.0867 113.203 40.5V38.06L113.603 38.52C113.229 39.2133 112.709 39.74 112.043 40.1C111.389 40.46 110.649 40.64 109.823 40.64C108.823 40.64 107.923 40.4067 107.123 39.94C106.323 39.4733 105.689 38.8333 105.223 38.02C104.769 37.2067 104.543 36.2933 104.543 35.28C104.543 34.2533 104.769 33.34 105.223 32.54C105.689 31.74 106.316 31.1067 107.103 30.64C107.889 30.1733 108.789 29.94 109.803 29.94C110.629 29.94 111.363 30.12 112.003 30.48C112.656 30.8267 113.189 31.3333 113.603 32L113.303 32.56V30.18H115.443V40.5C115.443 41.4333 115.216 42.2667 114.763 43C114.323 43.7467 113.709 44.3333 112.923 44.76C112.136 45.1867 111.229 45.4 110.203 45.4ZM110.083 38.54C110.683 38.54 111.216 38.4 111.683 38.12C112.149 37.8267 112.516 37.44 112.783 36.96C113.063 36.4667 113.203 35.9133 113.203 35.3C113.203 34.6867 113.063 34.1333 112.783 33.64C112.503 33.1467 112.129 32.76 111.663 32.48C111.196 32.1867 110.669 32.04 110.083 32.04C109.469 32.04 108.923 32.1867 108.443 32.48C107.963 32.76 107.583 33.1467 107.303 33.64C107.036 34.12 106.903 34.6733 106.903 35.3C106.903 35.9 107.036 36.4467 107.303 36.94C107.583 37.4333 107.963 37.8267 108.443 38.12C108.923 38.4 109.469 38.54 110.083 38.54ZM122.508 45.4C121.721 45.4 120.995 45.2733 120.328 45.02C119.661 44.7667 119.088 44.4133 118.608 43.96C118.128 43.52 117.768 43 117.528 42.4L119.608 41.54C119.795 42.0467 120.135 42.4667 120.628 42.8C121.135 43.1333 121.755 43.3 122.488 43.3C123.061 43.3 123.575 43.1867 124.028 42.96C124.481 42.7467 124.841 42.4267 125.108 42C125.375 41.5867 125.508 41.0867 125.508 40.5V38.06L125.908 38.52C125.535 39.2133 125.015 39.74 124.348 40.1C123.695 40.46 122.955 40.64 122.128 40.64C121.128 40.64 120.228 40.4067 119.428 39.94C118.628 39.4733 117.995 38.8333 117.528 38.02C117.075 37.2067 116.848 36.2933 116.848 35.28C116.848 34.2533 117.075 33.34 117.528 32.54C117.995 31.74 118.621 31.1067 119.408 30.64C120.195 30.1733 121.095 29.94 122.108 29.94C122.935 29.94 123.668 30.12 124.308 30.48C124.961 30.8267 125.495 31.3333 125.908 32L125.608 32.56V30.18H127.748V40.5C127.748 41.4333 127.521 42.2667 127.068 43C126.628 43.7467 126.015 44.3333 125.228 44.76C124.441 45.1867 123.535 45.4 122.508 45.4ZM122.388 38.54C122.988 38.54 123.521 38.4 123.988 38.12C124.455 37.8267 124.821 37.44 125.088 36.96C125.368 36.4667 125.508 35.9133 125.508 35.3C125.508 34.6867 125.368 34.1333 125.088 33.64C124.808 33.1467 124.435 32.76 123.968 32.48C123.501 32.1867 122.975 32.04 122.388 32.04C121.775 32.04 121.228 32.1867 120.748 32.48C120.268 32.76 119.888 33.1467 119.608 33.64C119.341 34.12 119.208 34.6733 119.208 35.3C119.208 35.9 119.341 36.4467 119.608 36.94C119.888 37.4333 120.268 37.8267 120.748 38.12C121.228 38.4 121.775 38.54 122.388 38.54ZM132.833 41.24C132.1 41.24 131.453 41.1133 130.893 40.86C130.347 40.5933 129.92 40.2333 129.613 39.78C129.307 39.3133 129.153 38.7667 129.153 38.14C129.153 37.5533 129.28 37.0267 129.533 36.56C129.8 36.0933 130.207 35.7 130.753 35.38C131.3 35.06 131.987 34.8333 132.813 34.7L136.573 34.08V35.86L133.253 36.44C132.653 36.5467 132.213 36.74 131.933 37.02C131.653 37.2867 131.513 37.6333 131.513 38.06C131.513 38.4733 131.667 38.8133 131.973 39.08C132.293 39.3333 132.7 39.46 133.193 39.46C133.807 39.46 134.34 39.3267 134.793 39.06C135.26 38.7933 135.62 38.44 135.873 38C136.127 37.5467 136.253 37.0467 136.253 36.5V33.72C136.253 33.1867 136.053 32.7533 135.653 32.42C135.267 32.0733 134.747 31.9 134.093 31.9C133.493 31.9 132.967 32.06 132.513 32.38C132.073 32.6867 131.747 33.0867 131.533 33.58L129.653 32.64C129.853 32.1067 130.18 31.64 130.633 31.24C131.087 30.8267 131.613 30.5067 132.213 30.28C132.827 30.0533 133.473 29.94 134.153 29.94C135.007 29.94 135.76 30.1 136.413 30.42C137.08 30.74 137.593 31.1867 137.953 31.76C138.327 32.32 138.513 32.9733 138.513 33.72V41H136.353V39.04L136.813 39.1C136.56 39.54 136.233 39.92 135.833 40.24C135.447 40.56 135 40.8067 134.493 40.98C134 41.1533 133.447 41.24 132.833 41.24ZM140.356 41V30.18H142.516V32.3L142.256 32.02C142.523 31.34 142.949 30.8267 143.536 30.48C144.123 30.12 144.803 29.94 145.576 29.94C146.376 29.94 147.083 30.1133 147.696 30.46C148.309 30.8067 148.789 31.2867 149.136 31.9C149.483 32.5133 149.656 33.22 149.656 34.02V41H147.416V34.62C147.416 34.0733 147.316 33.6133 147.116 33.24C146.916 32.8533 146.629 32.56 146.256 32.36C145.896 32.1467 145.483 32.04 145.016 32.04C144.549 32.04 144.129 32.1467 143.756 32.36C143.396 32.56 143.116 32.8533 142.916 33.24C142.716 33.6267 142.616 34.0867 142.616 34.62V41H140.356ZM154.515 41.24C153.781 41.24 153.135 41.1133 152.575 40.86C152.028 40.5933 151.601 40.2333 151.295 39.78C150.988 39.3133 150.835 38.7667 150.835 38.14C150.835 37.5533 150.961 37.0267 151.215 36.56C151.481 36.0933 151.888 35.7 152.435 35.38C152.981 35.06 153.668 34.8333 154.495 34.7L158.255 34.08V35.86L154.935 36.44C154.335 36.5467 153.895 36.74 153.615 37.02C153.335 37.2867 153.195 37.6333 153.195 38.06C153.195 38.4733 153.348 38.8133 153.655 39.08C153.975 39.3333 154.381 39.46 154.875 39.46C155.488 39.46 156.021 39.3267 156.475 39.06C156.941 38.7933 157.301 38.44 157.555 38C157.808 37.5467 157.935 37.0467 157.935 36.5V33.72C157.935 33.1867 157.735 32.7533 157.335 32.42C156.948 32.0733 156.428 31.9 155.775 31.9C155.175 31.9 154.648 32.06 154.195 32.38C153.755 32.6867 153.428 33.0867 153.215 33.58L151.335 32.64C151.535 32.1067 151.861 31.64 152.315 31.24C152.768 30.8267 153.295 30.5067 153.895 30.28C154.508 30.0533 155.155 29.94 155.835 29.94C156.688 29.94 157.441 30.1 158.095 30.42C158.761 30.74 159.275 31.1867 159.635 31.76C160.008 32.32 160.195 32.9733 160.195 33.72V41H158.035V39.04L158.495 39.1C158.241 39.54 157.915 39.92 157.515 40.24C157.128 40.56 156.681 40.8067 156.175 40.98C155.681 41.1533 155.128 41.24 154.515 41.24ZM162.037 41V30.18H164.197V32.3L163.937 32.02C164.204 31.34 164.631 30.8267 165.217 30.48C165.804 30.12 166.484 29.94 167.257 29.94C168.057 29.94 168.764 30.1133 169.377 30.46C169.991 30.8067 170.471 31.2867 170.817 31.9C171.164 32.5133 171.337 33.22 171.337 34.02V41H169.097V34.62C169.097 34.0733 168.997 33.6133 168.797 33.24C168.597 32.8533 168.311 32.56 167.937 32.36C167.577 32.1467 167.164 32.04 166.697 32.04C166.231 32.04 165.811 32.1467 165.437 32.36C165.077 32.56 164.797 32.8533 164.597 33.24C164.397 33.6267 164.297 34.0867 164.297 34.62V41H162.037Z" fill="#1C0606"/>
</g>
<defs>
<filter id="filter0_dddd_123_85" x="0" y="0" width="245" height="203" filterUnits="userSpaceOnUse" color-interpolation-filters="sRGB">
<feFlood flood-opacity="0" result="BackgroundImageFix"/>
<feColorMatrix in="SourceAlpha" type="matrix" values="0 0 0 0 0 0 0 0 0 0 0 0 0 0 0 0 0 0 127 0" result="hardAlpha"/>
<feOffset dy="6"/>
<feGaussianBlur stdDeviation="7"/>
<feColorMatrix type="matrix" values="0 0 0 0 0.501961 0 0 0 0 0.25098 0 0 0 0 0 0 0 0 0.1 0"/>
<feBlend mode="normal" in2="BackgroundImageFix" result="effect1_dropShadow_123_85"/>
<feColorMatrix in="SourceAlpha" type="matrix" values="0 0 0 0 0 0 0 0 0 0 0 0 0 0 0 0 0 0 127 0" result="hardAlpha"/>
<feOffset dy="26"/>
<feGaussianBlur stdDeviation="13"/>
<feColorMatrix type="matrix" values="0 0 0 0 0.501961 0 0 0 0 0.25098 0 0 0 0 0 0 0 0 0.09 0"/>
<feBlend mode="normal" in2="effect1_dropShadow_123_85" result="effect2_dropShadow_123_85"/>
<feColorMatrix in="SourceAlpha" type="matrix" values="0 0 0 0 0 0 0 0 0 0 0 0 0 0 0 0 0 0 127 0" result="hardAlpha"/>
<feOffset dy="58"/>
<feGaussianBlur stdDeviation="17.5"/>
<feColorMatrix type="matrix" values="0 0 0 0 0.501961 0 0 0 0 0.25098 0 0 0 0 0 0 0 0 0.05 0"/>
<feBlend mode="normal" in2="effect2_dropShadow_123_85" result="effect3_dropShadow_123_85"/>
<feColorMatrix in="SourceAlpha" type="matrix" values="0 0 0 0 0 0 0 0 0 0 0 0 0 0 0 0 0 0 127 0" result="hardAlpha"/>
<feOffset dy="104"/>
<feGaussianBlur stdDeviation="21"/>
<feColorMatrix type="matrix" values="0 0 0 0 0.501961 0 0 0 0 0.25098 0 0 0 0 0 0 0 0 0.01 0"/>
<feBlend mode="normal" in2="effect3_dropShadow_123_85" result="effect4_dropShadow_123_85"/>
<feBlend mode="normal" in="SourceGraphic" in2="effect4_dropShadow_123_85" result="shape"/>
</filter>
<linearGradient id="paint0_linear_123_85" x1="122.5" y1="8" x2="122.5" y2="57" gradientUnits="userSpaceOnUse">
<stop stop-color="white"/>
<stop offset="0.9375" stop-color="white" stop-opacity="0"/>
</linearGradient>
<linearGradient id="paint1_linear_123_85" x1="122.5" y1="8" x2="122.5" y2="57" gradientUnits="userSpaceOnUse">
<stop stop-color="#FFA930" stop-opacity="0.07"/>
<stop offset="1" stop-color="#251500"/>
</linearGradient>
</defs>
</svg>
