<svg width="556" height="305" viewBox="0 0 556 305" fill="none" xmlns="http://www.w3.org/2000/svg">
<path d="M246 43C309 43 243 155 310 155" stroke="#1C0606" stroke-opacity="0.67" stroke-width="6" stroke-dasharray="12 12"/>
<path d="M246 156C309 156 243 268 310 268" stroke="#1C0606" stroke-opacity="0.67" stroke-width="6" stroke-dasharray="12 12"/>
<g filter="url(#filter0_ii_346_128)">
<rect width="246" height="91" rx="17" transform="matrix(-1 0 0 1 246 0)" fill="white"/>
<rect width="246" height="91" rx="17" transform="matrix(-1 0 0 1 246 0)" fill="url(#paint0_linear_346_128)" fill-opacity="0.1"/>
<rect width="246" height="91" rx="17" transform="matrix(-1 0 0 1 246 0)" fill="white" fill-opacity="0.2"/>
</g>
<rect x="6" y="7" width="73.6667" height="77" rx="12" fill="#FFA930"/>
<path d="M26.75 41.875H29.875V49.375H28C27.5027 49.375 27.0258 49.5725 26.6742 49.9241C26.3225 50.2758 26.125 50.7527 26.125 51.25C26.125 51.7473 26.3225 52.2242 26.6742 52.5758C27.0258 52.9274 27.5027 53.125 28 53.125H58C58.4973 53.125 58.9742 52.9274 59.3258 52.5758C59.6775 52.2242 59.875 51.7473 59.875 51.25C59.875 50.7527 59.6775 50.2758 59.3258 49.9241C58.9742 49.5725 58.4973 49.375 58 49.375H56.125V41.875H59.25C59.6583 41.875 60.0554 41.7418 60.381 41.4955C60.7067 41.2493 60.9431 40.9035 61.0543 40.5107C61.1655 40.1178 61.1454 39.6995 60.9971 39.3191C60.8489 38.9387 60.5805 38.6171 60.2328 38.4031L43.9828 28.4031C43.6873 28.2212 43.347 28.1249 43 28.1249C42.653 28.1249 42.3127 28.2212 42.0172 28.4031L25.7672 38.4031C25.4195 38.6171 25.1511 38.9387 25.0029 39.3191C24.8546 39.6995 24.8345 40.1178 24.9457 40.5107C25.0569 40.9035 25.2933 41.2493 25.619 41.4955C25.9446 41.7418 26.3417 41.875 26.75 41.875ZM33.625 41.875H37.375V49.375H33.625V41.875ZM44.875 41.875V49.375H41.125V41.875H44.875ZM52.375 49.375H48.625V41.875H52.375V49.375ZM43 32.2015L52.625 38.125H33.375L43 32.2015ZM62.375 57.5C62.375 57.9973 62.1775 58.4742 61.8258 58.8258C61.4742 59.1774 60.9973 59.375 60.5 59.375H25.5C25.0027 59.375 24.5258 59.1774 24.1742 58.8258C23.8225 58.4742 23.625 57.9973 23.625 57.5C23.625 57.0027 23.8225 56.5258 24.1742 56.1741C24.5258 55.8225 25.0027 55.625 25.5 55.625H60.5C60.9973 55.625 61.4742 55.8225 61.8258 56.1741C62.1775 56.5258 62.375 57.0027 62.375 57.5Z" fill="white"/>
<rect width="109.333" height="8" rx="4" transform="matrix(1 0 0 -1 90.3333 50.1666)" fill="#1C0606" fill-opacity="0.34"/>
<rect width="96.6667" height="8" rx="4" transform="matrix(1 0 0 -1 90.3333 60.8334)" fill="#1C0606" fill-opacity="0.34"/>
<g filter="url(#filter1_i_346_128)">
<rect width="122.667" height="11.3333" rx="5.66667" transform="matrix(1 0 0 -1 90.3333 84.1667)" fill="#FFA930"/>
<rect width="122.667" height="11.3333" rx="5.66667" transform="matrix(1 0 0 -1 90.3333 84.1667)" fill="url(#paint1_linear_346_128)" fill-opacity="0.2"/>
</g>
<path d="M92.128 26.764C91.8667 26.764 91.596 26.736 91.316 26.68C91.036 26.6053 90.8027 26.4373 90.616 26.176C90.4293 25.896 90.336 25.4387 90.336 24.804C90.336 24.1693 90.4293 23.7213 90.616 23.46C90.8213 23.1987 91.064 23.04 91.344 22.984C91.624 22.9093 91.8947 22.872 92.156 22.872H98.708C98.988 22.872 99.268 22.9093 99.548 22.984C99.828 23.04 100.061 23.208 100.248 23.488C100.435 23.7493 100.528 24.188 100.528 24.804C100.528 25.4387 100.435 25.896 100.248 26.176C100.08 26.4373 99.856 26.6053 99.576 26.68C99.296 26.736 99.0067 26.764 98.708 26.764H92.128ZM112.236 25.896C112.236 26.5493 112.133 27.1467 111.928 27.688C111.741 28.2293 111.461 28.7053 111.088 29.116C110.733 29.5267 110.304 29.872 109.8 30.152C109.296 30.4133 108.726 30.6093 108.092 30.74V32.448C108.092 32.7653 108.064 33.064 108.008 33.344C107.952 33.624 107.812 33.848 107.588 34.016C107.364 34.184 107.009 34.268 106.524 34.268C106.038 34.268 105.684 34.1747 105.46 33.988C105.236 33.82 105.096 33.596 105.04 33.316C105.002 33.036 104.984 32.7373 104.984 32.42V30.712C104.498 30.6187 104.032 30.4693 103.584 30.264C103.154 30.0587 102.753 29.8067 102.38 29.508C102.025 29.2093 101.717 28.8827 101.456 28.528C101.101 28.024 100.933 27.5947 100.952 27.24C100.989 26.8853 101.26 26.4747 101.764 26.008C102.1 25.728 102.417 25.5787 102.716 25.56C103.014 25.5227 103.304 25.588 103.584 25.756C103.864 25.924 104.116 26.1573 104.34 26.456C104.638 26.848 104.956 27.1373 105.292 27.324C105.646 27.5107 106.038 27.604 106.468 27.604C106.953 27.604 107.354 27.548 107.672 27.436C108.008 27.3053 108.25 27.1187 108.4 26.876C108.568 26.6147 108.652 26.3067 108.652 25.952C108.652 25.5227 108.437 25.2053 108.008 25C107.578 24.7947 107.028 24.608 106.356 24.44C105.702 24.2533 105.04 24.02 104.368 23.74C103.957 23.5533 103.565 23.348 103.192 23.124C102.818 22.8813 102.482 22.592 102.184 22.256C101.904 21.92 101.68 21.5187 101.512 21.052C101.344 20.5853 101.26 20.0347 101.26 19.4C101.26 18.8027 101.344 18.2613 101.512 17.776C101.68 17.272 101.922 16.8333 102.24 16.46C102.576 16.0867 102.968 15.7787 103.416 15.536C103.882 15.2747 104.405 15.088 104.984 14.976V13.464C104.984 13.1467 105.002 12.8573 105.04 12.596C105.096 12.316 105.236 12.092 105.46 11.924C105.684 11.7373 106.038 11.644 106.524 11.644C107.009 11.644 107.364 11.7373 107.588 11.924C107.812 12.092 107.952 12.316 108.008 12.596C108.064 12.876 108.092 13.1747 108.092 13.492V14.948C108.614 15.0227 109.072 15.172 109.464 15.396C109.874 15.62 110.276 15.9 110.668 16.236C111.116 16.628 111.358 16.9733 111.396 17.272C111.433 17.552 111.265 17.9533 110.892 18.476C110.649 18.8493 110.397 19.1107 110.136 19.26C109.874 19.4093 109.604 19.456 109.324 19.4C109.062 19.344 108.773 19.204 108.456 18.98C108.306 18.8493 108.138 18.7187 107.952 18.588C107.765 18.4573 107.55 18.3547 107.308 18.28C107.065 18.1867 106.757 18.14 106.384 18.14C106.141 18.14 105.926 18.1773 105.74 18.252C105.553 18.308 105.385 18.392 105.236 18.504C105.105 18.616 104.993 18.756 104.9 18.924C104.825 19.0733 104.788 19.2413 104.788 19.428C104.788 19.82 104.937 20.1187 105.236 20.324C105.534 20.5293 105.926 20.6973 106.412 20.828C106.916 20.9587 107.448 21.0987 108.008 21.248C108.512 21.3787 109.006 21.5467 109.492 21.752C109.996 21.9387 110.453 22.2 110.864 22.536C111.274 22.872 111.601 23.3107 111.844 23.852C112.105 24.3933 112.236 25.0747 112.236 25.896ZM123.721 25.896C123.721 26.5493 123.619 27.1467 123.413 27.688C123.227 28.2293 122.947 28.7053 122.573 29.116C122.219 29.5267 121.789 29.872 121.285 30.152C120.781 30.4133 120.212 30.6093 119.577 30.74V32.448C119.577 32.7653 119.549 33.064 119.493 33.344C119.437 33.624 119.297 33.848 119.073 34.016C118.849 34.184 118.495 34.268 118.009 34.268C117.524 34.268 117.169 34.1747 116.945 33.988C116.721 33.82 116.581 33.596 116.525 33.316C116.488 33.036 116.469 32.7373 116.469 32.42V30.712C115.984 30.6187 115.517 30.4693 115.069 30.264C114.64 30.0587 114.239 29.8067 113.865 29.508C113.511 29.2093 113.203 28.8827 112.941 28.528C112.587 28.024 112.419 27.5947 112.437 27.24C112.475 26.8853 112.745 26.4747 113.249 26.008C113.585 25.728 113.903 25.5787 114.201 25.56C114.5 25.5227 114.789 25.588 115.069 25.756C115.349 25.924 115.601 26.1573 115.825 26.456C116.124 26.848 116.441 27.1373 116.777 27.324C117.132 27.5107 117.524 27.604 117.953 27.604C118.439 27.604 118.84 27.548 119.157 27.436C119.493 27.3053 119.736 27.1187 119.885 26.876C120.053 26.6147 120.137 26.3067 120.137 25.952C120.137 25.5227 119.923 25.2053 119.493 25C119.064 24.7947 118.513 24.608 117.841 24.44C117.188 24.2533 116.525 24.02 115.853 23.74C115.443 23.5533 115.051 23.348 114.677 23.124C114.304 22.8813 113.968 22.592 113.669 22.256C113.389 21.92 113.165 21.5187 112.997 21.052C112.829 20.5853 112.745 20.0347 112.745 19.4C112.745 18.8027 112.829 18.2613 112.997 17.776C113.165 17.272 113.408 16.8333 113.725 16.46C114.061 16.0867 114.453 15.7787 114.901 15.536C115.368 15.2747 115.891 15.088 116.469 14.976V13.464C116.469 13.1467 116.488 12.8573 116.525 12.596C116.581 12.316 116.721 12.092 116.945 11.924C117.169 11.7373 117.524 11.644 118.009 11.644C118.495 11.644 118.849 11.7373 119.073 11.924C119.297 12.092 119.437 12.316 119.493 12.596C119.549 12.876 119.577 13.1747 119.577 13.492V14.948C120.1 15.0227 120.557 15.172 120.949 15.396C121.36 15.62 121.761 15.9 122.153 16.236C122.601 16.628 122.844 16.9733 122.881 17.272C122.919 17.552 122.751 17.9533 122.377 18.476C122.135 18.8493 121.883 19.1107 121.621 19.26C121.36 19.4093 121.089 19.456 120.809 19.4C120.548 19.344 120.259 19.204 119.941 18.98C119.792 18.8493 119.624 18.7187 119.437 18.588C119.251 18.4573 119.036 18.3547 118.793 18.28C118.551 18.1867 118.243 18.14 117.869 18.14C117.627 18.14 117.412 18.1773 117.225 18.252C117.039 18.308 116.871 18.392 116.721 18.504C116.591 18.616 116.479 18.756 116.385 18.924C116.311 19.0733 116.273 19.2413 116.273 19.428C116.273 19.82 116.423 20.1187 116.721 20.324C117.02 20.5293 117.412 20.6973 117.897 20.828C118.401 20.9587 118.933 21.0987 119.493 21.248C119.997 21.3787 120.492 21.5467 120.977 21.752C121.481 21.9387 121.939 22.2 122.349 22.536C122.76 22.872 123.087 23.3107 123.329 23.852C123.591 24.3933 123.721 25.0747 123.721 25.896ZM135.207 25.896C135.207 26.5493 135.104 27.1467 134.899 27.688C134.712 28.2293 134.432 28.7053 134.059 29.116C133.704 29.5267 133.275 29.872 132.771 30.152C132.267 30.4133 131.697 30.6093 131.063 30.74V32.448C131.063 32.7653 131.035 33.064 130.979 33.344C130.923 33.624 130.783 33.848 130.559 34.016C130.335 34.184 129.98 34.268 129.495 34.268C129.009 34.268 128.655 34.1747 128.431 33.988C128.207 33.82 128.067 33.596 128.011 33.316C127.973 33.036 127.955 32.7373 127.955 32.42V30.712C127.469 30.6187 127.003 30.4693 126.555 30.264C126.125 30.0587 125.724 29.8067 125.351 29.508C124.996 29.2093 124.688 28.8827 124.427 28.528C124.072 28.024 123.904 27.5947 123.923 27.24C123.96 26.8853 124.231 26.4747 124.735 26.008C125.071 25.728 125.388 25.5787 125.687 25.56C125.985 25.5227 126.275 25.588 126.555 25.756C126.835 25.924 127.087 26.1573 127.311 26.456C127.609 26.848 127.927 27.1373 128.263 27.324C128.617 27.5107 129.009 27.604 129.439 27.604C129.924 27.604 130.325 27.548 130.643 27.436C130.979 27.3053 131.221 27.1187 131.371 26.876C131.539 26.6147 131.623 26.3067 131.623 25.952C131.623 25.5227 131.408 25.2053 130.979 25C130.549 24.7947 129.999 24.608 129.327 24.44C128.673 24.2533 128.011 24.02 127.339 23.74C126.928 23.5533 126.536 23.348 126.163 23.124C125.789 22.8813 125.453 22.592 125.155 22.256C124.875 21.92 124.651 21.5187 124.483 21.052C124.315 20.5853 124.231 20.0347 124.231 19.4C124.231 18.8027 124.315 18.2613 124.483 17.776C124.651 17.272 124.893 16.8333 125.211 16.46C125.547 16.0867 125.939 15.7787 126.387 15.536C126.853 15.2747 127.376 15.088 127.955 14.976V13.464C127.955 13.1467 127.973 12.8573 128.011 12.596C128.067 12.316 128.207 12.092 128.431 11.924C128.655 11.7373 129.009 11.644 129.495 11.644C129.98 11.644 130.335 11.7373 130.559 11.924C130.783 12.092 130.923 12.316 130.979 12.596C131.035 12.876 131.063 13.1747 131.063 13.492V14.948C131.585 15.0227 132.043 15.172 132.435 15.396C132.845 15.62 133.247 15.9 133.639 16.236C134.087 16.628 134.329 16.9733 134.367 17.272C134.404 17.552 134.236 17.9533 133.863 18.476C133.62 18.8493 133.368 19.1107 133.107 19.26C132.845 19.4093 132.575 19.456 132.295 19.4C132.033 19.344 131.744 19.204 131.427 18.98C131.277 18.8493 131.109 18.7187 130.923 18.588C130.736 18.4573 130.521 18.3547 130.279 18.28C130.036 18.1867 129.728 18.14 129.355 18.14C129.112 18.14 128.897 18.1773 128.711 18.252C128.524 18.308 128.356 18.392 128.207 18.504C128.076 18.616 127.964 18.756 127.871 18.924C127.796 19.0733 127.759 19.2413 127.759 19.428C127.759 19.82 127.908 20.1187 128.207 20.324C128.505 20.5293 128.897 20.6973 129.383 20.828C129.887 20.9587 130.419 21.0987 130.979 21.248C131.483 21.3787 131.977 21.5467 132.463 21.752C132.967 21.9387 133.424 22.2 133.835 22.536C134.245 22.872 134.572 23.3107 134.815 23.852C135.076 24.3933 135.207 25.0747 135.207 25.896Z" fill="#FFA930"/>
<g filter="url(#filter2_ii_346_128)">
<rect x="246" y="194" width="246" height="91" rx="17" transform="rotate(180 246 194)" fill="white"/>
<rect x="246" y="194" width="246" height="91" rx="17" transform="rotate(180 246 194)" fill="url(#paint2_linear_346_128)" fill-opacity="0.1"/>
<rect x="246" y="194" width="246" height="91" rx="17" transform="rotate(180 246 194)" fill="white" fill-opacity="0.2"/>
</g>
<rect x="6" y="110" width="73.6667" height="77" rx="12" fill="#FFA930"/>
<path d="M26.75 144.875H29.875V152.375H28C27.5027 152.375 27.0258 152.573 26.6742 152.924C26.3225 153.276 26.125 153.753 26.125 154.25C26.125 154.747 26.3225 155.224 26.6742 155.576C27.0258 155.927 27.5027 156.125 28 156.125H58C58.4973 156.125 58.9742 155.927 59.3258 155.576C59.6775 155.224 59.875 154.747 59.875 154.25C59.875 153.753 59.6775 153.276 59.3258 152.924C58.9742 152.573 58.4973 152.375 58 152.375H56.125V144.875H59.25C59.6583 144.875 60.0554 144.742 60.381 144.496C60.7067 144.249 60.9431 143.904 61.0543 143.511C61.1655 143.118 61.1454 142.699 60.9971 142.319C60.8489 141.939 60.5805 141.617 60.2328 141.403L43.9828 131.403C43.6873 131.221 43.347 131.125 43 131.125C42.653 131.125 42.3127 131.221 42.0172 131.403L25.7672 141.403C25.4195 141.617 25.1511 141.939 25.0029 142.319C24.8546 142.699 24.8345 143.118 24.9457 143.511C25.0569 143.904 25.2933 144.249 25.619 144.496C25.9446 144.742 26.3417 144.875 26.75 144.875ZM33.625 144.875H37.375V152.375H33.625V144.875ZM44.875 144.875V152.375H41.125V144.875H44.875ZM52.375 152.375H48.625V144.875H52.375V152.375ZM43 135.202L52.625 141.125H33.375L43 135.202ZM62.375 160.5C62.375 160.997 62.1775 161.474 61.8258 161.826C61.4742 162.177 60.9973 162.375 60.5 162.375H25.5C25.0027 162.375 24.5258 162.177 24.1742 161.826C23.8225 161.474 23.625 160.997 23.625 160.5C23.625 160.003 23.8225 159.526 24.1742 159.174C24.5258 158.823 25.0027 158.625 25.5 158.625H60.5C60.9973 158.625 61.4742 158.823 61.8258 159.174C62.1775 159.526 62.375 160.003 62.375 160.5Z" fill="white"/>
<rect width="109.333" height="8" rx="4" transform="matrix(1 0 0 -1 90.3333 153.167)" fill="#1C0606" fill-opacity="0.34"/>
<rect width="96.6667" height="8" rx="4" transform="matrix(1 0 0 -1 90.3333 163.833)" fill="#1C0606" fill-opacity="0.34"/>
<g filter="url(#filter3_i_346_128)">
<rect width="122.667" height="11.3333" rx="5.66667" transform="matrix(1 0 0 -1 90.3333 187.167)" fill="#FFA930"/>
<rect width="122.667" height="11.3333" rx="5.66667" transform="matrix(1 0 0 -1 90.3333 187.167)" fill="url(#paint3_linear_346_128)" fill-opacity="0.2"/>
</g>
<path d="M92.128 129.764C91.8667 129.764 91.596 129.736 91.316 129.68C91.036 129.605 90.8027 129.437 90.616 129.176C90.4293 128.896 90.336 128.439 90.336 127.804C90.336 127.169 90.4293 126.721 90.616 126.46C90.8213 126.199 91.064 126.04 91.344 125.984C91.624 125.909 91.8947 125.872 92.156 125.872H98.708C98.988 125.872 99.268 125.909 99.548 125.984C99.828 126.04 100.061 126.208 100.248 126.488C100.435 126.749 100.528 127.188 100.528 127.804C100.528 128.439 100.435 128.896 100.248 129.176C100.08 129.437 99.856 129.605 99.576 129.68C99.296 129.736 99.0067 129.764 98.708 129.764H92.128ZM112.236 128.896C112.236 129.549 112.133 130.147 111.928 130.688C111.741 131.229 111.461 131.705 111.088 132.116C110.733 132.527 110.304 132.872 109.8 133.152C109.296 133.413 108.726 133.609 108.092 133.74V135.448C108.092 135.765 108.064 136.064 108.008 136.344C107.952 136.624 107.812 136.848 107.588 137.016C107.364 137.184 107.009 137.268 106.524 137.268C106.038 137.268 105.684 137.175 105.46 136.988C105.236 136.82 105.096 136.596 105.04 136.316C105.002 136.036 104.984 135.737 104.984 135.42V133.712C104.498 133.619 104.032 133.469 103.584 133.264C103.154 133.059 102.753 132.807 102.38 132.508C102.025 132.209 101.717 131.883 101.456 131.528C101.101 131.024 100.933 130.595 100.952 130.24C100.989 129.885 101.26 129.475 101.764 129.008C102.1 128.728 102.417 128.579 102.716 128.56C103.014 128.523 103.304 128.588 103.584 128.756C103.864 128.924 104.116 129.157 104.34 129.456C104.638 129.848 104.956 130.137 105.292 130.324C105.646 130.511 106.038 130.604 106.468 130.604C106.953 130.604 107.354 130.548 107.672 130.436C108.008 130.305 108.25 130.119 108.4 129.876C108.568 129.615 108.652 129.307 108.652 128.952C108.652 128.523 108.437 128.205 108.008 128C107.578 127.795 107.028 127.608 106.356 127.44C105.702 127.253 105.04 127.02 104.368 126.74C103.957 126.553 103.565 126.348 103.192 126.124C102.818 125.881 102.482 125.592 102.184 125.256C101.904 124.92 101.68 124.519 101.512 124.052C101.344 123.585 101.26 123.035 101.26 122.4C101.26 121.803 101.344 121.261 101.512 120.776C101.68 120.272 101.922 119.833 102.24 119.46C102.576 119.087 102.968 118.779 103.416 118.536C103.882 118.275 104.405 118.088 104.984 117.976V116.464C104.984 116.147 105.002 115.857 105.04 115.596C105.096 115.316 105.236 115.092 105.46 114.924C105.684 114.737 106.038 114.644 106.524 114.644C107.009 114.644 107.364 114.737 107.588 114.924C107.812 115.092 107.952 115.316 108.008 115.596C108.064 115.876 108.092 116.175 108.092 116.492V117.948C108.614 118.023 109.072 118.172 109.464 118.396C109.874 118.62 110.276 118.9 110.668 119.236C111.116 119.628 111.358 119.973 111.396 120.272C111.433 120.552 111.265 120.953 110.892 121.476C110.649 121.849 110.397 122.111 110.136 122.26C109.874 122.409 109.604 122.456 109.324 122.4C109.062 122.344 108.773 122.204 108.456 121.98C108.306 121.849 108.138 121.719 107.952 121.588C107.765 121.457 107.55 121.355 107.308 121.28C107.065 121.187 106.757 121.14 106.384 121.14C106.141 121.14 105.926 121.177 105.74 121.252C105.553 121.308 105.385 121.392 105.236 121.504C105.105 121.616 104.993 121.756 104.9 121.924C104.825 122.073 104.788 122.241 104.788 122.428C104.788 122.82 104.937 123.119 105.236 123.324C105.534 123.529 105.926 123.697 106.412 123.828C106.916 123.959 107.448 124.099 108.008 124.248C108.512 124.379 109.006 124.547 109.492 124.752C109.996 124.939 110.453 125.2 110.864 125.536C111.274 125.872 111.601 126.311 111.844 126.852C112.105 127.393 112.236 128.075 112.236 128.896ZM123.721 128.896C123.721 129.549 123.619 130.147 123.413 130.688C123.227 131.229 122.947 131.705 122.573 132.116C122.219 132.527 121.789 132.872 121.285 133.152C120.781 133.413 120.212 133.609 119.577 133.74V135.448C119.577 135.765 119.549 136.064 119.493 136.344C119.437 136.624 119.297 136.848 119.073 137.016C118.849 137.184 118.495 137.268 118.009 137.268C117.524 137.268 117.169 137.175 116.945 136.988C116.721 136.82 116.581 136.596 116.525 136.316C116.488 136.036 116.469 135.737 116.469 135.42V133.712C115.984 133.619 115.517 133.469 115.069 133.264C114.64 133.059 114.239 132.807 113.865 132.508C113.511 132.209 113.203 131.883 112.941 131.528C112.587 131.024 112.419 130.595 112.437 130.24C112.475 129.885 112.745 129.475 113.249 129.008C113.585 128.728 113.903 128.579 114.201 128.56C114.5 128.523 114.789 128.588 115.069 128.756C115.349 128.924 115.601 129.157 115.825 129.456C116.124 129.848 116.441 130.137 116.777 130.324C117.132 130.511 117.524 130.604 117.953 130.604C118.439 130.604 118.84 130.548 119.157 130.436C119.493 130.305 119.736 130.119 119.885 129.876C120.053 129.615 120.137 129.307 120.137 128.952C120.137 128.523 119.923 128.205 119.493 128C119.064 127.795 118.513 127.608 117.841 127.44C117.188 127.253 116.525 127.02 115.853 126.74C115.443 126.553 115.051 126.348 114.677 126.124C114.304 125.881 113.968 125.592 113.669 125.256C113.389 124.92 113.165 124.519 112.997 124.052C112.829 123.585 112.745 123.035 112.745 122.4C112.745 121.803 112.829 121.261 112.997 120.776C113.165 120.272 113.408 119.833 113.725 119.46C114.061 119.087 114.453 118.779 114.901 118.536C115.368 118.275 115.891 118.088 116.469 117.976V116.464C116.469 116.147 116.488 115.857 116.525 115.596C116.581 115.316 116.721 115.092 116.945 114.924C117.169 114.737 117.524 114.644 118.009 114.644C118.495 114.644 118.849 114.737 119.073 114.924C119.297 115.092 119.437 115.316 119.493 115.596C119.549 115.876 119.577 116.175 119.577 116.492V117.948C120.1 118.023 120.557 118.172 120.949 118.396C121.36 118.62 121.761 118.9 122.153 119.236C122.601 119.628 122.844 119.973 122.881 120.272C122.919 120.552 122.751 120.953 122.377 121.476C122.135 121.849 121.883 122.111 121.621 122.26C121.36 122.409 121.089 122.456 120.809 122.4C120.548 122.344 120.259 122.204 119.941 121.98C119.792 121.849 119.624 121.719 119.437 121.588C119.251 121.457 119.036 121.355 118.793 121.28C118.551 121.187 118.243 121.14 117.869 121.14C117.627 121.14 117.412 121.177 117.225 121.252C117.039 121.308 116.871 121.392 116.721 121.504C116.591 121.616 116.479 121.756 116.385 121.924C116.311 122.073 116.273 122.241 116.273 122.428C116.273 122.82 116.423 123.119 116.721 123.324C117.02 123.529 117.412 123.697 117.897 123.828C118.401 123.959 118.933 124.099 119.493 124.248C119.997 124.379 120.492 124.547 120.977 124.752C121.481 124.939 121.939 125.2 122.349 125.536C122.76 125.872 123.087 126.311 123.329 126.852C123.591 127.393 123.721 128.075 123.721 128.896ZM135.207 128.896C135.207 129.549 135.104 130.147 134.899 130.688C134.712 131.229 134.432 131.705 134.059 132.116C133.704 132.527 133.275 132.872 132.771 133.152C132.267 133.413 131.697 133.609 131.063 133.74V135.448C131.063 135.765 131.035 136.064 130.979 136.344C130.923 136.624 130.783 136.848 130.559 137.016C130.335 137.184 129.98 137.268 129.495 137.268C129.009 137.268 128.655 137.175 128.431 136.988C128.207 136.82 128.067 136.596 128.011 136.316C127.973 136.036 127.955 135.737 127.955 135.42V133.712C127.469 133.619 127.003 133.469 126.555 133.264C126.125 133.059 125.724 132.807 125.351 132.508C124.996 132.209 124.688 131.883 124.427 131.528C124.072 131.024 123.904 130.595 123.923 130.24C123.96 129.885 124.231 129.475 124.735 129.008C125.071 128.728 125.388 128.579 125.687 128.56C125.985 128.523 126.275 128.588 126.555 128.756C126.835 128.924 127.087 129.157 127.311 129.456C127.609 129.848 127.927 130.137 128.263 130.324C128.617 130.511 129.009 130.604 129.439 130.604C129.924 130.604 130.325 130.548 130.643 130.436C130.979 130.305 131.221 130.119 131.371 129.876C131.539 129.615 131.623 129.307 131.623 128.952C131.623 128.523 131.408 128.205 130.979 128C130.549 127.795 129.999 127.608 129.327 127.44C128.673 127.253 128.011 127.02 127.339 126.74C126.928 126.553 126.536 126.348 126.163 126.124C125.789 125.881 125.453 125.592 125.155 125.256C124.875 124.92 124.651 124.519 124.483 124.052C124.315 123.585 124.231 123.035 124.231 122.4C124.231 121.803 124.315 121.261 124.483 120.776C124.651 120.272 124.893 119.833 125.211 119.46C125.547 119.087 125.939 118.779 126.387 118.536C126.853 118.275 127.376 118.088 127.955 117.976V116.464C127.955 116.147 127.973 115.857 128.011 115.596C128.067 115.316 128.207 115.092 128.431 114.924C128.655 114.737 129.009 114.644 129.495 114.644C129.98 114.644 130.335 114.737 130.559 114.924C130.783 115.092 130.923 115.316 130.979 115.596C131.035 115.876 131.063 116.175 131.063 116.492V117.948C131.585 118.023 132.043 118.172 132.435 118.396C132.845 118.62 133.247 118.9 133.639 119.236C134.087 119.628 134.329 119.973 134.367 120.272C134.404 120.552 134.236 120.953 133.863 121.476C133.62 121.849 133.368 122.111 133.107 122.26C132.845 122.409 132.575 122.456 132.295 122.4C132.033 122.344 131.744 122.204 131.427 121.98C131.277 121.849 131.109 121.719 130.923 121.588C130.736 121.457 130.521 121.355 130.279 121.28C130.036 121.187 129.728 121.14 129.355 121.14C129.112 121.14 128.897 121.177 128.711 121.252C128.524 121.308 128.356 121.392 128.207 121.504C128.076 121.616 127.964 121.756 127.871 121.924C127.796 122.073 127.759 122.241 127.759 122.428C127.759 122.82 127.908 123.119 128.207 123.324C128.505 123.529 128.897 123.697 129.383 123.828C129.887 123.959 130.419 124.099 130.979 124.248C131.483 124.379 131.977 124.547 132.463 124.752C132.967 124.939 133.424 125.2 133.835 125.536C134.245 125.872 134.572 126.311 134.815 126.852C135.076 127.393 135.207 128.075 135.207 128.896Z" fill="#FFA930"/>
<g filter="url(#filter4_ii_346_128)">
<rect x="310" y="111" width="246" height="91" rx="17" fill="white"/>
<rect x="310" y="111" width="246" height="91" rx="17" fill="url(#paint4_linear_346_128)" fill-opacity="0.1"/>
<rect x="310" y="111" width="246" height="91" rx="17" fill="white" fill-opacity="0.2"/>
</g>
<rect x="316" y="118" width="73.6667" height="77" rx="12" fill="#FFA930"/>
<path d="M328.005 156.498C327.961 155.996 328.212 155.513 328.649 155.26L340.509 148.4C341.333 147.923 342.373 148.464 342.456 149.411L343.182 157.725C343.226 158.228 342.975 158.71 342.538 158.963L330.678 165.824C329.854 166.3 328.814 165.76 328.732 164.812L328.005 156.498Z" fill="white"/>
<path d="M344.978 154.673C345.143 154.633 345.301 154.569 345.448 154.484L357.803 147.337C358.627 146.861 359.666 147.402 359.749 148.349L360.476 156.663C360.52 157.166 360.269 157.648 359.832 157.901L347.971 164.762C347.148 165.238 346.108 164.698 346.025 163.75L345.625 159.172C345.604 158.931 345.51 158.702 345.356 158.517C344.989 158.075 344.36 157.959 343.86 158.239L341.695 159.455C341.547 159.538 341.359 159.496 341.26 159.357L339.767 157.252C339.538 156.929 339.469 156.52 339.579 156.14L340.98 151.293C341.086 150.928 341.587 150.886 341.752 151.229L342.942 153.71C343.307 154.472 344.157 154.874 344.978 154.673Z" fill="white"/>
<path d="M345.524 155.337C345.48 154.834 345.731 154.352 346.168 154.099L358.029 147.238C358.852 146.762 359.892 147.302 359.975 148.25L360.701 156.564C360.745 157.066 360.494 157.549 360.058 157.802L348.197 164.662C347.373 165.139 346.334 164.598 346.251 163.651L345.524 155.337Z" fill="white"/>
<path d="M362.497 153.512C362.662 153.472 362.821 153.408 362.968 153.323L375.323 146.176C376.146 145.7 377.186 146.24 377.268 147.188L377.995 155.502C378.039 156.004 377.788 156.487 377.351 156.74L365.491 163.6C364.667 164.077 363.627 163.536 363.545 162.589L363.144 158.01C363.123 157.77 363.029 157.541 362.875 157.355C362.509 156.914 361.879 156.797 361.379 157.078L359.215 158.294C359.066 158.377 358.878 158.335 358.779 158.196L357.287 156.09C357.058 155.768 356.988 155.358 357.098 154.978L358.499 150.132C358.605 149.767 359.106 149.725 359.271 150.068L360.461 152.549C360.827 153.311 361.676 153.713 362.497 153.512Z" fill="white"/>
<rect width="109.333" height="8" rx="4" transform="matrix(1 0 0 -1 400.333 161.167)" fill="#1C0606" fill-opacity="0.34"/>
<rect width="96.6667" height="8" rx="4" transform="matrix(1 0 0 -1 400.333 171.833)" fill="#1C0606" fill-opacity="0.34"/>
<g filter="url(#filter5_i_346_128)">
<rect width="122.667" height="11.3333" rx="5.66667" transform="matrix(1 0 0 -1 400.333 195.167)" fill="#FFA930"/>
<rect width="122.667" height="11.3333" rx="5.66667" transform="matrix(1 0 0 -1 400.333 195.167)" fill="url(#paint5_linear_346_128)" fill-opacity="0.2"/>
</g>
<path d="M402.128 137.764C401.867 137.764 401.596 137.736 401.316 137.68C401.036 137.605 400.803 137.437 400.616 137.176C400.429 136.896 400.336 136.439 400.336 135.804C400.336 135.169 400.429 134.721 400.616 134.46C400.821 134.199 401.064 134.04 401.344 133.984C401.624 133.909 401.895 133.872 402.156 133.872H408.708C408.988 133.872 409.268 133.909 409.548 133.984C409.828 134.04 410.061 134.208 410.248 134.488C410.435 134.749 410.528 135.188 410.528 135.804C410.528 136.439 410.435 136.896 410.248 137.176C410.08 137.437 409.856 137.605 409.576 137.68C409.296 137.736 409.007 137.764 408.708 137.764H402.128ZM422.236 136.896C422.236 137.549 422.133 138.147 421.928 138.688C421.741 139.229 421.461 139.705 421.088 140.116C420.733 140.527 420.304 140.872 419.8 141.152C419.296 141.413 418.726 141.609 418.092 141.74V143.448C418.092 143.765 418.064 144.064 418.008 144.344C417.952 144.624 417.812 144.848 417.588 145.016C417.364 145.184 417.009 145.268 416.524 145.268C416.038 145.268 415.684 145.175 415.46 144.988C415.236 144.82 415.096 144.596 415.04 144.316C415.002 144.036 414.984 143.737 414.984 143.42V141.712C414.498 141.619 414.032 141.469 413.584 141.264C413.154 141.059 412.753 140.807 412.38 140.508C412.025 140.209 411.717 139.883 411.456 139.528C411.101 139.024 410.933 138.595 410.952 138.24C410.989 137.885 411.26 137.475 411.764 137.008C412.1 136.728 412.417 136.579 412.716 136.56C413.014 136.523 413.304 136.588 413.584 136.756C413.864 136.924 414.116 137.157 414.34 137.456C414.638 137.848 414.956 138.137 415.292 138.324C415.646 138.511 416.038 138.604 416.468 138.604C416.953 138.604 417.354 138.548 417.672 138.436C418.008 138.305 418.25 138.119 418.4 137.876C418.568 137.615 418.652 137.307 418.652 136.952C418.652 136.523 418.437 136.205 418.008 136C417.578 135.795 417.028 135.608 416.356 135.44C415.702 135.253 415.04 135.02 414.368 134.74C413.957 134.553 413.565 134.348 413.192 134.124C412.818 133.881 412.482 133.592 412.184 133.256C411.904 132.92 411.68 132.519 411.512 132.052C411.344 131.585 411.26 131.035 411.26 130.4C411.26 129.803 411.344 129.261 411.512 128.776C411.68 128.272 411.922 127.833 412.24 127.46C412.576 127.087 412.968 126.779 413.416 126.536C413.882 126.275 414.405 126.088 414.984 125.976V124.464C414.984 124.147 415.002 123.857 415.04 123.596C415.096 123.316 415.236 123.092 415.46 122.924C415.684 122.737 416.038 122.644 416.524 122.644C417.009 122.644 417.364 122.737 417.588 122.924C417.812 123.092 417.952 123.316 418.008 123.596C418.064 123.876 418.092 124.175 418.092 124.492V125.948C418.614 126.023 419.072 126.172 419.464 126.396C419.874 126.62 420.276 126.9 420.668 127.236C421.116 127.628 421.358 127.973 421.396 128.272C421.433 128.552 421.265 128.953 420.892 129.476C420.649 129.849 420.397 130.111 420.136 130.26C419.874 130.409 419.604 130.456 419.324 130.4C419.062 130.344 418.773 130.204 418.456 129.98C418.306 129.849 418.138 129.719 417.952 129.588C417.765 129.457 417.55 129.355 417.308 129.28C417.065 129.187 416.757 129.14 416.384 129.14C416.141 129.14 415.926 129.177 415.74 129.252C415.553 129.308 415.385 129.392 415.236 129.504C415.105 129.616 414.993 129.756 414.9 129.924C414.825 130.073 414.788 130.241 414.788 130.428C414.788 130.82 414.937 131.119 415.236 131.324C415.534 131.529 415.926 131.697 416.412 131.828C416.916 131.959 417.448 132.099 418.008 132.248C418.512 132.379 419.006 132.547 419.492 132.752C419.996 132.939 420.453 133.2 420.864 133.536C421.274 133.872 421.601 134.311 421.844 134.852C422.105 135.393 422.236 136.075 422.236 136.896ZM433.721 136.896C433.721 137.549 433.619 138.147 433.413 138.688C433.227 139.229 432.947 139.705 432.573 140.116C432.219 140.527 431.789 140.872 431.285 141.152C430.781 141.413 430.212 141.609 429.577 141.74V143.448C429.577 143.765 429.549 144.064 429.493 144.344C429.437 144.624 429.297 144.848 429.073 145.016C428.849 145.184 428.495 145.268 428.009 145.268C427.524 145.268 427.169 145.175 426.945 144.988C426.721 144.82 426.581 144.596 426.525 144.316C426.488 144.036 426.469 143.737 426.469 143.42V141.712C425.984 141.619 425.517 141.469 425.069 141.264C424.64 141.059 424.239 140.807 423.865 140.508C423.511 140.209 423.203 139.883 422.941 139.528C422.587 139.024 422.419 138.595 422.437 138.24C422.475 137.885 422.745 137.475 423.249 137.008C423.585 136.728 423.903 136.579 424.201 136.56C424.5 136.523 424.789 136.588 425.069 136.756C425.349 136.924 425.601 137.157 425.825 137.456C426.124 137.848 426.441 138.137 426.777 138.324C427.132 138.511 427.524 138.604 427.953 138.604C428.439 138.604 428.84 138.548 429.157 138.436C429.493 138.305 429.736 138.119 429.885 137.876C430.053 137.615 430.137 137.307 430.137 136.952C430.137 136.523 429.923 136.205 429.493 136C429.064 135.795 428.513 135.608 427.841 135.44C427.188 135.253 426.525 135.02 425.853 134.74C425.443 134.553 425.051 134.348 424.677 134.124C424.304 133.881 423.968 133.592 423.669 133.256C423.389 132.92 423.165 132.519 422.997 132.052C422.829 131.585 422.745 131.035 422.745 130.4C422.745 129.803 422.829 129.261 422.997 128.776C423.165 128.272 423.408 127.833 423.725 127.46C424.061 127.087 424.453 126.779 424.901 126.536C425.368 126.275 425.891 126.088 426.469 125.976V124.464C426.469 124.147 426.488 123.857 426.525 123.596C426.581 123.316 426.721 123.092 426.945 122.924C427.169 122.737 427.524 122.644 428.009 122.644C428.495 122.644 428.849 122.737 429.073 122.924C429.297 123.092 429.437 123.316 429.493 123.596C429.549 123.876 429.577 124.175 429.577 124.492V125.948C430.1 126.023 430.557 126.172 430.949 126.396C431.36 126.62 431.761 126.9 432.153 127.236C432.601 127.628 432.844 127.973 432.881 128.272C432.919 128.552 432.751 128.953 432.377 129.476C432.135 129.849 431.883 130.111 431.621 130.26C431.36 130.409 431.089 130.456 430.809 130.4C430.548 130.344 430.259 130.204 429.941 129.98C429.792 129.849 429.624 129.719 429.437 129.588C429.251 129.457 429.036 129.355 428.793 129.28C428.551 129.187 428.243 129.14 427.869 129.14C427.627 129.14 427.412 129.177 427.225 129.252C427.039 129.308 426.871 129.392 426.721 129.504C426.591 129.616 426.479 129.756 426.385 129.924C426.311 130.073 426.273 130.241 426.273 130.428C426.273 130.82 426.423 131.119 426.721 131.324C427.02 131.529 427.412 131.697 427.897 131.828C428.401 131.959 428.933 132.099 429.493 132.248C429.997 132.379 430.492 132.547 430.977 132.752C431.481 132.939 431.939 133.2 432.349 133.536C432.76 133.872 433.087 134.311 433.329 134.852C433.591 135.393 433.721 136.075 433.721 136.896ZM445.207 136.896C445.207 137.549 445.104 138.147 444.899 138.688C444.712 139.229 444.432 139.705 444.059 140.116C443.704 140.527 443.275 140.872 442.771 141.152C442.267 141.413 441.697 141.609 441.063 141.74V143.448C441.063 143.765 441.035 144.064 440.979 144.344C440.923 144.624 440.783 144.848 440.559 145.016C440.335 145.184 439.98 145.268 439.495 145.268C439.009 145.268 438.655 145.175 438.431 144.988C438.207 144.82 438.067 144.596 438.011 144.316C437.973 144.036 437.955 143.737 437.955 143.42V141.712C437.469 141.619 437.003 141.469 436.555 141.264C436.125 141.059 435.724 140.807 435.351 140.508C434.996 140.209 434.688 139.883 434.427 139.528C434.072 139.024 433.904 138.595 433.923 138.24C433.96 137.885 434.231 137.475 434.735 137.008C435.071 136.728 435.388 136.579 435.687 136.56C435.985 136.523 436.275 136.588 436.555 136.756C436.835 136.924 437.087 137.157 437.311 137.456C437.609 137.848 437.927 138.137 438.263 138.324C438.617 138.511 439.009 138.604 439.439 138.604C439.924 138.604 440.325 138.548 440.643 138.436C440.979 138.305 441.221 138.119 441.371 137.876C441.539 137.615 441.623 137.307 441.623 136.952C441.623 136.523 441.408 136.205 440.979 136C440.549 135.795 439.999 135.608 439.327 135.44C438.673 135.253 438.011 135.02 437.339 134.74C436.928 134.553 436.536 134.348 436.163 134.124C435.789 133.881 435.453 133.592 435.155 133.256C434.875 132.92 434.651 132.519 434.483 132.052C434.315 131.585 434.231 131.035 434.231 130.4C434.231 129.803 434.315 129.261 434.483 128.776C434.651 128.272 434.893 127.833 435.211 127.46C435.547 127.087 435.939 126.779 436.387 126.536C436.853 126.275 437.376 126.088 437.955 125.976V124.464C437.955 124.147 437.973 123.857 438.011 123.596C438.067 123.316 438.207 123.092 438.431 122.924C438.655 122.737 439.009 122.644 439.495 122.644C439.98 122.644 440.335 122.737 440.559 122.924C440.783 123.092 440.923 123.316 440.979 123.596C441.035 123.876 441.063 124.175 441.063 124.492V125.948C441.585 126.023 442.043 126.172 442.435 126.396C442.845 126.62 443.247 126.9 443.639 127.236C444.087 127.628 444.329 127.973 444.367 128.272C444.404 128.552 444.236 128.953 443.863 129.476C443.62 129.849 443.368 130.111 443.107 130.26C442.845 130.409 442.575 130.456 442.295 130.4C442.033 130.344 441.744 130.204 441.427 129.98C441.277 129.849 441.109 129.719 440.923 129.588C440.736 129.457 440.521 129.355 440.279 129.28C440.036 129.187 439.728 129.14 439.355 129.14C439.112 129.14 438.897 129.177 438.711 129.252C438.524 129.308 438.356 129.392 438.207 129.504C438.076 129.616 437.964 129.756 437.871 129.924C437.796 130.073 437.759 130.241 437.759 130.428C437.759 130.82 437.908 131.119 438.207 131.324C438.505 131.529 438.897 131.697 439.383 131.828C439.887 131.959 440.419 132.099 440.979 132.248C441.483 132.379 441.977 132.547 442.463 132.752C442.967 132.939 443.424 133.2 443.835 133.536C444.245 133.872 444.572 134.311 444.815 134.852C445.076 135.393 445.207 136.075 445.207 136.896Z" fill="#FFA930"/>
<g filter="url(#filter6_ii_346_128)">
<rect width="246" height="91" rx="17" transform="matrix(1 0 0 -1 310 305)" fill="white"/>
<rect width="246" height="91" rx="17" transform="matrix(1 0 0 -1 310 305)" fill="url(#paint6_linear_346_128)" fill-opacity="0.1"/>
<rect width="246" height="91" rx="17" transform="matrix(1 0 0 -1 310 305)" fill="white" fill-opacity="0.2"/>
</g>
<rect x="316" y="221" width="73.6667" height="77" rx="12" fill="#FFA930"/>
<path d="M328.005 259.498C327.961 258.996 328.212 258.513 328.649 258.26L340.509 251.4C341.333 250.923 342.373 251.464 342.456 252.411L343.182 260.725C343.226 261.228 342.975 261.71 342.538 261.963L330.678 268.824C329.854 269.3 328.814 268.76 328.732 267.812L328.005 259.498Z" fill="white"/>
<path d="M344.978 257.673C345.143 257.633 345.301 257.569 345.448 257.484L357.803 250.337C358.627 249.861 359.666 250.402 359.749 251.349L360.476 259.663C360.52 260.166 360.269 260.648 359.832 260.901L347.971 267.762C347.148 268.238 346.108 267.698 346.025 266.75L345.625 262.172C345.604 261.931 345.51 261.702 345.356 261.517C344.989 261.075 344.36 260.959 343.86 261.239L341.695 262.455C341.547 262.538 341.359 262.496 341.26 262.357L339.767 260.252C339.538 259.929 339.469 259.52 339.579 259.14L340.98 254.293C341.086 253.928 341.587 253.886 341.752 254.229L342.942 256.71C343.307 257.472 344.157 257.874 344.978 257.673Z" fill="white"/>
<path d="M345.524 258.337C345.48 257.834 345.731 257.352 346.168 257.099L358.029 250.238C358.852 249.762 359.892 250.302 359.975 251.25L360.701 259.564C360.745 260.066 360.494 260.549 360.058 260.802L348.197 267.662C347.373 268.139 346.334 267.598 346.251 266.651L345.524 258.337Z" fill="white"/>
<path d="M362.497 256.512C362.662 256.472 362.821 256.408 362.968 256.323L375.323 249.176C376.146 248.7 377.186 249.24 377.268 250.188L377.995 258.502C378.039 259.004 377.788 259.487 377.351 259.74L365.491 266.6C364.667 267.077 363.627 266.536 363.545 265.589L363.144 261.01C363.123 260.77 363.029 260.541 362.875 260.355C362.509 259.914 361.879 259.797 361.379 260.078L359.215 261.294C359.066 261.377 358.878 261.335 358.779 261.196L357.287 259.09C357.058 258.768 356.988 258.358 357.098 257.978L358.499 253.132C358.605 252.767 359.106 252.725 359.271 253.068L360.461 255.549C360.827 256.311 361.676 256.713 362.497 256.512Z" fill="white"/>
<rect width="109.333" height="8" rx="4" transform="matrix(1 0 0 -1 400.333 264.167)" fill="#1C0606" fill-opacity="0.34"/>
<rect width="96.6667" height="8" rx="4" transform="matrix(1 0 0 -1 400.333 274.833)" fill="#1C0606" fill-opacity="0.34"/>
<g filter="url(#filter7_i_346_128)">
<rect width="122.667" height="11.3333" rx="5.66667" transform="matrix(1 0 0 -1 400.333 298.167)" fill="#FFA930"/>
<rect width="122.667" height="11.3333" rx="5.66667" transform="matrix(1 0 0 -1 400.333 298.167)" fill="url(#paint7_linear_346_128)" fill-opacity="0.2"/>
</g>
<path d="M402.128 240.764C401.867 240.764 401.596 240.736 401.316 240.68C401.036 240.605 400.803 240.437 400.616 240.176C400.429 239.896 400.336 239.439 400.336 238.804C400.336 238.169 400.429 237.721 400.616 237.46C400.821 237.199 401.064 237.04 401.344 236.984C401.624 236.909 401.895 236.872 402.156 236.872H408.708C408.988 236.872 409.268 236.909 409.548 236.984C409.828 237.04 410.061 237.208 410.248 237.488C410.435 237.749 410.528 238.188 410.528 238.804C410.528 239.439 410.435 239.896 410.248 240.176C410.08 240.437 409.856 240.605 409.576 240.68C409.296 240.736 409.007 240.764 408.708 240.764H402.128ZM422.236 239.896C422.236 240.549 422.133 241.147 421.928 241.688C421.741 242.229 421.461 242.705 421.088 243.116C420.733 243.527 420.304 243.872 419.8 244.152C419.296 244.413 418.726 244.609 418.092 244.74V246.448C418.092 246.765 418.064 247.064 418.008 247.344C417.952 247.624 417.812 247.848 417.588 248.016C417.364 248.184 417.009 248.268 416.524 248.268C416.038 248.268 415.684 248.175 415.46 247.988C415.236 247.82 415.096 247.596 415.04 247.316C415.002 247.036 414.984 246.737 414.984 246.42V244.712C414.498 244.619 414.032 244.469 413.584 244.264C413.154 244.059 412.753 243.807 412.38 243.508C412.025 243.209 411.717 242.883 411.456 242.528C411.101 242.024 410.933 241.595 410.952 241.24C410.989 240.885 411.26 240.475 411.764 240.008C412.1 239.728 412.417 239.579 412.716 239.56C413.014 239.523 413.304 239.588 413.584 239.756C413.864 239.924 414.116 240.157 414.34 240.456C414.638 240.848 414.956 241.137 415.292 241.324C415.646 241.511 416.038 241.604 416.468 241.604C416.953 241.604 417.354 241.548 417.672 241.436C418.008 241.305 418.25 241.119 418.4 240.876C418.568 240.615 418.652 240.307 418.652 239.952C418.652 239.523 418.437 239.205 418.008 239C417.578 238.795 417.028 238.608 416.356 238.44C415.702 238.253 415.04 238.02 414.368 237.74C413.957 237.553 413.565 237.348 413.192 237.124C412.818 236.881 412.482 236.592 412.184 236.256C411.904 235.92 411.68 235.519 411.512 235.052C411.344 234.585 411.26 234.035 411.26 233.4C411.26 232.803 411.344 232.261 411.512 231.776C411.68 231.272 411.922 230.833 412.24 230.46C412.576 230.087 412.968 229.779 413.416 229.536C413.882 229.275 414.405 229.088 414.984 228.976V227.464C414.984 227.147 415.002 226.857 415.04 226.596C415.096 226.316 415.236 226.092 415.46 225.924C415.684 225.737 416.038 225.644 416.524 225.644C417.009 225.644 417.364 225.737 417.588 225.924C417.812 226.092 417.952 226.316 418.008 226.596C418.064 226.876 418.092 227.175 418.092 227.492V228.948C418.614 229.023 419.072 229.172 419.464 229.396C419.874 229.62 420.276 229.9 420.668 230.236C421.116 230.628 421.358 230.973 421.396 231.272C421.433 231.552 421.265 231.953 420.892 232.476C420.649 232.849 420.397 233.111 420.136 233.26C419.874 233.409 419.604 233.456 419.324 233.4C419.062 233.344 418.773 233.204 418.456 232.98C418.306 232.849 418.138 232.719 417.952 232.588C417.765 232.457 417.55 232.355 417.308 232.28C417.065 232.187 416.757 232.14 416.384 232.14C416.141 232.14 415.926 232.177 415.74 232.252C415.553 232.308 415.385 232.392 415.236 232.504C415.105 232.616 414.993 232.756 414.9 232.924C414.825 233.073 414.788 233.241 414.788 233.428C414.788 233.82 414.937 234.119 415.236 234.324C415.534 234.529 415.926 234.697 416.412 234.828C416.916 234.959 417.448 235.099 418.008 235.248C418.512 235.379 419.006 235.547 419.492 235.752C419.996 235.939 420.453 236.2 420.864 236.536C421.274 236.872 421.601 237.311 421.844 237.852C422.105 238.393 422.236 239.075 422.236 239.896ZM433.721 239.896C433.721 240.549 433.619 241.147 433.413 241.688C433.227 242.229 432.947 242.705 432.573 243.116C432.219 243.527 431.789 243.872 431.285 244.152C430.781 244.413 430.212 244.609 429.577 244.74V246.448C429.577 246.765 429.549 247.064 429.493 247.344C429.437 247.624 429.297 247.848 429.073 248.016C428.849 248.184 428.495 248.268 428.009 248.268C427.524 248.268 427.169 248.175 426.945 247.988C426.721 247.82 426.581 247.596 426.525 247.316C426.488 247.036 426.469 246.737 426.469 246.42V244.712C425.984 244.619 425.517 244.469 425.069 244.264C424.64 244.059 424.239 243.807 423.865 243.508C423.511 243.209 423.203 242.883 422.941 242.528C422.587 242.024 422.419 241.595 422.437 241.24C422.475 240.885 422.745 240.475 423.249 240.008C423.585 239.728 423.903 239.579 424.201 239.56C424.5 239.523 424.789 239.588 425.069 239.756C425.349 239.924 425.601 240.157 425.825 240.456C426.124 240.848 426.441 241.137 426.777 241.324C427.132 241.511 427.524 241.604 427.953 241.604C428.439 241.604 428.84 241.548 429.157 241.436C429.493 241.305 429.736 241.119 429.885 240.876C430.053 240.615 430.137 240.307 430.137 239.952C430.137 239.523 429.923 239.205 429.493 239C429.064 238.795 428.513 238.608 427.841 238.44C427.188 238.253 426.525 238.02 425.853 237.74C425.443 237.553 425.051 237.348 424.677 237.124C424.304 236.881 423.968 236.592 423.669 236.256C423.389 235.92 423.165 235.519 422.997 235.052C422.829 234.585 422.745 234.035 422.745 233.4C422.745 232.803 422.829 232.261 422.997 231.776C423.165 231.272 423.408 230.833 423.725 230.46C424.061 230.087 424.453 229.779 424.901 229.536C425.368 229.275 425.891 229.088 426.469 228.976V227.464C426.469 227.147 426.488 226.857 426.525 226.596C426.581 226.316 426.721 226.092 426.945 225.924C427.169 225.737 427.524 225.644 428.009 225.644C428.495 225.644 428.849 225.737 429.073 225.924C429.297 226.092 429.437 226.316 429.493 226.596C429.549 226.876 429.577 227.175 429.577 227.492V228.948C430.1 229.023 430.557 229.172 430.949 229.396C431.36 229.62 431.761 229.9 432.153 230.236C432.601 230.628 432.844 230.973 432.881 231.272C432.919 231.552 432.751 231.953 432.377 232.476C432.135 232.849 431.883 233.111 431.621 233.26C431.36 233.409 431.089 233.456 430.809 233.4C430.548 233.344 430.259 233.204 429.941 232.98C429.792 232.849 429.624 232.719 429.437 232.588C429.251 232.457 429.036 232.355 428.793 232.28C428.551 232.187 428.243 232.14 427.869 232.14C427.627 232.14 427.412 232.177 427.225 232.252C427.039 232.308 426.871 232.392 426.721 232.504C426.591 232.616 426.479 232.756 426.385 232.924C426.311 233.073 426.273 233.241 426.273 233.428C426.273 233.82 426.423 234.119 426.721 234.324C427.02 234.529 427.412 234.697 427.897 234.828C428.401 234.959 428.933 235.099 429.493 235.248C429.997 235.379 430.492 235.547 430.977 235.752C431.481 235.939 431.939 236.2 432.349 236.536C432.76 236.872 433.087 237.311 433.329 237.852C433.591 238.393 433.721 239.075 433.721 239.896ZM445.207 239.896C445.207 240.549 445.104 241.147 444.899 241.688C444.712 242.229 444.432 242.705 444.059 243.116C443.704 243.527 443.275 243.872 442.771 244.152C442.267 244.413 441.697 244.609 441.063 244.74V246.448C441.063 246.765 441.035 247.064 440.979 247.344C440.923 247.624 440.783 247.848 440.559 248.016C440.335 248.184 439.98 248.268 439.495 248.268C439.009 248.268 438.655 248.175 438.431 247.988C438.207 247.82 438.067 247.596 438.011 247.316C437.973 247.036 437.955 246.737 437.955 246.42V244.712C437.469 244.619 437.003 244.469 436.555 244.264C436.125 244.059 435.724 243.807 435.351 243.508C434.996 243.209 434.688 242.883 434.427 242.528C434.072 242.024 433.904 241.595 433.923 241.24C433.96 240.885 434.231 240.475 434.735 240.008C435.071 239.728 435.388 239.579 435.687 239.56C435.985 239.523 436.275 239.588 436.555 239.756C436.835 239.924 437.087 240.157 437.311 240.456C437.609 240.848 437.927 241.137 438.263 241.324C438.617 241.511 439.009 241.604 439.439 241.604C439.924 241.604 440.325 241.548 440.643 241.436C440.979 241.305 441.221 241.119 441.371 240.876C441.539 240.615 441.623 240.307 441.623 239.952C441.623 239.523 441.408 239.205 440.979 239C440.549 238.795 439.999 238.608 439.327 238.44C438.673 238.253 438.011 238.02 437.339 237.74C436.928 237.553 436.536 237.348 436.163 237.124C435.789 236.881 435.453 236.592 435.155 236.256C434.875 235.92 434.651 235.519 434.483 235.052C434.315 234.585 434.231 234.035 434.231 233.4C434.231 232.803 434.315 232.261 434.483 231.776C434.651 231.272 434.893 230.833 435.211 230.46C435.547 230.087 435.939 229.779 436.387 229.536C436.853 229.275 437.376 229.088 437.955 228.976V227.464C437.955 227.147 437.973 226.857 438.011 226.596C438.067 226.316 438.207 226.092 438.431 225.924C438.655 225.737 439.009 225.644 439.495 225.644C439.98 225.644 440.335 225.737 440.559 225.924C440.783 226.092 440.923 226.316 440.979 226.596C441.035 226.876 441.063 227.175 441.063 227.492V228.948C441.585 229.023 442.043 229.172 442.435 229.396C442.845 229.62 443.247 229.9 443.639 230.236C444.087 230.628 444.329 230.973 444.367 231.272C444.404 231.552 444.236 231.953 443.863 232.476C443.62 232.849 443.368 233.111 443.107 233.26C442.845 233.409 442.575 233.456 442.295 233.4C442.033 233.344 441.744 233.204 441.427 232.98C441.277 232.849 441.109 232.719 440.923 232.588C440.736 232.457 440.521 232.355 440.279 232.28C440.036 232.187 439.728 232.14 439.355 232.14C439.112 232.14 438.897 232.177 438.711 232.252C438.524 232.308 438.356 232.392 438.207 232.504C438.076 232.616 437.964 232.756 437.871 232.924C437.796 233.073 437.759 233.241 437.759 233.428C437.759 233.82 437.908 234.119 438.207 234.324C438.505 234.529 438.897 234.697 439.383 234.828C439.887 234.959 440.419 235.099 440.979 235.248C441.483 235.379 441.977 235.547 442.463 235.752C442.967 235.939 443.424 236.2 443.835 236.536C444.245 236.872 444.572 237.311 444.815 237.852C445.076 238.393 445.207 239.075 445.207 239.896Z" fill="#FFA930"/>
<defs>
<filter id="filter0_ii_346_128" x="-2" y="-2" width="248" height="93" filterUnits="userSpaceOnUse" color-interpolation-filters="sRGB">
<feFlood flood-opacity="0" result="BackgroundImageFix"/>
<feBlend mode="normal" in="SourceGraphic" in2="BackgroundImageFix" result="shape"/>
<feColorMatrix in="SourceAlpha" type="matrix" values="0 0 0 0 0 0 0 0 0 0 0 0 0 0 0 0 0 0 127 0" result="hardAlpha"/>
<feMorphology radius="14" operator="erode" in="SourceAlpha" result="effect1_innerShadow_346_128"/>
<feOffset dx="-2" dy="-2"/>
<feGaussianBlur stdDeviation="10"/>
<feComposite in2="hardAlpha" operator="arithmetic" k2="-1" k3="1"/>
<feColorMatrix type="matrix" values="0 0 0 0 0 0 0 0 0 0.4 0 0 0 0 0.52549 0 0 0 0.06 0"/>
<feBlend mode="normal" in2="shape" result="effect1_innerShadow_346_128"/>
<feColorMatrix in="SourceAlpha" type="matrix" values="0 0 0 0 0 0 0 0 0 0 0 0 0 0 0 0 0 0 127 0" result="hardAlpha"/>
<feOffset/>
<feGaussianBlur stdDeviation="2"/>
<feComposite in2="hardAlpha" operator="arithmetic" k2="-1" k3="1"/>
<feColorMatrix type="matrix" values="0 0 0 0 1 0 0 0 0 1 0 0 0 0 1 0 0 0 0.49 0"/>
<feBlend mode="normal" in2="effect1_innerShadow_346_128" result="effect2_innerShadow_346_128"/>
</filter>
<filter id="filter1_i_346_128" x="90.3333" y="72.8334" width="122.667" height="11.3333" filterUnits="userSpaceOnUse" color-interpolation-filters="sRGB">
<feFlood flood-opacity="0" result="BackgroundImageFix"/>
<feBlend mode="normal" in="SourceGraphic" in2="BackgroundImageFix" result="shape"/>
<feColorMatrix in="SourceAlpha" type="matrix" values="0 0 0 0 0 0 0 0 0 0 0 0 0 0 0 0 0 0 127 0" result="hardAlpha"/>
<feOffset/>
<feGaussianBlur stdDeviation="2.95"/>
<feComposite in2="hardAlpha" operator="arithmetic" k2="-1" k3="1"/>
<feColorMatrix type="matrix" values="0 0 0 0 1 0 0 0 0 1 0 0 0 0 1 0 0 0 0.65 0"/>
<feBlend mode="normal" in2="shape" result="effect1_innerShadow_346_128"/>
</filter>
<filter id="filter2_ii_346_128" x="-2" y="101" width="248" height="93" filterUnits="userSpaceOnUse" color-interpolation-filters="sRGB">
<feFlood flood-opacity="0" result="BackgroundImageFix"/>
<feBlend mode="normal" in="SourceGraphic" in2="BackgroundImageFix" result="shape"/>
<feColorMatrix in="SourceAlpha" type="matrix" values="0 0 0 0 0 0 0 0 0 0 0 0 0 0 0 0 0 0 127 0" result="hardAlpha"/>
<feMorphology radius="14" operator="erode" in="SourceAlpha" result="effect1_innerShadow_346_128"/>
<feOffset dx="-2" dy="-2"/>
<feGaussianBlur stdDeviation="10"/>
<feComposite in2="hardAlpha" operator="arithmetic" k2="-1" k3="1"/>
<feColorMatrix type="matrix" values="0 0 0 0 0 0 0 0 0 0.4 0 0 0 0 0.52549 0 0 0 0.06 0"/>
<feBlend mode="normal" in2="shape" result="effect1_innerShadow_346_128"/>
<feColorMatrix in="SourceAlpha" type="matrix" values="0 0 0 0 0 0 0 0 0 0 0 0 0 0 0 0 0 0 127 0" result="hardAlpha"/>
<feOffset/>
<feGaussianBlur stdDeviation="2"/>
<feComposite in2="hardAlpha" operator="arithmetic" k2="-1" k3="1"/>
<feColorMatrix type="matrix" values="0 0 0 0 1 0 0 0 0 1 0 0 0 0 1 0 0 0 0.49 0"/>
<feBlend mode="normal" in2="effect1_innerShadow_346_128" result="effect2_innerShadow_346_128"/>
</filter>
<filter id="filter3_i_346_128" x="90.3333" y="175.833" width="122.667" height="11.3333" filterUnits="userSpaceOnUse" color-interpolation-filters="sRGB">
<feFlood flood-opacity="0" result="BackgroundImageFix"/>
<feBlend mode="normal" in="SourceGraphic" in2="BackgroundImageFix" result="shape"/>
<feColorMatrix in="SourceAlpha" type="matrix" values="0 0 0 0 0 0 0 0 0 0 0 0 0 0 0 0 0 0 127 0" result="hardAlpha"/>
<feOffset/>
<feGaussianBlur stdDeviation="2.95"/>
<feComposite in2="hardAlpha" operator="arithmetic" k2="-1" k3="1"/>
<feColorMatrix type="matrix" values="0 0 0 0 1 0 0 0 0 1 0 0 0 0 1 0 0 0 0.65 0"/>
<feBlend mode="normal" in2="shape" result="effect1_innerShadow_346_128"/>
</filter>
<filter id="filter4_ii_346_128" x="308" y="109" width="248" height="93" filterUnits="userSpaceOnUse" color-interpolation-filters="sRGB">
<feFlood flood-opacity="0" result="BackgroundImageFix"/>
<feBlend mode="normal" in="SourceGraphic" in2="BackgroundImageFix" result="shape"/>
<feColorMatrix in="SourceAlpha" type="matrix" values="0 0 0 0 0 0 0 0 0 0 0 0 0 0 0 0 0 0 127 0" result="hardAlpha"/>
<feMorphology radius="14" operator="erode" in="SourceAlpha" result="effect1_innerShadow_346_128"/>
<feOffset dx="-2" dy="-2"/>
<feGaussianBlur stdDeviation="10"/>
<feComposite in2="hardAlpha" operator="arithmetic" k2="-1" k3="1"/>
<feColorMatrix type="matrix" values="0 0 0 0 0 0 0 0 0 0.4 0 0 0 0 0.52549 0 0 0 0.06 0"/>
<feBlend mode="normal" in2="shape" result="effect1_innerShadow_346_128"/>
<feColorMatrix in="SourceAlpha" type="matrix" values="0 0 0 0 0 0 0 0 0 0 0 0 0 0 0 0 0 0 127 0" result="hardAlpha"/>
<feOffset/>
<feGaussianBlur stdDeviation="2"/>
<feComposite in2="hardAlpha" operator="arithmetic" k2="-1" k3="1"/>
<feColorMatrix type="matrix" values="0 0 0 0 1 0 0 0 0 1 0 0 0 0 1 0 0 0 0.49 0"/>
<feBlend mode="normal" in2="effect1_innerShadow_346_128" result="effect2_innerShadow_346_128"/>
</filter>
<filter id="filter5_i_346_128" x="400.333" y="183.833" width="122.667" height="11.3333" filterUnits="userSpaceOnUse" color-interpolation-filters="sRGB">
<feFlood flood-opacity="0" result="BackgroundImageFix"/>
<feBlend mode="normal" in="SourceGraphic" in2="BackgroundImageFix" result="shape"/>
<feColorMatrix in="SourceAlpha" type="matrix" values="0 0 0 0 0 0 0 0 0 0 0 0 0 0 0 0 0 0 127 0" result="hardAlpha"/>
<feOffset/>
<feGaussianBlur stdDeviation="2.95"/>
<feComposite in2="hardAlpha" operator="arithmetic" k2="-1" k3="1"/>
<feColorMatrix type="matrix" values="0 0 0 0 1 0 0 0 0 1 0 0 0 0 1 0 0 0 0.65 0"/>
<feBlend mode="normal" in2="shape" result="effect1_innerShadow_346_128"/>
</filter>
<filter id="filter6_ii_346_128" x="308" y="212" width="248" height="93" filterUnits="userSpaceOnUse" color-interpolation-filters="sRGB">
<feFlood flood-opacity="0" result="BackgroundImageFix"/>
<feBlend mode="normal" in="SourceGraphic" in2="BackgroundImageFix" result="shape"/>
<feColorMatrix in="SourceAlpha" type="matrix" values="0 0 0 0 0 0 0 0 0 0 0 0 0 0 0 0 0 0 127 0" result="hardAlpha"/>
<feMorphology radius="14" operator="erode" in="SourceAlpha" result="effect1_innerShadow_346_128"/>
<feOffset dx="-2" dy="-2"/>
<feGaussianBlur stdDeviation="10"/>
<feComposite in2="hardAlpha" operator="arithmetic" k2="-1" k3="1"/>
<feColorMatrix type="matrix" values="0 0 0 0 0 0 0 0 0 0.4 0 0 0 0 0.52549 0 0 0 0.06 0"/>
<feBlend mode="normal" in2="shape" result="effect1_innerShadow_346_128"/>
<feColorMatrix in="SourceAlpha" type="matrix" values="0 0 0 0 0 0 0 0 0 0 0 0 0 0 0 0 0 0 127 0" result="hardAlpha"/>
<feOffset/>
<feGaussianBlur stdDeviation="2"/>
<feComposite in2="hardAlpha" operator="arithmetic" k2="-1" k3="1"/>
<feColorMatrix type="matrix" values="0 0 0 0 1 0 0 0 0 1 0 0 0 0 1 0 0 0 0.49 0"/>
<feBlend mode="normal" in2="effect1_innerShadow_346_128" result="effect2_innerShadow_346_128"/>
</filter>
<filter id="filter7_i_346_128" x="400.333" y="286.833" width="122.667" height="11.3333" filterUnits="userSpaceOnUse" color-interpolation-filters="sRGB">
<feFlood flood-opacity="0" result="BackgroundImageFix"/>
<feBlend mode="normal" in="SourceGraphic" in2="BackgroundImageFix" result="shape"/>
<feColorMatrix in="SourceAlpha" type="matrix" values="0 0 0 0 0 0 0 0 0 0 0 0 0 0 0 0 0 0 127 0" result="hardAlpha"/>
<feOffset/>
<feGaussianBlur stdDeviation="2.95"/>
<feComposite in2="hardAlpha" operator="arithmetic" k2="-1" k3="1"/>
<feColorMatrix type="matrix" values="0 0 0 0 1 0 0 0 0 1 0 0 0 0 1 0 0 0 0.65 0"/>
<feBlend mode="normal" in2="shape" result="effect1_innerShadow_346_128"/>
</filter>
<linearGradient id="paint0_linear_346_128" x1="246" y1="45.5" x2="0" y2="45.5" gradientUnits="userSpaceOnUse">
<stop/>
<stop offset="1" stop-color="#666666"/>
</linearGradient>
<linearGradient id="paint1_linear_346_128" x1="122.667" y1="5.66667" x2="0" y2="5.66667" gradientUnits="userSpaceOnUse">
<stop stop-color="#8B5000"/>
<stop offset="1" stop-color="#666666"/>
</linearGradient>
<linearGradient id="paint2_linear_346_128" x1="492" y1="239.5" x2="246" y2="239.5" gradientUnits="userSpaceOnUse">
<stop/>
<stop offset="1" stop-color="#666666"/>
</linearGradient>
<linearGradient id="paint3_linear_346_128" x1="122.667" y1="5.66667" x2="0" y2="5.66667" gradientUnits="userSpaceOnUse">
<stop stop-color="#8B5000"/>
<stop offset="1" stop-color="#666666"/>
</linearGradient>
<linearGradient id="paint4_linear_346_128" x1="556" y1="156.5" x2="310" y2="156.5" gradientUnits="userSpaceOnUse">
<stop/>
<stop offset="1" stop-color="#666666"/>
</linearGradient>
<linearGradient id="paint5_linear_346_128" x1="122.667" y1="5.66667" x2="0" y2="5.66667" gradientUnits="userSpaceOnUse">
<stop stop-color="#8B5000"/>
<stop offset="1" stop-color="#666666"/>
</linearGradient>
<linearGradient id="paint6_linear_346_128" x1="246" y1="45.5" x2="0" y2="45.5" gradientUnits="userSpaceOnUse">
<stop/>
<stop offset="1" stop-color="#666666"/>
</linearGradient>
<linearGradient id="paint7_linear_346_128" x1="122.667" y1="5.66667" x2="0" y2="5.66667" gradientUnits="userSpaceOnUse">
<stop stop-color="#8B5000"/>
<stop offset="1" stop-color="#666666"/>
</linearGradient>
</defs>
</svg>
