<svg width="139" height="140" viewBox="0 0 139 140" fill="none" xmlns="http://www.w3.org/2000/svg">
<rect x="1" y="1" width="137" height="138" rx="19" fill="#FFA930"/>
<rect x="1" y="1" width="137" height="138" rx="19" fill="url(#paint0_linear_369_5)" fill-opacity="0.2"/>
<rect x="1" y="1" width="137" height="138" rx="19" stroke="#FFA930" stroke-width="2"/>
<path d="M20.0098 70.996C19.9229 69.991 20.4199 69.026 21.2847 68.5208L44.7688 54.799C46.3995 53.8463 48.4578 54.9271 48.6219 56.8221L50.0603 73.4506C50.1475 74.4556 49.6504 75.4207 48.7857 75.9258L25.3015 89.6477C23.6708 90.6004 21.6123 89.5194 21.4484 87.6246L20.0098 70.996Z" fill="white"/>
<path d="M53.6159 67.3465C53.9427 67.2658 54.2567 67.1385 54.5479 66.9683L79.0101 52.675C80.6409 51.7222 82.6995 52.8031 82.8633 54.698L84.302 71.3265C84.3888 72.3315 83.8918 73.2965 83.027 73.8018L59.5428 87.5236C57.9124 88.4763 55.8537 87.3953 55.69 85.5006L54.8976 76.3432C54.8561 75.8618 54.6698 75.4047 54.3645 75.0331C53.639 74.1503 52.3924 73.9173 51.4022 74.479L47.1166 76.91C46.8222 77.0769 46.4503 76.9925 46.255 76.7144L43.299 72.5032C42.846 71.8578 42.7088 71.0392 42.9263 70.2792L45.7002 60.5867C45.9094 59.8557 46.9023 59.7724 47.2282 60.4585L49.5851 65.4209C50.3087 66.9444 51.9903 67.7478 53.6159 67.3465Z" fill="white"/>
<path d="M54.6981 68.6734C54.6113 67.6684 55.1083 66.7035 55.9731 66.1982L79.4573 52.4764C81.0877 51.5237 83.1464 52.6045 83.3101 54.4995L84.7488 71.128C84.8357 72.1329 84.3387 73.0979 83.4739 73.6032L59.9897 87.3248C58.3592 88.2776 56.3006 87.1969 56.1368 85.3018L54.6981 68.6734Z" fill="white"/>
<path d="M88.3044 65.0239C88.6313 64.9432 88.945 64.8159 89.2361 64.6457L113.699 50.3524C115.329 49.3996 117.388 50.4805 117.552 52.3754L118.99 69.0039C119.077 70.0089 118.58 70.9739 117.715 71.4792L94.2314 85.2008C92.6006 86.1535 90.542 85.0728 90.3782 83.1778L89.5858 74.0204C89.5443 73.5392 89.3584 73.0822 89.0527 72.7104C88.3273 71.8278 87.081 71.5947 86.0904 72.1565L81.8048 74.5872C81.5105 74.7544 81.1386 74.67 80.9433 74.3916L77.9874 70.1806C77.5344 69.5352 77.397 68.7166 77.6145 67.9566L80.3886 58.2641C80.5978 57.5331 81.5906 57.4498 81.9165 58.1359L84.2734 63.0983C84.9969 64.6218 86.6788 65.4252 88.3044 65.0239Z" fill="white"/>
<defs>
<linearGradient id="paint0_linear_369_5" x1="69.5" y1="0" x2="69.5" y2="140" gradientUnits="userSpaceOnUse">
<stop stop-color="#FFA930"/>
<stop offset="1" stop-color="#8B5000"/>
</linearGradient>
</defs>
</svg>
