<svg width="80" height="80" viewBox="0 0 80 80" fill="none" xmlns="http://www.w3.org/2000/svg">
<rect width="80" height="80" rx="12" fill="#FFA930"/>
<path d="M23.75 36.875H26.875V44.375H25C24.5027 44.375 24.0258 44.5725 23.6742 44.9242C23.3225 45.2758 23.125 45.7527 23.125 46.25C23.125 46.7473 23.3225 47.2242 23.6742 47.5758C24.0258 47.9275 24.5027 48.125 25 48.125H55C55.4973 48.125 55.9742 47.9275 56.3258 47.5758C56.6775 47.2242 56.875 46.7473 56.875 46.25C56.875 45.7527 56.6775 45.2758 56.3258 44.9242C55.9742 44.5725 55.4973 44.375 55 44.375H53.125V36.875H56.25C56.6583 36.875 57.0554 36.7418 57.381 36.4956C57.7067 36.2493 57.9431 35.9035 58.0543 35.5107C58.1655 35.1179 58.1454 34.6995 57.9971 34.3191C57.8489 33.9387 57.5805 33.6171 57.2328 33.4031L40.9828 23.4031C40.6873 23.2212 40.347 23.1249 40 23.1249C39.653 23.1249 39.3127 23.2212 39.0172 23.4031L22.7672 33.4031C22.4195 33.6171 22.1511 33.9387 22.0029 34.3191C21.8546 34.6995 21.8345 35.1179 21.9457 35.5107C22.0569 35.9035 22.2933 36.2493 22.619 36.4956C22.9446 36.7418 23.3417 36.875 23.75 36.875ZM30.625 36.875H34.375V44.375H30.625V36.875ZM41.875 36.875V44.375H38.125V36.875H41.875ZM49.375 44.375H45.625V36.875H49.375V44.375ZM40 27.2016L49.625 33.125H30.375L40 27.2016ZM59.375 52.5C59.375 52.9973 59.1775 53.4742 58.8258 53.8258C58.4742 54.1775 57.9973 54.375 57.5 54.375H22.5C22.0027 54.375 21.5258 54.1775 21.1742 53.8258C20.8225 53.4742 20.625 52.9973 20.625 52.5C20.625 52.0027 20.8225 51.5258 21.1742 51.1742C21.5258 50.8225 22.0027 50.625 22.5 50.625H57.5C57.9973 50.625 58.4742 50.8225 58.8258 51.1742C59.1775 51.5258 59.375 52.0027 59.375 52.5Z" fill="white"/>
</svg>
