<svg width="80" height="80" viewBox="0 0 80 80" fill="none" xmlns="http://www.w3.org/2000/svg">
<rect width="80" height="80" rx="12" fill="#FFA930"/>
<path d="M52.125 43.75H27.125C26.2962 43.75 25.5013 44.0792 24.9153 44.6653C24.3292 45.2513 24 46.0462 24 46.875V50.625C24 51.4538 24.3292 52.2487 24.9153 52.8347C25.5013 53.4208 26.2962 53.75 27.125 53.75H52.125C52.9538 53.75 53.7487 53.4208 54.3347 52.8347C54.9208 52.2487 55.25 51.4538 55.25 50.625V46.875C55.25 46.0462 54.9208 45.2513 54.3347 44.6653C53.7487 44.0792 52.9538 43.75 52.125 43.75ZM51.5 50H27.75V47.5H51.5V50ZM52.125 31.875H27.125C26.2962 31.875 25.5013 32.2042 24.9153 32.7903C24.3292 33.3763 24 34.1712 24 35V38.75C24 39.5788 24.3292 40.3737 24.9153 40.9597C25.5013 41.5458 26.2962 41.875 27.125 41.875H52.125C52.9538 41.875 53.7487 41.5458 54.3347 40.9597C54.9208 40.3737 55.25 39.5788 55.25 38.75V35C55.25 34.1712 54.9208 33.3763 54.3347 32.7903C53.7487 32.2042 52.9538 31.875 52.125 31.875ZM51.5 38.125H27.75V35.625H51.5V38.125ZM34.625 25C34.625 24.5027 34.8225 24.0258 35.1742 23.6742C35.5258 23.3225 36.0027 23.125 36.5 23.125H37.75V21.875C37.75 21.3777 37.9475 20.9008 38.2992 20.5492C38.6508 20.1975 39.1277 20 39.625 20C40.1223 20 40.5992 20.1975 40.9508 20.5492C41.3025 20.9008 41.5 21.3777 41.5 21.875V23.125H42.75C43.2473 23.125 43.7242 23.3225 44.0758 23.6742C44.4275 24.0258 44.625 24.5027 44.625 25C44.625 25.4973 44.4275 25.9742 44.0758 26.3258C43.7242 26.6775 43.2473 26.875 42.75 26.875H41.5V28.125C41.5 28.6223 41.3025 29.0992 40.9508 29.4508C40.5992 29.8025 40.1223 30 39.625 30C39.1277 30 38.6508 29.8025 38.2992 29.4508C37.9475 29.0992 37.75 28.6223 37.75 28.125V26.875H36.5C36.0027 26.875 35.5258 26.6775 35.1742 26.3258C34.8225 25.9742 34.625 25.4973 34.625 25Z" fill="white"/>
</svg>
