<svg width="148" height="27" viewBox="0 0 148 27" fill="none" xmlns="http://www.w3.org/2000/svg">
<path d="M4.00653 14.1723C3.94858 13.494 4.2799 12.8426 4.85644 12.5015L20.5125 3.23935C21.5997 2.59625 22.9719 3.32581 23.0813 4.60488L24.0402 15.8291C24.0983 16.5075 23.7669 17.1589 23.1904 17.4999L7.5343 26.7622C6.44723 27.4053 5.07488 26.6756 4.96558 25.3966L4.00653 14.1723Z" fill="#FFA930"/>
<path d="M26.4106 11.7089C26.6285 11.6544 26.8378 11.5685 27.0319 11.4536L43.3401 1.80561C44.4272 1.16251 45.7997 1.89206 45.9089 3.17114L46.868 14.3954C46.9259 15.0738 46.5945 15.7251 46.018 16.0662L30.3619 25.3285C29.2749 25.9715 27.9025 25.2418 27.7933 23.9629L27.2651 17.7816C27.2374 17.4567 27.1132 17.1482 26.9097 16.8974C26.426 16.3014 25.5949 16.1442 24.9348 16.5233L22.0777 18.1642C21.8815 18.2769 21.6336 18.2199 21.5034 18.0322L19.5327 15.1897C19.2306 14.754 19.1392 14.2015 19.2842 13.6885L21.1335 7.14605C21.273 6.65261 21.9349 6.59637 22.1522 7.05951L23.7234 10.4091C24.2058 11.4375 25.3268 11.9798 26.4106 11.7089Z" fill="#FFA930"/>
<path d="M27.1321 12.6046C27.0742 11.9262 27.4055 11.2748 27.9821 10.9338L43.6382 1.6716C44.7252 1.0285 46.0976 1.75805 46.2068 3.03713L47.1659 14.2614C47.2238 14.9397 46.8924 15.5911 46.3159 15.9322L30.6598 25.1943C29.5728 25.8373 28.2004 25.1079 28.0912 23.8287L27.1321 12.6046Z" fill="#FFA930"/>
<path d="M49.5363 10.1411C49.7542 10.0867 49.9633 10.0007 50.1574 9.88584L66.4658 0.237858C67.5527 -0.405244 68.9252 0.324311 69.0343 1.60339L69.9935 12.8276C70.0514 13.506 69.72 14.1574 69.1435 14.4984L53.4876 23.7605C52.4004 24.4036 51.028 23.6742 50.9188 22.395L50.3905 16.2138C50.3629 15.8889 50.2389 15.5805 50.0352 15.3295C49.5515 14.7338 48.7206 14.5764 48.0603 14.9556L45.2032 16.5963C45.007 16.7092 44.759 16.6522 44.6289 16.4643L42.6582 13.6219C42.3563 13.1862 42.2647 12.6337 42.4097 12.1207L44.2591 5.5783C44.3985 5.08484 45.0604 5.0286 45.2776 5.49174L46.8489 8.84134C47.3313 9.86975 48.4525 10.412 49.5363 10.1411Z" fill="#FFA930"/>
<path d="M87.52 5.74C88.86 5.74 90.24 6.06 91.12 7.06C92.4 6.18 93.98 5.74 95.54 5.74C98.38 5.74 100.12 7.18 100.12 10.08C100.12 10.76 100.02 11.44 99.88 12.1L98.3 19.5H94.42L96.02 12C96.1 11.6 96.18 11.2 96.18 10.82C96.18 9.72 95.56 9.48 94.6 9.48C93.16 9.48 92.34 10.8 92.06 12.06L90.48 19.5H86.68L88.28 12.06C88.36 11.66 88.44 11.26 88.44 10.86C88.44 9.78 87.86 9.46 87.06 9.46C85.44 9.46 84.64 10.72 84.36 12L82.74 19.5H78.94L80.52 12.1C81.3 8.44 83.62 5.74 87.52 5.74ZM99.9003 15.48C99.9003 11.72 103.26 8.8 106.94 8.8C109.64 8.8 111.48 10.38 111.48 13.18C111.48 16.92 108.14 19.86 104.46 19.86C101.78 19.86 99.9003 18.28 99.9003 15.48ZM107.78 13.76C107.78 12.74 107.14 12.26 106.22 12.26C104.74 12.26 103.62 13.5 103.62 14.88C103.62 15.92 104.26 16.4 105.18 16.4C106.66 16.4 107.78 15.14 107.78 13.76ZM118.625 8.8C121.345 8.8 123.105 10.26 123.105 13.04C123.105 13.6 123.025 14.16 122.905 14.72L121.885 19.5H118.165L119.245 14.52C119.305 14.22 119.345 13.92 119.345 13.68C119.345 12.58 118.765 12.26 117.965 12.26C116.465 12.26 115.785 13.36 115.525 14.52L114.465 19.5H110.885L111.905 14.72C112.645 11.32 115.045 8.8 118.625 8.8ZM127.885 4.74C128.685 4.74 129.265 5.16 129.265 6.02C129.265 7.2 128.145 8 127.045 8C126.245 8 125.645 7.58 125.645 6.72C125.645 5.56 126.785 4.74 127.885 4.74ZM122.805 19.5L125.025 9.14H128.725L126.505 19.5H122.805ZM133.878 6.96L133.418 9.14H136.178L135.418 12.34H132.738L132.558 13.1C132.338 13.98 132.278 14.44 132.278 14.88C132.278 16.08 132.878 16.4 133.878 16.4C134.178 16.4 134.478 16.38 134.758 16.26L133.958 19.64C133.458 19.78 132.958 19.86 132.378 19.86C129.918 19.86 128.438 18.46 128.438 15.92C128.438 15.32 128.518 14.72 128.638 14.14L130.178 6.96H133.878ZM139.215 21.16C141.015 21.16 141.895 20.18 142.255 18.48C141.275 19.08 140.115 19.4 138.935 19.4C136.715 19.4 135.395 18.26 135.395 15.96C135.395 15.38 135.475 14.8 135.595 14.24L136.695 9.14H140.395L139.435 13.7C139.355 14.04 139.315 14.36 139.315 14.66C139.315 15.72 139.855 15.98 140.675 15.98C141.575 15.98 142.335 15.68 142.975 15.22L144.295 9.14H147.995L146.035 18.22C145.295 21.74 142.715 24.26 138.975 24.26C137.915 24.26 136.795 24.06 135.795 23.62L137.335 20.74C137.915 21.04 138.575 21.16 139.215 21.16Z" fill="#1C0606"/>
</svg>
