<svg width="2094" height="1044" viewBox="0 0 2094 1044" fill="none" xmlns="http://www.w3.org/2000/svg">
<g opacity="0.67" filter="url(#filter0_f_188_345)">
<path d="M530.271 12H14.3879C14.0715 12 13.7677 12.0593 13.4739 12.178C13.1826 12.2991 12.924 12.4672 12.7005 12.6897C12.4746 12.9097 12.3038 13.1644 12.1808 13.4511C12.0603 13.7403 12 14.0395 12 14.3509V522.26C12 522.571 12.0603 522.871 12.1808 523.16C12.3038 523.447 12.4746 523.701 12.7005 523.921C12.924 524.144 13.1826 524.312 13.4739 524.433C13.7677 524.552 14.0715 524.611 14.3879 524.611H530.271C530.587 524.611 530.891 524.552 531.185 524.433C531.476 524.312 531.734 524.144 531.958 523.921C532.184 523.701 532.355 523.447 532.478 523.16C532.598 522.871 532.658 522.571 532.658 522.26V14.3509C532.658 14.0395 532.598 13.7403 532.478 13.4511C532.355 13.1644 532.184 12.9097 531.958 12.6897C531.734 12.4672 531.476 12.2991 531.185 12.178C530.891 12.0593 530.587 12 530.271 12ZM398.911 265.954H274.717V143.68H398.911V265.954ZM403.689 143.68H527.883V265.954H403.689V143.68ZM274.717 138.976V16.7019H398.911V138.976H274.717ZM269.941 138.976H145.748V16.7019H269.941V138.976ZM269.941 143.68V265.954H145.748V143.68H269.941ZM140.969 265.954H16.7757V143.68H140.969V265.954ZM16.7757 270.656H140.969V392.93H16.7757V270.656ZM145.748 270.656H269.941V392.93H145.748V270.656ZM269.941 397.635V519.909H145.748V397.635H269.941ZM274.717 397.635H398.911V519.909H274.717V397.635ZM274.717 392.93V270.656H398.911V392.93H274.717ZM403.689 270.656H527.883V392.93H403.689V270.656ZM527.883 138.976H403.689V16.7019H527.883V138.976ZM140.969 16.7019V138.976H16.7757V16.7019H140.969ZM16.7757 397.635H140.969V519.909H16.7757V397.635ZM403.689 519.909V397.635H527.883V519.909H403.689Z" fill="white"/>
<path d="M1046.61 12H530.726C530.409 12 530.105 12.0593 529.812 12.178C529.52 12.2991 529.262 12.4672 529.038 12.6897C528.812 12.9097 528.641 13.1644 528.518 13.4511C528.398 13.7403 528.338 14.0395 528.338 14.3509V522.26C528.338 522.571 528.398 522.871 528.518 523.16C528.641 523.447 528.812 523.701 529.038 523.921C529.262 524.144 529.52 524.312 529.812 524.433C530.105 524.552 530.409 524.611 530.726 524.611H1046.61C1046.92 524.611 1047.23 524.552 1047.52 524.433C1047.81 524.312 1048.07 524.144 1048.3 523.921C1048.52 523.701 1048.69 523.447 1048.82 523.16C1048.94 522.871 1049 522.571 1049 522.26V14.3509C1049 14.0395 1048.94 13.7403 1048.82 13.4511C1048.69 13.1644 1048.52 12.9097 1048.3 12.6897C1048.07 12.4672 1047.81 12.2991 1047.52 12.178C1047.23 12.0593 1046.92 12 1046.61 12ZM915.248 265.954H791.055V143.68H915.248V265.954ZM920.027 143.68H1044.22V265.954H920.027V143.68ZM791.055 138.976V16.7019H915.248V138.976H791.055ZM786.279 138.976H662.085V16.7019H786.279V138.976ZM786.279 143.68V265.954H662.085V143.68H786.279ZM657.307 265.954H533.113V143.68H657.307V265.954ZM533.113 270.656H657.307V392.93H533.113V270.656ZM662.085 270.656H786.279V392.93H662.085V270.656ZM786.279 397.635V519.909H662.085V397.635H786.279ZM791.055 397.635H915.248V519.909H791.055V397.635ZM791.055 392.93V270.656H915.248V392.93H791.055ZM920.027 270.656H1044.22V392.93H920.027V270.656ZM1044.22 138.976H920.027V16.7019H1044.22V138.976ZM657.307 16.7019V138.976H533.113V16.7019H657.307ZM533.113 397.635H657.307V519.909H533.113V397.635ZM920.027 519.909V397.635H1044.22V519.909H920.027Z" fill="white"/>
<path d="M1562.95 12H1047.06C1046.75 12 1046.44 12.0593 1046.15 12.178C1045.86 12.2991 1045.6 12.4672 1045.38 12.6897C1045.15 12.9097 1044.98 13.1644 1044.86 13.4511C1044.74 13.7403 1044.68 14.0395 1044.68 14.3509V522.26C1044.68 522.571 1044.74 522.871 1044.86 523.16C1044.98 523.447 1045.15 523.701 1045.38 523.921C1045.6 524.144 1045.86 524.312 1046.15 524.433C1046.44 524.552 1046.75 524.611 1047.06 524.611H1562.95C1563.26 524.611 1563.57 524.552 1563.86 524.433C1564.15 524.312 1564.41 524.144 1564.63 523.921C1564.86 523.701 1565.03 523.447 1565.15 523.16C1565.27 522.871 1565.33 522.571 1565.33 522.26V14.3509C1565.33 14.0395 1565.27 13.7403 1565.15 13.4511C1565.03 13.1644 1564.86 12.9097 1564.63 12.6897C1564.41 12.4672 1564.15 12.2991 1563.86 12.178C1563.57 12.0593 1563.26 12 1562.95 12ZM1431.59 265.954H1307.39V143.68H1431.59V265.954ZM1436.36 143.68H1560.56V265.954H1436.36V143.68ZM1307.39 138.976V16.7019H1431.59V138.976H1307.39ZM1302.62 138.976H1178.42V16.7019H1302.62V138.976ZM1302.62 143.68V265.954H1178.42V143.68H1302.62ZM1173.64 265.954H1049.45V143.68H1173.64V265.954ZM1049.45 270.656H1173.64V392.93H1049.45V270.656ZM1178.42 270.656H1302.62V392.93H1178.42V270.656ZM1302.62 397.635V519.909H1178.42V397.635H1302.62ZM1307.39 397.635H1431.59V519.909H1307.39V397.635ZM1307.39 392.93V270.656H1431.59V392.93H1307.39ZM1436.36 270.656H1560.56V392.93H1436.36V270.656ZM1560.56 138.976H1436.36V16.7019H1560.56V138.976ZM1173.64 16.7019V138.976H1049.45V16.7019H1173.64ZM1049.45 397.635H1173.64V519.909H1049.45V397.635ZM1436.36 519.909V397.635H1560.56V519.909H1436.36Z" fill="white"/>
<path d="M2079.28 12H1563.4C1563.08 12 1562.78 12.0593 1562.49 12.178C1562.2 12.2991 1561.94 12.4672 1561.71 12.6897C1561.49 12.9097 1561.32 13.1644 1561.19 13.4511C1561.07 13.7403 1561.01 14.0395 1561.01 14.3509V522.26C1561.01 522.571 1561.07 522.871 1561.19 523.16C1561.32 523.447 1561.49 523.701 1561.71 523.921C1561.94 524.144 1562.2 524.312 1562.49 524.433C1562.78 524.552 1563.08 524.611 1563.4 524.611H2079.28C2079.6 524.611 2079.9 524.552 2080.2 524.433C2080.49 524.312 2080.75 524.144 2080.97 523.921C2081.2 523.701 2081.37 523.447 2081.49 523.16C2081.61 522.871 2081.67 522.571 2081.67 522.26V14.3509C2081.67 14.0395 2081.61 13.7403 2081.49 13.4511C2081.37 13.1644 2081.2 12.9097 2080.97 12.6897C2080.75 12.4672 2080.49 12.2991 2080.2 12.178C2079.9 12.0593 2079.6 12 2079.28 12ZM1947.92 265.954H1823.73V143.68H1947.92V265.954ZM1952.7 143.68H2076.9V265.954H1952.7V143.68ZM1823.73 138.976V16.7019H1947.92V138.976H1823.73ZM1818.95 138.976H1694.76V16.7019H1818.95V138.976ZM1818.95 143.68V265.954H1694.76V143.68H1818.95ZM1689.98 265.954H1565.79V143.68H1689.98V265.954ZM1565.79 270.656H1689.98V392.93H1565.79V270.656ZM1694.76 270.656H1818.95V392.93H1694.76V270.656ZM1818.95 397.635V519.909H1694.76V397.635H1818.95ZM1823.73 397.635H1947.92V519.909H1823.73V397.635ZM1823.73 392.93V270.656H1947.92V392.93H1823.73ZM1952.7 270.656H2076.9V392.93H1952.7V270.656ZM2076.9 138.976H1952.7V16.7019H2076.9V138.976ZM1689.98 16.7019V138.976H1565.79V16.7019H1689.98ZM1565.79 397.635H1689.98V519.909H1565.79V397.635ZM1952.7 519.909V397.635H2076.9V519.909H1952.7Z" fill="white"/>
<path d="M530.271 519.311H14.3879C14.0715 519.311 13.7677 519.37 13.4739 519.489C13.1826 519.61 12.924 519.778 12.7005 520.001C12.4746 520.221 12.3038 520.475 12.1808 520.762C12.0603 521.051 12 521.351 12 521.662V1029.57C12 1029.88 12.0603 1030.18 12.1808 1030.47C12.3038 1030.76 12.4746 1031.01 12.7005 1031.23C12.924 1031.45 13.1826 1031.62 13.4739 1031.74C13.7677 1031.86 14.0715 1031.92 14.3879 1031.92H530.271C530.587 1031.92 530.891 1031.86 531.185 1031.74C531.476 1031.62 531.734 1031.45 531.958 1031.23C532.184 1031.01 532.355 1030.76 532.478 1030.47C532.598 1030.18 532.658 1029.88 532.658 1029.57V521.662C532.658 521.351 532.598 521.051 532.478 520.762C532.355 520.475 532.184 520.221 531.958 520.001C531.734 519.778 531.476 519.61 531.185 519.489C530.891 519.37 530.587 519.311 530.271 519.311ZM398.911 773.266H274.717V650.991H398.911V773.266ZM403.689 650.991H527.883V773.266H403.689V650.991ZM274.717 646.287V524.013H398.911V646.287H274.717ZM269.941 646.287H145.748V524.013H269.941V646.287ZM269.941 650.991V773.266H145.748V650.991H269.941ZM140.969 773.266H16.7757V650.991H140.969V773.266ZM16.7757 777.967H140.969V900.242H16.7757V777.967ZM145.748 777.967H269.941V900.242H145.748V777.967ZM269.941 904.946V1027.22H145.748V904.946H269.941ZM274.717 904.946H398.911V1027.22H274.717V904.946ZM274.717 900.242V777.967H398.911V900.242H274.717ZM403.689 777.967H527.883V900.242H403.689V777.967ZM527.883 646.287H403.689V524.013H527.883V646.287ZM140.969 524.013V646.287H16.7757V524.013H140.969ZM16.7757 904.946H140.969V1027.22H16.7757V904.946ZM403.689 1027.22V904.946H527.883V1027.22H403.689Z" fill="white"/>
<path d="M1046.61 519.311H530.726C530.409 519.311 530.105 519.37 529.812 519.489C529.52 519.61 529.262 519.778 529.038 520.001C528.812 520.221 528.641 520.475 528.518 520.762C528.398 521.051 528.338 521.351 528.338 521.662V1029.57C528.338 1029.88 528.398 1030.18 528.518 1030.47C528.641 1030.76 528.812 1031.01 529.038 1031.23C529.262 1031.45 529.52 1031.62 529.812 1031.74C530.105 1031.86 530.409 1031.92 530.726 1031.92H1046.61C1046.92 1031.92 1047.23 1031.86 1047.52 1031.74C1047.81 1031.62 1048.07 1031.45 1048.3 1031.23C1048.52 1031.01 1048.69 1030.76 1048.82 1030.47C1048.94 1030.18 1049 1029.88 1049 1029.57V521.662C1049 521.351 1048.94 521.051 1048.82 520.762C1048.69 520.475 1048.52 520.221 1048.3 520.001C1048.07 519.778 1047.81 519.61 1047.52 519.489C1047.23 519.37 1046.92 519.311 1046.61 519.311ZM915.248 773.266H791.055V650.991H915.248V773.266ZM920.027 650.991H1044.22V773.266H920.027V650.991ZM791.055 646.287V524.013H915.248V646.287H791.055ZM786.279 646.287H662.085V524.013H786.279V646.287ZM786.279 650.991V773.266H662.085V650.991H786.279ZM657.307 773.266H533.113V650.991H657.307V773.266ZM533.113 777.967H657.307V900.242H533.113V777.967ZM662.085 777.967H786.279V900.242H662.085V777.967ZM786.279 904.946V1027.22H662.085V904.946H786.279ZM791.055 904.946H915.248V1027.22H791.055V904.946ZM791.055 900.242V777.967H915.248V900.242H791.055ZM920.027 777.967H1044.22V900.242H920.027V777.967ZM1044.22 646.287H920.027V524.013H1044.22V646.287ZM657.307 524.013V646.287H533.113V524.013H657.307ZM533.113 904.946H657.307V1027.22H533.113V904.946ZM920.027 1027.22V904.946H1044.22V1027.22H920.027Z" fill="white"/>
<path d="M1562.95 519.311H1047.06C1046.75 519.311 1046.44 519.37 1046.15 519.489C1045.86 519.61 1045.6 519.778 1045.38 520.001C1045.15 520.221 1044.98 520.475 1044.86 520.762C1044.74 521.051 1044.68 521.351 1044.68 521.662V1029.57C1044.68 1029.88 1044.74 1030.18 1044.86 1030.47C1044.98 1030.76 1045.15 1031.01 1045.38 1031.23C1045.6 1031.45 1045.86 1031.62 1046.15 1031.74C1046.44 1031.86 1046.75 1031.92 1047.06 1031.92H1562.95C1563.26 1031.92 1563.57 1031.86 1563.86 1031.74C1564.15 1031.62 1564.41 1031.45 1564.63 1031.23C1564.86 1031.01 1565.03 1030.76 1565.15 1030.47C1565.27 1030.18 1565.33 1029.88 1565.33 1029.57V521.662C1565.33 521.351 1565.27 521.051 1565.15 520.762C1565.03 520.475 1564.86 520.221 1564.63 520.001C1564.41 519.778 1564.15 519.61 1563.86 519.489C1563.57 519.37 1563.26 519.311 1562.95 519.311ZM1431.59 773.266H1307.39V650.991H1431.59V773.266ZM1436.36 650.991H1560.56V773.266H1436.36V650.991ZM1307.39 646.287V524.013H1431.59V646.287H1307.39ZM1302.62 646.287H1178.42V524.013H1302.62V646.287ZM1302.62 650.991V773.266H1178.42V650.991H1302.62ZM1173.64 773.266H1049.45V650.991H1173.64V773.266ZM1049.45 777.967H1173.64V900.242H1049.45V777.967ZM1178.42 777.967H1302.62V900.242H1178.42V777.967ZM1302.62 904.946V1027.22H1178.42V904.946H1302.62ZM1307.39 904.946H1431.59V1027.22H1307.39V904.946ZM1307.39 900.242V777.967H1431.59V900.242H1307.39ZM1436.36 777.967H1560.56V900.242H1436.36V777.967ZM1560.56 646.287H1436.36V524.013H1560.56V646.287ZM1173.64 524.013V646.287H1049.45V524.013H1173.64ZM1049.45 904.946H1173.64V1027.22H1049.45V904.946ZM1436.36 1027.22V904.946H1560.56V1027.22H1436.36Z" fill="white"/>
<path d="M2079.28 519.311H1563.4C1563.08 519.311 1562.78 519.37 1562.49 519.489C1562.2 519.61 1561.94 519.778 1561.71 520.001C1561.49 520.221 1561.32 520.475 1561.19 520.762C1561.07 521.051 1561.01 521.351 1561.01 521.662V1029.57C1561.01 1029.88 1561.07 1030.18 1561.19 1030.47C1561.32 1030.76 1561.49 1031.01 1561.71 1031.23C1561.94 1031.45 1562.2 1031.62 1562.49 1031.74C1562.78 1031.86 1563.08 1031.92 1563.4 1031.92H2079.28C2079.6 1031.92 2079.9 1031.86 2080.2 1031.74C2080.49 1031.62 2080.75 1031.45 2080.97 1031.23C2081.2 1031.01 2081.37 1030.76 2081.49 1030.47C2081.61 1030.18 2081.67 1029.88 2081.67 1029.57V521.662C2081.67 521.351 2081.61 521.051 2081.49 520.762C2081.37 520.475 2081.2 520.221 2080.97 520.001C2080.75 519.778 2080.49 519.61 2080.2 519.489C2079.9 519.37 2079.6 519.311 2079.28 519.311ZM1947.92 773.266H1823.73V650.991H1947.92V773.266ZM1952.7 650.991H2076.9V773.266H1952.7V650.991ZM1823.73 646.287V524.013H1947.92V646.287H1823.73ZM1818.95 646.287H1694.76V524.013H1818.95V646.287ZM1818.95 650.991V773.266H1694.76V650.991H1818.95ZM1689.98 773.266H1565.79V650.991H1689.98V773.266ZM1565.79 777.967H1689.98V900.242H1565.79V777.967ZM1694.76 777.967H1818.95V900.242H1694.76V777.967ZM1818.95 904.946V1027.22H1694.76V904.946H1818.95ZM1823.73 904.946H1947.92V1027.22H1823.73V904.946ZM1823.73 900.242V777.967H1947.92V900.242H1823.73ZM1952.7 777.967H2076.9V900.242H1952.7V777.967ZM2076.9 646.287H1952.7V524.013H2076.9V646.287ZM1689.98 524.013V646.287H1565.79V524.013H1689.98ZM1565.79 904.946H1689.98V1027.22H1565.79V904.946ZM1952.7 1027.22V904.946H2076.9V1027.22H1952.7Z" fill="white"/>
</g>
<defs>
<filter id="filter0_f_188_345" x="0" y="0" width="2093.67" height="1043.92" filterUnits="userSpaceOnUse" color-interpolation-filters="sRGB">
<feFlood flood-opacity="0" result="BackgroundImageFix"/>
<feBlend mode="normal" in="SourceGraphic" in2="BackgroundImageFix" result="shape"/>
<feGaussianBlur stdDeviation="6" result="effect1_foregroundBlur_188_345"/>
</filter>
</defs>
</svg>
